<?xml version="1.0" encoding="UTF-8"?>
<svg width="20px" height="20px" viewBox="0 0 20 20" version="1.1" xmlns="http://www.w3.org/2000/svg" xmlns:xlink="http://www.w3.org/1999/xlink">
    <!-- Generator: Sketch 46.2 (44496) - http://www.bohemiancoding.com/sketch -->
    <title>icon caution circle</title>
    <desc>Created with Sketch.</desc>
    <defs></defs>
    <g id="Symbols" stroke="none" stroke-width="1" fill="none" fill-rule="evenodd">
        <g id="icon-caution-circle">
            <circle id="Oval" fill="#F8F7F7" cx="10" cy="10" r="10"></circle>
            <path d="M11.474,4.398 L10.862,11.58 L9.422,11.58 L8.828,4.398 L11.474,4.398 Z M8.774,13.794 C8.774,13.4099981 8.90599868,13.0980012 9.17,12.858 C9.43400132,12.6179988 9.75799808,12.498 10.142,12.498 C10.538002,12.498 10.8709987,12.6179988 11.141,12.858 C11.4110013,13.0980012 11.546,13.4099981 11.546,13.794 C11.546,14.1780019 11.4110013,14.4899988 11.141,14.73 C10.8709987,14.9700012 10.538002,15.09 10.142,15.09 C9.75799808,15.09 9.43400132,14.9700012 9.17,14.73 C8.90599868,14.4899988 8.774,14.1780019 8.774,13.794 Z" id="!" fill="#373151"></path>
        </g>
    </g>
</svg>