<svg xmlns="http://www.w3.org/2000/svg" width="100" height="108" viewBox="0 0 100 108" aria-hidden="true">
    <title>File icon set</title>
    <g data-icon="file">
        <g data-icon="page" fill="#cbc9cd" fill-rule="nonzero">
            <path data-icon="page-main" d="M0.0112761248,0 L55.9803815,0 L86,31.0757723 L86,108 L0,108 L0.0112761248,0 Z M2.01108433,2.00736845 L2.00021277,106.007368 L84.0002128,106.007368 L84.0002128,31.8971133 L55.246835,2.20661616 L2.01108433,2.00736845 Z"></path>
            <polygon data-icon="page-fold" points="83.0826977 29.9827586 85.0851064 31.9827586 53.9787234 31.9827586 53.9787234 0.913793103 55.9787234 2.91138733 55.9787234 29.9827586"></polygon>
        </g>
        <g data-icon="success" transform="translate(70.000000, 66.000000)">
            <circle data-icon="success-background" fill="#00b95d" fill-rule="nonzero" cx="15" cy="15" r="15"></circle>
            <polyline data-icon="success-icon" fill="none" stroke="#f8f7f7" stroke-width="3" transform="translate(15.485282, 11.985281) rotate(-45.000000) translate(-15.485282, -11.985281) " points="8.98528165 7.9852813 8.98528165 15.9852813 21.9852817 15.9852813"></polyline>
        </g>
        <g data-icon="failure" transform="translate(70.000000, 66.000000)" fill-rule="nonzero">
            <circle data-icon="failure-background" fill="#de2e32" cx="15" cy="15" r="15"></circle>
            <path data-icon="failure-text" fill="#f8f7f7" d="M16.8961039,7 L16.012987,17.7474747 L13.9350649,17.7474747 L13.0779221,7 L16.8961039,7 Z M13,21.0606061 C13,20.4859679 13.1904743,20.0190815 13.5714286,19.6599327 C13.9523829,19.3007838 14.4199106,19.1212121 14.974026,19.1212121 C15.5454574,19.1212121 16.0259721,19.3007838 16.4155844,19.6599327 C16.8051968,20.0190815 17,20.4859679 17,21.0606061 C17,21.6352442 16.8051968,22.1021306 16.4155844,22.4612795 C16.0259721,22.8204283 15.5454574,23 14.974026,23 C14.4199106,23 13.9523829,22.8204283 13.5714286,22.4612795 C13.1904743,22.1021306 13,21.6352442 13,21.0606061 Z"></path>
        </g>
        <g data-icon="word" transform="translate(45.000000, 69.000000)" fill-rule="nonzero">
            <rect data-icon="word-background" fill="#5f2db4" x="0" y="0" width="49" height="24"></rect>
            <path data-icon="word-text" fill="#f8f7f7" d="M9.556,17.108 C9.24399844,17.108 8.98000108,17.0000011 8.764,16.784 C8.54799892,16.5679989 8.44,16.3040016 8.44,15.992 C8.44,15.6799984 8.54799892,15.4160011 8.764,15.2 C8.98000108,14.9839989 9.24399844,14.876 9.556,14.876 C9.86800156,14.876 10.1319989,14.9839989 10.348,15.2 C10.5640011,15.4160011 10.672,15.6799984 10.672,15.992 C10.672,16.3040016 10.5640011,16.5679989 10.348,16.784 C10.1319989,17.0000011 9.86800156,17.108 9.556,17.108 Z M16.648,16.118 C17.248003,16.118 17.7669978,15.8960022 18.205,15.452 C18.6430022,15.0079978 18.862,14.4380035 18.862,13.742 L18.862,11.798 C18.862,11.1259966 18.6490021,10.586002 18.223,10.178 C17.7969979,9.76999796 17.2780031,9.566 16.666,9.566 C15.8979962,9.566 15.310002,9.85399712 14.902,10.43 C14.493998,11.0060029 14.29,11.8459945 14.29,12.95 C14.29,13.958005 14.4969979,14.7379972 14.911,15.29 C15.3250021,15.8420028 15.9039963,16.118 16.648,16.118 Z M16.648,8.486 C17.1520025,8.486 17.6169979,8.61499871 18.043,8.873 C18.4690021,9.13100129 18.7359995,9.44599814 18.844,9.818 L18.844,4.976 L20.23,4.976 L20.23,17 L19.024,17 L18.862,15.56 C18.6339989,16.1120028 18.3010022,16.5259986 17.863,16.802 C17.4249978,17.0780014 16.8700034,17.216 16.198,17.216 C15.2379952,17.216 14.4520031,16.8290039 13.84,16.055 C13.2279969,15.2809961 12.922,14.2520064 12.922,12.968 C12.922,11.5519929 13.2459968,10.4510039 13.894,9.665 C14.5420032,8.87899607 15.4599941,8.486 16.648,8.486 Z M28.456,12.788 C28.456,11.7199947 28.261002,10.9220026 27.871,10.394 C27.480998,9.86599736 26.890004,9.602 26.098,9.602 C25.305996,9.602 24.715002,9.86599736 24.325,10.394 C23.9349981,10.9220026 23.74,11.7199947 23.74,12.788 C23.74,13.8920055 23.937998,14.7259972 24.334,15.29 C24.730002,15.8540028 25.3179961,16.136 26.098,16.136 C26.8780039,16.136 27.465998,15.8540028 27.862,15.29 C28.258002,14.7259972 28.456,13.8920055 28.456,12.788 Z M29.806,12.788 C29.806,14.180007 29.4760033,15.2659961 28.816,16.046 C28.1559967,16.8260039 27.2500058,17.216 26.098,17.216 C24.9459942,17.216 24.0400033,16.8260039 23.38,16.046 C22.7199967,15.2659961 22.39,14.180007 22.39,12.788 C22.39,11.4199932 22.7169967,10.3610037 23.371,9.611 C24.0250033,8.86099625 24.9339942,8.486 26.098,8.486 C27.2620058,8.486 28.1709967,8.86099625 28.825,9.611 C29.4790033,10.3610037 29.806,11.4199932 29.806,12.788 Z M35.134,16.118 C35.6260025,16.118 36.0279984,15.9980012 36.34,15.758 C36.6520016,15.5179988 36.8739993,15.1640023 37.006,14.696 L38.158,14.948 C38.0379994,15.6920037 37.7080027,16.2559981 37.168,16.64 C36.6279973,17.0240019 35.9020046,17.216 34.99,17.216 C33.8979945,17.216 33.0310032,16.8320038 32.389,16.064 C31.7469968,15.2959962 31.426,14.2400067 31.426,12.896 C31.426,11.5279932 31.7589967,10.4510039 32.425,9.665 C33.0910033,8.87899607 33.9939943,8.486 35.134,8.486 C36.0100044,8.486 36.7029975,8.70799778 37.213,9.152 C37.7230026,9.59600222 38.0019998,10.2259959 38.05,11.042 L36.772,11.24 C36.6879996,10.7119974 36.4990015,10.3100014 36.205,10.034 C35.9109985,9.75799862 35.5240024,9.62 35.044,9.62 C34.3239964,9.62 33.760002,9.91399706 33.352,10.502 C32.943998,11.0900029 32.74,11.8939949 32.74,12.914 C32.74,13.8620047 32.9619978,14.632997 33.406,15.227 C33.8500022,15.821003 34.4259965,16.118 35.134,16.118 Z"></path>
        </g>
        <g data-icon="pdf" transform="translate(45.000000, 69.000000)" fill-rule="nonzero">
            <rect data-icon="pdf-background" fill="#5f2db4" x="0" y="0" width="49" height="24"></rect>
            <path data-icon="pdf-text" fill="#f8f7f7" d="M11.556,17.108 C11.2439984,17.108 10.9800011,17.0000011 10.764,16.784 C10.5479989,16.5679989 10.44,16.3040016 10.44,15.992 C10.44,15.6799984 10.5479989,15.4160011 10.764,15.2 C10.9800011,14.9839989 11.2439984,14.876 11.556,14.876 C11.8680016,14.876 12.1319989,14.9839989 12.348,15.2 C12.5640011,15.4160011 12.672,15.6799984 12.672,15.992 C12.672,16.3040016 12.5640011,16.5679989 12.348,16.784 C12.1319989,17.0000011 11.8680016,17.108 11.556,17.108 Z M19.17,9.62 C18.4859966,9.62 17.9250022,9.8539977 17.487,10.322 C17.0489978,10.7900023 16.83,11.4079962 16.83,12.176 L16.83,13.85 C16.83,14.5580035 17.033998,15.1219979 17.442,15.542 C17.850002,15.9620021 18.3599969,16.172 18.972,16.172 C19.7040037,16.172 20.2859978,15.872003 20.718,15.272 C21.1500022,14.671997 21.366,13.8380053 21.366,12.77 C21.366,11.761995 21.1770019,10.9850027 20.799,10.439 C20.4209981,9.8929973 19.8780035,9.62 19.17,9.62 Z M19.17,17.216 C18.5939971,17.216 18.105002,17.1020011 17.703,16.874 C17.300998,16.6459989 17.0100009,16.3220021 16.83,15.902 L16.83,20.654 L15.462,20.654 L15.462,8.684 L16.542,8.684 L16.704,10.286 C16.9200011,9.7099971 17.2769975,9.2660016 17.775,8.954 C18.2730025,8.6419984 18.8399968,8.486 19.476,8.486 C20.5200052,8.486 21.3299971,8.8489964 21.906,9.575 C22.4820029,10.3010036 22.77,11.3239934 22.77,12.644 C22.77,13.9880067 22.4400033,15.0859957 21.78,15.938 C21.1199967,16.7900043 20.2500054,17.216 19.17,17.216 Z M28.116,16.118 C28.716003,16.118 29.2349978,15.8960022 29.673,15.452 C30.1110022,15.0079978 30.33,14.4380035 30.33,13.742 L30.33,11.798 C30.33,11.1259966 30.1170021,10.586002 29.691,10.178 C29.2649979,9.769998 28.7460031,9.566 28.134,9.566 C27.3659962,9.566 26.778002,9.8539971 26.37,10.43 C25.961998,11.0060029 25.758,11.8459945 25.758,12.95 C25.758,13.958005 25.9649979,14.7379972 26.379,15.29 C26.7930021,15.8420028 27.3719963,16.118 28.116,16.118 Z M28.116,8.486 C28.6200025,8.486 29.0849979,8.6149987 29.511,8.873 C29.9370021,9.1310013 30.2039995,9.4459981 30.312,9.818 L30.312,4.976 L31.698,4.976 L31.698,17 L30.492,17 L30.33,15.56 C30.1019989,16.1120028 29.7690022,16.5259986 29.331,16.802 C28.8929978,17.0780014 28.3380034,17.216 27.666,17.216 C26.7059952,17.216 25.9200031,16.8290039 25.308,16.055 C24.6959969,15.2809961 24.39,14.2520064 24.39,12.968 C24.39,11.5519929 24.7139968,10.4510039 25.362,9.665 C26.0100032,8.8789961 26.9279941,8.486 28.116,8.486 Z M34.524,17 L34.524,9.782 L33.318,9.782 L33.318,8.684 L34.524,8.684 L34.524,7.64 C34.524,6.7399955 34.7639976,6.0500024 35.244,5.57 C35.7240024,5.0899976 36.3839958,4.85 37.224,4.85 C37.5000014,4.85 37.7699987,4.87699973 38.034,4.931 C38.2980013,4.98500027 38.5679986,5.0659995 38.844,5.174 L38.556,6.362 C38.3039987,6.2299993 38.082001,6.1370003 37.89,6.083 C37.697999,6.0289997 37.4880011,6.002 37.26,6.002 C36.7919977,6.002 36.4470011,6.1429986 36.225,6.425 C36.0029989,6.7070014 35.892,7.1359971 35.892,7.712 L35.892,8.684 L38.016,8.684 L38.016,9.782 L35.892,9.782 L35.892,17 L34.524,17 Z"></path>
        </g>
    </g>
</svg>
