<?xml version="1.0" encoding="UTF-8"?>
<svg width="268px" height="50px" viewBox="0 0 268 50" version="1.1" xmlns="http://www.w3.org/2000/svg" xmlns:xlink="http://www.w3.org/1999/xlink">
    <!-- Generator: Sketch 42 (36781) - http://www.bohemiancoding.com/sketch -->
    <title>parliament-uk--white</title>
    <g id="Page-1" stroke="none" stroke-width="1" fill="none" fill-rule="evenodd">
        <g id="parliament-uk--white-50" fill-rule="nonzero" fill="#FFFFFF">
            <path d="M55.476,29.6428571 C55.476,27.3214286 55.3866667,25.4464286 55.2973333,23.75 L58.2453333,23.75 L58.424,26.875 L58.5133333,26.875 C59.8533333,24.6428571 61.9973333,23.3928571 64.9453333,23.3928571 C69.3226667,23.3928571 72.5386667,27.0535714 72.5386667,32.5 C72.5386667,38.9285714 68.608,42.1428571 64.32,42.1428571 C61.908,42.1428571 59.8533333,41.0714286 58.7813333,39.2857143 L58.692,39.2857143 L58.692,49.1071429 L55.476,49.1071429 L55.476,29.6428571 Z M58.692,34.4642857 C58.692,34.9107143 58.7813333,35.3571429 58.8706667,35.8035714 C59.496,38.0357143 61.4613333,39.6428571 63.784,39.6428571 C67.268,39.6428571 69.2333333,36.7857143 69.2333333,32.6785714 C69.2333333,29.1071429 67.3573333,25.9821429 63.8733333,25.9821429 C61.64,25.9821429 59.5853333,27.5892857 58.96,30 C58.8706667,30.4464286 58.692,30.8928571 58.692,31.3392857 L58.692,34.4642857 Z M89.3333333,37.5 C89.3333333,39.0178571 89.4226667,40.625 89.6013333,41.7857143 L86.6533333,41.7857143 L86.3853333,39.5535714 L86.296,39.5535714 C85.3133333,40.9821429 83.348,42.2321429 80.7573333,42.2321429 C77.0946667,42.2321429 75.2186667,39.6428571 75.2186667,37.0535714 C75.2186667,32.6785714 79.06,30.3571429 86.028,30.3571429 L86.028,30 C86.028,28.4821429 85.5813333,25.8035714 81.9186667,25.8035714 C80.2213333,25.8035714 78.524,26.3392857 77.2733333,27.1428571 L76.5586667,25 C78.0773333,24.0178571 80.2213333,23.3928571 82.4546667,23.3928571 C87.9933333,23.3928571 89.3333333,27.1428571 89.3333333,30.7142857 L89.3333333,37.5 Z M86.1173333,32.5892857 C82.544,32.5 78.524,33.125 78.524,36.6071429 C78.524,38.75 79.9533333,39.7321429 81.6506667,39.7321429 C83.9733333,39.7321429 85.492,38.2142857 86.028,36.6964286 C86.1173333,36.3392857 86.2066667,35.9821429 86.2066667,35.625 L86.1173333,32.5892857 L86.1173333,32.5892857 Z M94.604,29.375 C94.604,27.2321429 94.604,25.4464286 94.4253333,23.75 L97.284,23.75 L97.3733333,27.3214286 L97.552,27.3214286 C98.356,24.9107143 100.321333,23.3928571 102.554667,23.3928571 C102.912,23.3928571 103.18,23.3928571 103.448,23.4821429 L103.448,26.6071429 C103.090667,26.5178571 102.733333,26.5178571 102.286667,26.5178571 C99.964,26.5178571 98.356,28.3035714 97.9093333,30.7142857 C97.82,31.1607143 97.7306667,31.6964286 97.7306667,32.2321429 L97.7306667,41.7857143 L94.5146667,41.7857143 L94.5146667,29.375 L94.604,29.375 L94.604,29.375 Z M106.932,15.3571429 L110.237333,15.3571429 L110.237333,41.7857143 L106.932,41.7857143 L106.932,15.3571429 Z M119.349333,18.75 C119.349333,19.9107143 118.545333,20.7142857 117.294667,20.7142857 C116.133333,20.7142857 115.329333,19.8214286 115.329333,18.75 C115.329333,17.5892857 116.222667,16.6964286 117.384,16.6964286 C118.545333,16.6964286 119.349333,17.5892857 119.349333,18.75 Z M115.686667,41.7857143 L115.686667,23.75 L118.992,23.75 L118.992,41.7857143 L115.686667,41.7857143 Z M137.037333,37.5 C137.037333,39.0178571 137.126667,40.625 137.305333,41.7857143 L134.357333,41.7857143 L134.089333,39.5535714 L134,39.5535714 C133.017333,40.9821429 131.052,42.2321429 128.461333,42.2321429 C124.798667,42.2321429 122.922667,39.6428571 122.922667,37.0535714 C122.922667,32.6785714 126.764,30.3571429 133.732,30.3571429 L133.732,30 C133.732,28.4821429 133.285333,25.8035714 129.622667,25.8035714 C127.925333,25.8035714 126.228,26.3392857 124.977333,27.1428571 L124.262667,25 C125.781333,24.0178571 127.925333,23.3928571 130.158667,23.3928571 C135.697333,23.3928571 137.037333,27.1428571 137.037333,30.7142857 L137.037333,37.5 Z M133.910667,32.5892857 C130.337333,32.5 126.317333,33.125 126.317333,36.6071429 C126.317333,38.75 127.746667,39.7321429 129.444,39.7321429 C131.766667,39.7321429 133.285333,38.2142857 133.821333,36.6964286 C133.910667,36.3392857 134,35.9821429 134,35.625 L133.910667,32.5892857 Z M142.308,28.6607143 C142.308,26.7857143 142.308,25.2678571 142.129333,23.75 L144.988,23.75 L145.166667,26.6071429 L145.256,26.6071429 C146.238667,24.9107143 147.936,23.3035714 150.884,23.3035714 C153.296,23.3035714 155.172,24.8214286 155.976,26.875 L156.065333,26.875 C156.601333,25.8928571 157.316,25.0892857 158.030667,24.5535714 C159.102667,23.75 160.264,23.3035714 162.050667,23.3035714 C164.462667,23.3035714 167.946667,24.8214286 167.946667,31.0714286 L167.946667,41.6964286 L164.730667,41.6964286 L164.730667,31.6071429 C164.730667,28.125 163.48,26.0714286 160.8,26.0714286 C158.924,26.0714286 157.494667,27.4107143 156.958667,29.0178571 C156.78,29.4642857 156.690667,30.0892857 156.690667,30.625 L156.690667,41.7857143 L153.474667,41.7857143 L153.474667,30.9821429 C153.474667,28.125 152.224,26.0714286 149.722667,26.0714286 C147.668,26.0714286 146.149333,27.6785714 145.702667,29.375 C145.524,29.8214286 145.434667,30.4464286 145.434667,30.9821429 L145.434667,41.875 L142.218667,41.875 L142.218667,28.6607143 L142.308,28.6607143 L142.308,28.6607143 Z M175.182667,33.3928571 C175.272,37.8571429 178.041333,39.6428571 181.346667,39.6428571 C183.669333,39.6428571 185.098667,39.1964286 186.349333,38.75 L186.885333,41.0714286 C185.724,41.6071429 183.758667,42.2321429 180.9,42.2321429 C175.361333,42.2321429 172.056,38.5714286 172.056,33.125 C172.056,27.6785714 175.272,23.3928571 180.542667,23.3928571 C186.438667,23.3928571 187.957333,28.5714286 187.957333,31.875 C187.957333,32.5892857 187.868,33.0357143 187.868,33.3928571 L175.182667,33.3928571 L175.182667,33.3928571 Z M184.741333,31.0714286 C184.741333,29.0178571 183.848,25.7142857 180.185333,25.7142857 C176.88,25.7142857 175.450667,28.75 175.182667,31.0714286 L184.741333,31.0714286 Z M191.977333,28.6607143 C191.977333,26.7857143 191.977333,25.2678571 191.798667,23.75 L194.657333,23.75 L194.836,26.6964286 L194.925333,26.6964286 C195.818667,25 197.873333,23.3035714 200.910667,23.3035714 C203.412,23.3035714 207.253333,24.8214286 207.253333,30.9821429 L207.253333,41.6964286 L203.948,41.6964286 L203.948,31.4285714 C203.948,28.5714286 202.876,26.0714286 199.749333,26.0714286 C197.605333,26.0714286 195.908,27.5892857 195.372,29.375 C195.193333,29.8214286 195.193333,30.3571429 195.193333,30.8928571 L195.193333,41.6964286 L191.888,41.6964286 L191.977333,28.6607143 L191.977333,28.6607143 Z M216.454667,19.4642857 L216.454667,23.75 L221.1,23.75 L221.1,26.25 L216.454667,26.25 L216.454667,35.9821429 C216.454667,38.2142857 217.08,39.4642857 218.866667,39.4642857 C219.76,39.4642857 220.296,39.375 220.742667,39.1964286 L220.921333,41.6071429 C220.296,41.875 219.313333,42.0535714 218.062667,42.0535714 C216.544,42.0535714 215.293333,41.5178571 214.489333,40.625 C213.596,39.6428571 213.238667,38.0357143 213.238667,35.9821429 L213.238667,26.1607143 L210.469333,26.1607143 L210.469333,23.6607143 L213.238667,23.6607143 L213.238667,20.3571429 L216.454667,19.4642857 L216.454667,19.4642857 Z M226.102667,42.2321429 C224.852,42.2321429 223.958667,41.25 223.958667,39.9107143 C223.958667,38.5714286 224.852,37.5892857 226.192,37.5892857 C227.532,37.5892857 228.425333,38.5714286 228.425333,39.9107143 C228.336,41.1607143 227.442667,42.2321429 226.102667,42.2321429 Z M247.453333,36.875 C247.453333,38.75 247.453333,40.3571429 247.632,41.7857143 L244.773333,41.7857143 L244.594667,38.8392857 L244.505333,38.8392857 C243.612,40.2678571 241.736,42.1428571 238.52,42.1428571 C235.661333,42.1428571 232.266667,40.625 232.266667,34.2857143 L232.266667,23.75 L235.572,23.75 L235.572,33.75 C235.572,37.1428571 236.644,39.4642857 239.592,39.4642857 C241.825333,39.4642857 243.344,37.9464286 243.88,36.5178571 C244.058667,36.0714286 244.148,35.4464286 244.148,34.8214286 L244.148,23.75 L247.453333,23.75 L247.453333,36.875 Z M256.118667,32.0535714 C256.654667,31.4285714 257.28,30.625 257.816,30 L263.086667,23.75 L267.017333,23.75 L260.049333,31.1607143 L268,41.7857143 L263.98,41.7857143 L257.726667,33.125 L256.029333,35 L256.029333,41.7857143 L252.813333,41.7857143 L252.813333,15.3571429 L256.029333,15.3571429 L256.029333,32.0535714 L256.118667,32.0535714 L256.118667,32.0535714 Z M40.2,44.2857143 L40.2,43.3928571 L40.2893333,43.3928571 C41.3613333,43.3928571 42.2546667,42.5 42.2546667,41.4285714 L42.2546667,38.4821429 C42.2546667,37.4107143 41.3613333,36.5178571 40.2893333,36.5178571 L40.2,36.5178571 L40.2,35.7142857 L40.2893333,35.7142857 C41.3613333,35.7142857 42.2546667,34.8214286 42.2546667,33.75 L42.2546667,30.8035714 C42.2546667,29.7321429 41.3613333,28.8392857 40.2893333,28.8392857 L40.2,28.8392857 L40.2,28.0357143 L40.2893333,28.0357143 C41.3613333,28.0357143 42.2546667,27.1428571 42.2546667,26.0714286 L42.2546667,23.125 C42.2546667,22.0535714 41.3613333,21.1607143 40.2893333,21.1607143 L40.2,21.1607143 L40.2,20.2678571 C40.9146667,20.0892857 41.54,19.6428571 41.9866667,19.1071429 C42.344,18.6607143 42.5226667,18.0357143 42.5226667,17.5 C42.5226667,15.8928571 41.272,14.6428571 39.664,14.6428571 C38.5026667,14.6428571 37.4306667,15.3571429 36.984,16.4285714 C36.8946667,16.6071429 36.8053333,16.7857143 36.8053333,16.9642857 L35.376,16.9642857 L35.376,15.7142857 L36.716,13.4821429 L41.6293333,5 C41.6293333,5 40.6466667,4.46428571 39.932,4.10714286 C39.5746667,3.92857143 39.2173333,3.57142857 38.9493333,3.30357143 L38.86,3.21428571 C38.7706667,3.125 38.6813333,3.125 38.5026667,3.125 C38.1453333,3.125 37.8773333,3.39285714 37.8773333,3.75 C38.056,3.92857143 38.2346667,4.19642857 38.4133333,4.46428571 C38.7706667,4.91071429 39.0386667,5.44642857 39.128,6.16071429 C39.3066667,6.96428571 38.86,7.76785714 38.4133333,7.94642857 C37.9666667,8.125 36.984,7.67857143 36.5373333,6.78571429 C36.18,5.89285714 36.3586667,4.55357143 35.7333333,4.64285714 C35.108,4.73214286 35.644,6.33928571 35.2866667,7.5 C34.9293333,8.66071429 34.1253333,9.375 34.3933333,9.64285714 C34.6613333,9.91071429 35.108,9.375 35.5546667,9.10714286 C36.0013333,8.83928571 36.716,8.21428571 37.3413333,8.83928571 C37.8773333,9.375 37.52,10.3571429 35.8226667,11.3392857 C34.84,11.875 33.768,12.3214286 32.964,12.4107143 C32.3386667,12.5 31.8026667,12.4107143 31.4453333,12.0535714 C31.088,11.6964286 30.9093333,11.25 30.9093333,10.8928571 L30.9986667,10.8035714 C31.1773333,10.625 31.356,10.3571429 31.4453333,10 C31.5346667,9.55357143 31.4453333,9.01785714 31.2666667,8.66071429 C31.5346667,8.21428571 31.892,7.5 32.6066667,7.41071429 C33.768,7.23214286 34.304,8.39285714 34.304,8.39285714 C34.304,8.39285714 35.376,6.51785714 34.572,5.80357143 C34.036,5.26785714 32.3386667,6.16071429 31.7133333,6.51785714 C31.8026667,6.25 31.892,5.89285714 31.9813333,5.625 C32.3386667,4.28571429 32.2493333,2.85714286 31.8026667,1.69642857 C30.82,2.58928571 30.1053333,3.75 29.748,5.08928571 C29.6586667,5.26785714 29.6586667,5.53571429 29.6586667,5.71428571 C29.212,5.08928571 28.3186667,3.75 27.604,3.92857143 C26.6213333,4.19642857 26.6213333,6.25 26.6213333,6.25 C26.6213333,6.25 27.604,5.53571429 28.408,6.25 C29.0333333,6.78571429 29.0333333,7.85714286 28.944,8.21428571 C28.4973333,8.39285714 28.14,8.83928571 28.0506667,9.375 C27.9613333,9.73214286 27.9613333,10 28.0506667,10.2678571 L28.0506667,10.3571429 C27.5146667,10.8035714 26.532,11.3392857 25.46,11.3392857 C24.7453333,11.3392857 24.2093333,11.0714286 23.7626667,10.625 C23.2266667,10.0892857 22.8693333,9.28571429 22.6013333,8.39285714 L22.6013333,8.30357143 C22.3333333,7.23214286 22.244,5.625 22.244,5.625 C22.244,5.625 22.9586667,5.35714286 23.852,5.98214286 C23.852,5.98214286 23.9413333,5.98214286 23.9413333,6.07142857 C25.0133333,6.875 25.0133333,7.85714286 25.5493333,7.85714286 C25.996,7.85714286 25.9066667,6.33928571 25.996,5.26785714 C26.0853333,3.83928571 26.4426667,3.03571429 26.4426667,3.03571429 C26.532,2.94642857 26.4426667,2.67857143 26.264,2.67857143 C25.996,2.32142857 25.9066667,2.58928571 25.9066667,2.58928571 C25.9066667,2.58928571 25.9066667,3.30357143 24.5666667,3.92857143 C24.388,4.01785714 24.2986667,4.01785714 24.12,4.10714286 C23.316,4.28571429 22.6013333,4.01785714 22.6013333,4.01785714 C22.6013333,4.01785714 22.244,2.94642857 23.2266667,1.875 C23.316,1.78571429 23.4946667,1.60714286 23.6733333,1.51785714 C23.9413333,1.33928571 24.2986667,1.16071429 24.656,1.07142857 C25.0133333,0.982142857 25.3706667,0.892857143 25.6386667,0.892857143 L25.6386667,0.625 C25.6386667,0.267857143 25.3706667,0.0892857143 25.1026667,0 C24.924,0 24.7453333,0.0892857143 24.5666667,0.0892857143 C24.0306667,0.178571429 23.4946667,0.267857143 23.048,0.357142857 C22.512,0.446428571 21.976,0.446428571 21.3506667,0.446428571 C20.8146667,0.446428571 20.1893333,0.446428571 19.6533333,0.357142857 C19.1173333,0.267857143 18.5813333,0.178571429 18.1346667,0.0892857143 C18.0453333,0.0892857143 17.8666667,2.47817639e-17 17.688,2.47817639e-17 C17.42,0.0892857143 17.152,0.357142857 17.152,0.625 L17.152,0.892857143 C17.42,0.892857143 17.7773333,0.982142857 18.224,1.16071429 C18.5813333,1.25 18.8493333,1.42857143 19.2066667,1.60714286 C19.3853333,1.69642857 19.4746667,1.78571429 19.6533333,1.96428571 C20.7253333,3.03571429 20.368,4.10714286 20.368,4.10714286 C20.368,4.10714286 19.564,4.28571429 18.76,4.10714286 C18.5813333,4.10714286 18.492,4.01785714 18.3133333,3.92857143 C16.9733333,3.30357143 16.884,2.58928571 16.884,2.58928571 C16.884,2.58928571 16.7946667,2.32142857 16.5266667,2.41071429 C16.348,2.5 16.348,2.67857143 16.348,2.76785714 C16.348,2.76785714 16.7053333,3.48214286 16.7946667,5 C16.884,6.07142857 16.7946667,7.58928571 17.2413333,7.58928571 C17.7773333,7.58928571 17.7773333,6.60714286 18.8493333,5.80357143 C18.8493333,5.80357143 18.9386667,5.80357143 18.9386667,5.71428571 C19.832,5.17857143 20.636,5.35714286 20.636,5.35714286 C20.636,5.35714286 20.5466667,7.05357143 20.1893333,8.03571429 L20.1893333,8.125 C19.9213333,9.01785714 19.564,9.82142857 19.028,10.3571429 C18.5813333,10.8035714 18.0453333,11.0714286 17.3306667,11.0714286 C16.2586667,11.0714286 15.3653333,10.5357143 14.74,10.0892857 L14.74,10 C14.8293333,9.73214286 14.8293333,9.375 14.74,9.10714286 C14.6506667,8.57142857 14.2933333,8.21428571 13.8466667,7.94642857 C13.7573333,7.5 13.7573333,6.51785714 14.3826667,5.98214286 C15.276,5.26785714 16.1693333,5.98214286 16.1693333,5.98214286 C16.1693333,5.98214286 16.1693333,3.92857143 15.1866667,3.66071429 C14.5613333,3.48214286 13.5786667,4.82142857 13.132,5.44642857 C13.132,5.26785714 13.0426667,5 13.0426667,4.82142857 C12.6853333,3.48214286 11.9706667,2.32142857 10.988,1.42857143 C10.5413333,2.67857143 10.452,4.01785714 10.8093333,5.35714286 C10.8986667,5.625 10.988,5.98214286 11.0773333,6.25 C10.5413333,6.07142857 8.93333333,5.26785714 8.39733333,5.71428571 C7.59333333,6.42857143 8.66533333,8.30357143 8.66533333,8.30357143 C8.66533333,8.30357143 9.20133333,7.14285714 10.3626667,7.32142857 C11.0773333,7.41071429 11.524,8.125 11.7026667,8.57142857 C11.4346667,8.92857143 11.3453333,9.46428571 11.524,9.91071429 C11.6133333,10.2678571 11.792,10.5357143 11.9706667,10.7142857 L12.06,10.8035714 C11.9706667,11.1607143 11.792,11.6071429 11.524,11.9642857 C11.1666667,12.3214286 10.6306667,12.4107143 10.0053333,12.3214286 C9.112,12.2321429 8.12933333,11.7857143 7.14666667,11.25 C5.36,10.3571429 5.00266667,9.375 5.53866667,8.83928571 C6.164,8.30357143 6.87866667,8.83928571 7.32533333,9.10714286 C7.772,9.375 8.21866667,9.82142857 8.48666667,9.64285714 C8.75466667,9.375 7.95066667,8.66071429 7.59333333,7.5 C7.14666667,6.33928571 7.772,4.73214286 7.14666667,4.64285714 C6.52133333,4.55357143 6.7,5.89285714 6.34266667,6.78571429 C5.98533333,7.67857143 5.00266667,8.03571429 4.46666667,7.94642857 C4.02,7.76785714 3.484,7.05357143 3.66266667,5.80357143 C3.84133333,5.17857143 4.10933333,4.64285714 4.46666667,4.10714286 C4.64533333,3.83928571 4.824,3.66071429 5.00266667,3.39285714 C5.00266667,3.03571429 4.73466667,2.76785714 4.37733333,2.76785714 C4.288,2.76785714 4.10933333,2.76785714 4.02,2.85714286 C3.93066667,2.85714286 3.93066667,2.94642857 3.93066667,2.94642857 C3.57333333,3.30357143 3.30533333,3.66071429 2.85866667,3.83928571 C2.144,4.28571429 1.16133333,4.73214286 1.16133333,4.73214286 L6.07466667,13.2142857 L7.41466667,15.4464286 L7.41466667,16.6071429 L6.07466667,16.6071429 C6.07466667,16.4285714 5.98533333,16.25 5.896,16.0714286 C5.44933333,15 4.46666667,14.2857143 3.216,14.2857143 C1.608,14.2857143 0.357333333,15.5357143 0.357333333,17.1428571 C0.357333333,17.7678571 0.536,18.3035714 0.893333333,18.75 C1.34,19.375 1.96533333,19.8214286 2.68,19.9107143 L2.68,20.8035714 L2.59066667,20.8035714 C1.51866667,20.8035714 0.625333333,21.6964286 0.625333333,22.7678571 L0.625333333,25.7142857 C0.625333333,26.7857143 1.51866667,27.6785714 2.59066667,27.6785714 L2.68,27.6785714 L2.68,28.4821429 L2.59066667,28.4821429 C1.51866667,28.4821429 0.625333333,29.375 0.625333333,30.4464286 L0.625333333,33.3928571 C0.625333333,34.4642857 1.51866667,35.3571429 2.59066667,35.3571429 L2.68,35.3571429 L2.68,36.1607143 L2.59066667,36.1607143 C1.51866667,36.1607143 0.625333333,37.0535714 0.625333333,38.125 L0.625333333,41.0714286 C0.625333333,42.1428571 1.51866667,43.0357143 2.59066667,43.0357143 L2.68,43.0357143 L2.68,43.9285714 C1.34,44.1964286 0.357333333,45.3571429 0.357333333,46.7857143 C0.357333333,48.3928571 1.608,49.6428571 3.216,49.6428571 C4.824,49.6428571 6.07466667,48.3928571 6.07466667,46.7857143 C6.07466667,45.3571429 5.092,44.1964286 3.752,43.9285714 L3.752,43.0357143 L3.84133333,43.0357143 C4.91333333,43.0357143 5.80666667,42.1428571 5.80666667,41.0714286 L5.80666667,38.125 C5.80666667,37.0535714 4.91333333,36.1607143 3.84133333,36.1607143 L3.84133333,35.3571429 L3.93066667,35.3571429 C5.00266667,35.3571429 5.896,34.4642857 5.896,33.3928571 L5.896,30.4464286 C5.896,29.375 5.00266667,28.4821429 3.93066667,28.4821429 L3.84133333,28.4821429 L3.84133333,27.6785714 L3.93066667,27.6785714 C5.00266667,27.6785714 5.896,26.7857143 5.896,25.7142857 L5.896,22.7678571 C5.896,21.6964286 5.00266667,20.8035714 3.93066667,20.8035714 L3.84133333,20.8035714 L3.84133333,19.9107143 C5.00266667,19.6428571 5.896,18.75 6.07466667,17.6785714 L7.504,17.6785714 L7.504,47.4107143 L8.844,47.4107143 L10.184,44.1964286 L11.256,41.6964286 L10.184,41.6964286 L10.184,37.6785714 L13.936,37.6785714 L13.936,41.6964286 L12.864,41.6964286 L13.936,44.2857143 L15.1866667,47.2321429 L16.4373333,44.1964286 L17.5093333,41.6964286 L16.4373333,41.6964286 L16.4373333,37.6785714 L20.1893333,37.6785714 L20.1893333,41.6964286 L19.1173333,41.6964286 L20.1893333,44.2857143 L21.44,47.2321429 L22.6906667,44.1964286 L23.7626667,41.6071429 L22.6906667,41.6071429 L22.6906667,37.5892857 L26.4426667,37.5892857 L26.4426667,41.6071429 L25.3706667,41.6071429 L26.4426667,44.1964286 L27.6933333,47.1428571 L28.944,44.1071429 L30.016,41.6071429 L28.944,41.6071429 L28.944,37.5892857 L32.696,37.5892857 L32.696,41.6071429 L31.624,41.6071429 L32.696,44.1964286 L34.036,47.3214286 L35.376,47.3214286 L35.376,17.8571429 L36.8053333,17.8571429 C37.0733333,19.0178571 37.9666667,19.9107143 39.0386667,20.0892857 L39.0386667,20.9821429 L38.9493333,20.9821429 C37.8773333,20.9821429 36.984,21.875 36.984,22.9464286 L36.984,25.9821429 C36.984,27.0535714 37.8773333,27.9464286 38.9493333,27.9464286 L39.0386667,27.9464286 L39.0386667,28.75 L38.9493333,28.75 C37.8773333,28.75 36.984,29.6428571 36.984,30.7142857 L36.984,33.6607143 C36.984,34.7321429 37.8773333,35.625 38.9493333,35.625 L39.0386667,35.625 L39.0386667,36.4285714 L38.9493333,36.4285714 C37.8773333,36.4285714 36.984,37.3214286 36.984,38.3928571 L36.984,41.3392857 C36.984,42.4107143 37.8773333,43.3035714 38.9493333,43.3035714 L39.0386667,43.3035714 L39.0386667,44.1964286 C37.6986667,44.4642857 36.716,45.625 36.716,47.0535714 C36.716,48.6607143 37.9666667,49.9107143 39.5746667,49.9107143 C41.1826667,49.9107143 42.4333333,48.6607143 42.4333333,47.0535714 C42.5226667,45.7142857 41.54,44.5535714 40.2,44.2857143 Z M5.00266667,47.1428571 C5.00266667,48.125 4.19866667,48.8392857 3.30533333,48.8392857 C2.32266667,48.8392857 1.608,48.0357143 1.608,47.1428571 C1.608,46.4285714 2.05466667,45.7142857 2.76933333,45.5357143 L2.76933333,45.9821429 C2.76933333,46.25 3.03733333,46.5178571 3.30533333,46.5178571 C3.57333333,46.5178571 3.84133333,46.25 3.84133333,45.9821429 L3.84133333,45.5357143 C4.46666667,45.7142857 5.00266667,46.3392857 5.00266667,47.1428571 Z M3.93066667,37.6785714 C4.19866667,37.6785714 4.37733333,37.7678571 4.556,37.9464286 C4.73466667,38.125 4.73466667,38.3035714 4.73466667,38.4821429 L4.73466667,41.4285714 C4.73466667,41.6071429 4.64533333,41.875 4.556,41.9642857 C4.37733333,42.1428571 4.19866667,42.2321429 3.93066667,42.2321429 L3.84133333,42.2321429 L3.84133333,41.6964286 C3.84133333,41.4285714 3.66266667,41.1607143 3.30533333,41.1607143 L3.12666667,41.1607143 C2.85866667,41.1607143 2.59066667,41.4285714 2.59066667,41.6964286 L2.59066667,42.2321429 L2.50133333,42.2321429 C2.23333333,42.2321429 2.05466667,42.1428571 1.876,41.9642857 C1.876,41.7857143 1.78666667,41.6071429 1.78666667,41.4285714 L1.78666667,38.4821429 C1.78666667,38.3035714 1.876,38.125 1.96533333,37.9464286 C2.144,37.7678571 2.32266667,37.6785714 2.59066667,37.6785714 L2.68,37.6785714 L2.68,38.2142857 C2.68,38.4821429 2.948,38.75 3.216,38.75 L3.39466667,38.75 C3.66266667,38.75 3.84133333,38.4821429 3.84133333,38.2142857 L3.93066667,37.6785714 C3.84133333,37.6785714 3.84133333,37.6785714 3.93066667,37.6785714 Z M3.93066667,29.9107143 C4.19866667,29.9107143 4.37733333,30 4.556,30.1785714 C4.73466667,30.3571429 4.73466667,30.5357143 4.73466667,30.7142857 L4.73466667,33.6607143 C4.73466667,33.8392857 4.64533333,34.1071429 4.556,34.1964286 C4.37733333,34.375 4.19866667,34.4642857 3.93066667,34.4642857 L3.84133333,34.4642857 L3.84133333,33.9285714 C3.84133333,33.6607143 3.66266667,33.3928571 3.30533333,33.3928571 L3.12666667,33.3928571 C2.85866667,33.3928571 2.68,33.6607143 2.68,33.9285714 L2.68,34.4642857 L2.59066667,34.4642857 C2.32266667,34.4642857 2.144,34.375 1.96533333,34.1964286 C1.876,34.1071429 1.78666667,33.9285714 1.78666667,33.6607143 L1.78666667,30.7142857 C1.78666667,30.5357143 1.876,30.3571429 1.96533333,30.1785714 C2.144,30 2.32266667,29.9107143 2.59066667,29.9107143 L2.68,29.9107143 L2.68,30.4464286 C2.68,30.7142857 2.948,30.9821429 3.216,30.9821429 L3.39466667,30.9821429 C3.66266667,30.9821429 3.84133333,30.7142857 3.84133333,30.4464286 L3.93066667,29.9107143 C3.84133333,29.9107143 3.84133333,29.9107143 3.93066667,29.9107143 L3.93066667,29.9107143 Z M3.93066667,22.2321429 C4.19866667,22.2321429 4.37733333,22.3214286 4.556,22.5 C4.73466667,22.6785714 4.73466667,22.8571429 4.73466667,23.0357143 L4.73466667,25.9821429 C4.73466667,26.1607143 4.64533333,26.4285714 4.556,26.5178571 C4.288,26.6964286 4.10933333,26.7857143 3.93066667,26.7857143 L3.84133333,26.7857143 L3.84133333,26.25 C3.84133333,25.9821429 3.66266667,25.7142857 3.30533333,25.7142857 L3.12666667,25.7142857 C2.85866667,25.625 2.68,25.8928571 2.68,26.1607143 L2.68,26.7857143 L2.59066667,26.7857143 C2.32266667,26.7857143 2.144,26.6964286 1.96533333,26.5178571 C1.876,26.3392857 1.78666667,26.1607143 1.78666667,25.9821429 L1.78666667,23.0357143 C1.78666667,22.8571429 1.876,22.6785714 1.96533333,22.5 C2.144,22.3214286 2.32266667,22.2321429 2.59066667,22.2321429 L2.68,22.2321429 L2.68,22.7678571 C2.68,23.0357143 2.948,23.3035714 3.216,23.3035714 L3.39466667,23.3035714 C3.66266667,23.3035714 3.84133333,23.0357143 3.84133333,22.7678571 L3.93066667,22.2321429 C3.84133333,22.2321429 3.84133333,22.2321429 3.93066667,22.2321429 L3.93066667,22.2321429 Z M3.84133333,18.9285714 L3.84133333,18.4821429 C3.84133333,18.125 3.57333333,17.8571429 3.216,17.8571429 C2.948,17.8571429 2.68,18.125 2.68,18.4821429 L2.68,18.9285714 C2.32266667,18.8392857 2.05466667,18.5714286 1.876,18.3035714 C1.69733333,18.0357143 1.51866667,17.6785714 1.51866667,17.2321429 C1.51866667,16.25 2.32266667,15.5357143 3.216,15.5357143 C3.93066667,15.5357143 4.556,15.9821429 4.824,16.6071429 L4.824,16.6964286 L4.37733333,16.6964286 C4.02,16.6964286 3.84133333,16.875 3.752,17.2321429 L3.752,17.3214286 C3.752,17.6785714 4.02,17.8571429 4.37733333,17.8571429 L4.91333333,17.8571429 C4.73466667,18.3928571 4.288,18.75 3.84133333,18.9285714 L3.84133333,18.9285714 Z M13.936,35.1785714 L10.184,35.1785714 L10.184,31.25 L13.936,31.25 L13.936,35.1785714 Z M13.936,28.75 L10.184,28.75 L10.184,24.7321429 L13.936,24.7321429 L13.936,28.75 Z M13.936,22.3214286 L10.184,22.3214286 L10.184,18.3035714 L13.936,18.3035714 L13.936,22.3214286 L13.936,22.3214286 Z M20.1893333,35.1785714 L16.4373333,35.1785714 L16.4373333,31.25 L20.1893333,31.25 L20.1893333,35.1785714 Z M20.1893333,28.75 L16.4373333,28.75 L16.4373333,24.7321429 L20.1893333,24.7321429 L20.1893333,28.75 Z M20.1893333,22.3214286 L16.4373333,22.3214286 L16.4373333,18.3035714 L20.1893333,18.3035714 L20.1893333,22.3214286 L20.1893333,22.3214286 Z M26.4426667,35.1785714 L22.6906667,35.1785714 L22.6906667,31.25 L26.4426667,31.25 L26.4426667,35.1785714 Z M26.4426667,28.75 L22.6906667,28.75 L22.6906667,24.7321429 L26.4426667,24.7321429 L26.4426667,28.75 Z M26.4426667,22.3214286 L22.6906667,22.3214286 L22.6906667,18.3035714 L26.4426667,18.3035714 L26.4426667,22.3214286 L26.4426667,22.3214286 Z M32.696,35.1785714 L28.944,35.1785714 L28.944,31.25 L32.696,31.25 L32.696,35.1785714 Z M32.696,28.75 L28.944,28.75 L28.944,24.7321429 L32.696,24.7321429 L32.696,28.75 Z M32.696,22.3214286 L28.944,22.3214286 L28.944,18.3035714 L32.696,18.3035714 L32.696,22.3214286 L32.696,22.3214286 Z M28.944,15.5357143 L10.184,15.5357143 L10.184,14.5535714 C11.4346667,14.1964286 12.6853333,13.8392857 13.936,13.5714286 C16.348,13.0357143 18.8493333,12.8571429 21.44,12.8571429 C24.0306667,12.8571429 26.532,13.125 28.944,13.5714286 C30.1946667,13.8392857 31.4453333,14.1964286 32.696,14.5535714 L32.696,15.5357143 L28.944,15.5357143 Z M37.9666667,17.8571429 L38.5026667,17.8571429 C38.86,17.8571429 39.128,17.5892857 39.128,17.3214286 L39.128,17.2321429 C39.128,16.9642857 38.86,16.6964286 38.5026667,16.6964286 L37.9666667,16.6964286 L37.9666667,16.6071429 C38.2346667,15.9821429 38.86,15.5357143 39.5746667,15.5357143 C40.5573333,15.5357143 41.272,16.3392857 41.272,17.2321429 C41.272,17.5892857 41.1826667,17.9464286 40.9146667,18.3035714 C40.736,18.5714286 40.468,18.75 40.1106667,18.9285714 L40.1106667,18.4821429 C40.1106667,18.125 39.8426667,17.9464286 39.5746667,17.9464286 C39.2173333,17.9464286 39.0386667,18.2142857 39.0386667,18.4821429 L39.0386667,18.9285714 C38.592,18.75 38.1453333,18.3928571 37.9666667,17.8571429 L37.9666667,17.8571429 Z M38.9493333,26.7857143 C38.6813333,26.7857143 38.5026667,26.6964286 38.324,26.5178571 C38.1453333,26.3392857 38.1453333,26.1607143 38.1453333,25.9821429 L38.1453333,23.0357143 C38.1453333,22.8571429 38.2346667,22.5892857 38.324,22.5 C38.5026667,22.3214286 38.6813333,22.2321429 38.9493333,22.2321429 L39.0386667,22.2321429 L39.0386667,22.7678571 C39.0386667,23.0357143 39.2173333,23.3035714 39.4853333,23.3035714 L39.664,23.3035714 C39.932,23.3035714 40.1106667,23.0357143 40.2,22.7678571 L40.2,22.2321429 L40.2893333,22.2321429 C40.5573333,22.2321429 40.736,22.3214286 40.9146667,22.5 C41.004,22.6785714 41.0933333,22.8571429 41.0933333,23.0357143 L41.0933333,25.9821429 C41.0933333,26.1607143 41.004,26.3392857 40.9146667,26.5178571 C40.736,26.6964286 40.5573333,26.7857143 40.2893333,26.7857143 L40.2,26.7857143 L40.2,26.25 C40.2,25.9821429 40.0213333,25.7142857 39.664,25.7142857 L39.4853333,25.7142857 C39.2173333,25.7142857 38.9493333,25.9821429 38.9493333,26.25 L38.9493333,26.7857143 L38.9493333,26.7857143 Z M38.9493333,34.4642857 C38.6813333,34.4642857 38.5026667,34.375 38.324,34.1964286 C38.1453333,34.0178571 38.1453333,33.8392857 38.1453333,33.6607143 L38.1453333,30.7142857 C38.1453333,30.5357143 38.2346667,30.2678571 38.324,30.1785714 C38.5026667,30 38.6813333,29.9107143 38.9493333,29.9107143 L39.0386667,29.9107143 L39.0386667,30.4464286 C39.0386667,30.7142857 39.2173333,30.9821429 39.4853333,30.9821429 L39.664,30.9821429 C39.932,30.9821429 40.1106667,30.7142857 40.2,30.4464286 L40.2,29.9107143 L40.2893333,29.9107143 C40.5573333,29.9107143 40.736,30 40.9146667,30.1785714 C41.004,30.3571429 41.0933333,30.5357143 41.0933333,30.7142857 L41.0933333,33.6607143 C41.0933333,33.8392857 41.004,34.0178571 40.9146667,34.1964286 C40.736,34.375 40.5573333,34.4642857 40.2893333,34.4642857 L40.2,34.4642857 L40.2,33.9285714 C40.2,33.6607143 40.0213333,33.3928571 39.664,33.3928571 L39.4853333,33.3928571 C39.2173333,33.3928571 38.9493333,33.6607143 38.9493333,33.9285714 L38.9493333,34.4642857 L38.9493333,34.4642857 Z M38.9493333,42.2321429 C38.6813333,42.2321429 38.5026667,42.1428571 38.324,41.9642857 C38.1453333,41.7857143 38.1453333,41.6071429 38.1453333,41.4285714 L38.1453333,38.4821429 C38.1453333,38.3035714 38.2346667,38.0357143 38.324,37.9464286 C38.5026667,37.7678571 38.6813333,37.6785714 38.9493333,37.6785714 L39.0386667,37.6785714 L39.0386667,38.2142857 C39.0386667,38.4821429 39.2173333,38.75 39.4853333,38.75 L39.664,38.75 C39.932,38.75 40.1106667,38.4821429 40.2,38.2142857 L40.2,37.6785714 L40.2893333,37.6785714 C40.5573333,37.6785714 40.736,37.7678571 40.9146667,37.9464286 C41.004,38.125 41.0933333,38.3035714 41.0933333,38.4821429 L41.0933333,41.4285714 C41.0933333,41.6071429 41.004,41.7857143 40.9146667,41.9642857 C40.736,42.1428571 40.5573333,42.2321429 40.2893333,42.2321429 L40.2,42.2321429 L40.2,41.6964286 C40.2,41.4285714 40.0213333,41.1607143 39.664,41.1607143 L39.4853333,41.1607143 C39.2173333,41.1607143 38.9493333,41.4285714 38.9493333,41.6964286 L38.9493333,42.2321429 L38.9493333,42.2321429 Z M39.664,48.8392857 C38.6813333,48.8392857 37.9666667,48.0357143 37.9666667,47.1428571 C37.9666667,46.4285714 38.4133333,45.7142857 39.128,45.5357143 L39.128,45.9821429 C39.128,46.25 39.396,46.5178571 39.664,46.5178571 C39.932,46.5178571 40.2,46.25 40.2,45.9821429 L40.2,45.5357143 C40.9146667,45.8035714 41.3613333,46.4285714 41.3613333,47.1428571 C41.3613333,48.0357143 40.5573333,48.8392857 39.664,48.8392857 Z" id="Shape"></path>
        </g>
    </g>
</svg>
