<?xml version="1.0" encoding="UTF-8"?>
<svg width="118px" height="22px" viewBox="0 0 118 22" version="1.1" xmlns="http://www.w3.org/2000/svg" xmlns:xlink="http://www.w3.org/1999/xlink">
    <!-- Generator: Sketch 42 (36781) - http://www.bohemiancoding.com/sketch -->
    <title>parliament-uk--darkgrey</title>
    <g id="Page-1" stroke="none" stroke-width="1" fill="none" fill-rule="evenodd">
        <g id="parliament-uk--darkgrey" fill-rule="nonzero" fill="#333333">
            <g id="Page-1">
                <g id="parliament-uk--darkgrey">
                    <path d="M24.426,13.0428571 C24.426,12.0214286 24.3866667,11.1964286 24.3473333,10.45 L25.6453333,10.45 L25.724,11.825 L25.7633333,11.825 C26.3533333,10.8428571 27.2973333,10.2928571 28.5953333,10.2928571 C30.5226667,10.2928571 31.9386667,11.9035714 31.9386667,14.3 C31.9386667,17.1285714 30.208,18.5428571 28.32,18.5428571 C27.258,18.5428571 26.3533333,18.0714286 25.8813333,17.2857143 L25.842,17.2857143 L25.842,21.6071429 L24.426,21.6071429 L24.426,13.0428571 Z M25.842,15.1642857 C25.842,15.3607143 25.8813333,15.5571429 25.9206667,15.7535714 C26.196,16.7357143 27.0613333,17.4428571 28.084,17.4428571 C29.618,17.4428571 30.4833333,16.1857143 30.4833333,14.3785714 C30.4833333,12.8071429 29.6573333,11.4321429 28.1233333,11.4321429 C27.14,11.4321429 26.2353333,12.1392857 25.96,13.2 C25.9206667,13.3964286 25.842,13.5928571 25.842,13.7892857 L25.842,15.1642857 Z" id="Shape"></path>
                    <path d="M39.3333333,16.5 C39.3333333,17.1678571 39.3726667,17.875 39.4513333,18.3857143 L38.1533333,18.3857143 L38.0353333,17.4035714 L37.996,17.4035714 C37.5633333,18.0321429 36.698,18.5821429 35.5573333,18.5821429 C33.9446667,18.5821429 33.1186667,17.4428571 33.1186667,16.3035714 C33.1186667,14.3785714 34.81,13.3571429 37.878,13.3571429 L37.878,13.2 C37.878,12.5321429 37.6813333,11.3535714 36.0686667,11.3535714 C35.3213333,11.3535714 34.574,11.5892857 34.0233333,11.9428571 L33.7086667,11 C34.3773333,10.5678571 35.3213333,10.2928571 36.3046667,10.2928571 C38.7433333,10.2928571 39.3333333,11.9428571 39.3333333,13.5142857 L39.3333333,16.5 Z M37.9173333,14.3392857 C36.344,14.3 34.574,14.575 34.574,16.1071429 C34.574,17.05 35.2033333,17.4821429 35.9506667,17.4821429 C36.9733333,17.4821429 37.642,16.8142857 37.878,16.1464286 C37.9173333,15.9892857 37.9566667,15.8321429 37.9566667,15.675 L37.9173333,14.3392857 L37.9173333,14.3392857 Z" id="Shape"></path>
                    <path d="M41.654,12.925 C41.654,11.9821429 41.654,11.1964286 41.5753333,10.45 L42.834,10.45 L42.8733333,12.0214286 L42.952,12.0214286 C43.306,10.9607143 44.1713333,10.2928571 45.1546667,10.2928571 C45.312,10.2928571 45.43,10.2928571 45.548,10.3321429 L45.548,11.7071429 C45.3906667,11.6678571 45.2333333,11.6678571 45.0366667,11.6678571 C44.014,11.6678571 43.306,12.4535714 43.1093333,13.5142857 C43.07,13.7107143 43.0306667,13.9464286 43.0306667,14.1821429 L43.0306667,18.3857143 L41.6146667,18.3857143 L41.6146667,12.925 L41.654,12.925 Z" id="Shape"></path>
                    <polygon id="Shape" points="47.082 6.75714286 48.5373333 6.75714286 48.5373333 18.3857143 47.082 18.3857143"></polygon>
                    <path d="M52.5493333,8.25 C52.5493333,8.76071429 52.1953333,9.11428571 51.6446667,9.11428571 C51.1333333,9.11428571 50.7793333,8.72142857 50.7793333,8.25 C50.7793333,7.73928571 51.1726667,7.34642857 51.684,7.34642857 C52.1953333,7.34642857 52.5493333,7.73928571 52.5493333,8.25 Z M50.9366667,18.3857143 L50.9366667,10.45 L52.392,10.45 L52.392,18.3857143 L50.9366667,18.3857143 Z" id="Shape"></path>
                    <path d="M60.3373333,16.5 C60.3373333,17.1678571 60.3766667,17.875 60.4553333,18.3857143 L59.1573333,18.3857143 L59.0393333,17.4035714 L59,17.4035714 C58.5673333,18.0321429 57.702,18.5821429 56.5613333,18.5821429 C54.9486667,18.5821429 54.1226667,17.4428571 54.1226667,16.3035714 C54.1226667,14.3785714 55.814,13.3571429 58.882,13.3571429 L58.882,13.2 C58.882,12.5321429 58.6853333,11.3535714 57.0726667,11.3535714 C56.3253333,11.3535714 55.578,11.5892857 55.0273333,11.9428571 L54.7126667,11 C55.3813333,10.5678571 56.3253333,10.2928571 57.3086667,10.2928571 C59.7473333,10.2928571 60.3373333,11.9428571 60.3373333,13.5142857 L60.3373333,16.5 L60.3373333,16.5 Z M58.9606667,14.3392857 C57.3873333,14.3 55.6173333,14.575 55.6173333,16.1071429 C55.6173333,17.05 56.2466667,17.4821429 56.994,17.4821429 C58.0166667,17.4821429 58.6853333,16.8142857 58.9213333,16.1464286 C58.9606667,15.9892857 59,15.8321429 59,15.675 L58.9606667,14.3392857 L58.9606667,14.3392857 Z" id="Shape"></path>
                    <path d="M62.658,12.6107143 C62.658,11.7857143 62.658,11.1178571 62.5793333,10.45 L63.838,10.45 L63.9166667,11.7071429 L63.956,11.7071429 C64.3886667,10.9607143 65.136,10.2535714 66.434,10.2535714 C67.496,10.2535714 68.322,10.9214286 68.676,11.825 L68.7153333,11.825 C68.9513333,11.3928571 69.266,11.0392857 69.5806667,10.8035714 C70.0526667,10.45 70.564,10.2535714 71.3506667,10.2535714 C72.4126667,10.2535714 73.9466667,10.9214286 73.9466667,13.6714286 L73.9466667,18.3464286 L72.5306667,18.3464286 L72.5306667,13.9071429 C72.5306667,12.375 71.98,11.4714286 70.8,11.4714286 C69.974,11.4714286 69.3446667,12.0607143 69.1086667,12.7678571 C69.03,12.9642857 68.9906667,13.2392857 68.9906667,13.475 L68.9906667,18.3857143 L67.5746667,18.3857143 L67.5746667,13.6321429 C67.5746667,12.375 67.024,11.4714286 65.9226667,11.4714286 C65.018,11.4714286 64.3493333,12.1785714 64.1526667,12.925 C64.074,13.1214286 64.0346667,13.3964286 64.0346667,13.6321429 L64.0346667,18.425 L62.6186667,18.425 L62.6186667,12.6107143 L62.658,12.6107143 Z" id="Shape"></path>
                    <path d="M77.1326667,14.6928571 C77.172,16.6571429 78.3913333,17.4428571 79.8466667,17.4428571 C80.8693333,17.4428571 81.4986667,17.2464286 82.0493333,17.05 L82.2853333,18.0714286 C81.774,18.3071429 80.9086667,18.5821429 79.65,18.5821429 C77.2113333,18.5821429 75.756,16.9714286 75.756,14.575 C75.756,12.1785714 77.172,10.2928571 79.4926667,10.2928571 C82.0886667,10.2928571 82.7573333,12.5714286 82.7573333,14.025 C82.7573333,14.3392857 82.718,14.5357143 82.718,14.6928571 L77.1326667,14.6928571 Z M81.3413333,13.6714286 C81.3413333,12.7678571 80.948,11.3142857 79.3353333,11.3142857 C77.88,11.3142857 77.2506667,12.65 77.1326667,13.6714286 L81.3413333,13.6714286 Z" id="Shape"></path>
                    <path d="M84.5273333,12.6107143 C84.5273333,11.7857143 84.5273333,11.1178571 84.4486667,10.45 L85.7073333,10.45 L85.786,11.7464286 L85.8253333,11.7464286 C86.2186667,11 87.1233333,10.2535714 88.4606667,10.2535714 C89.562,10.2535714 91.2533333,10.9214286 91.2533333,13.6321429 L91.2533333,18.3464286 L89.798,18.3464286 L89.798,13.8285714 C89.798,12.5714286 89.326,11.4714286 87.9493333,11.4714286 C87.0053333,11.4714286 86.258,12.1392857 86.022,12.925 C85.9433333,13.1214286 85.9433333,13.3571429 85.9433333,13.5928571 L85.9433333,18.3464286 L84.488,18.3464286 L84.5273333,12.6107143 L84.5273333,12.6107143 Z" id="Shape"></path>
                    <path d="M95.3046667,8.56428571 L95.3046667,10.45 L97.35,10.45 L97.35,11.55 L95.3046667,11.55 L95.3046667,15.8321429 C95.3046667,16.8142857 95.58,17.3642857 96.3666667,17.3642857 C96.76,17.3642857 96.996,17.325 97.1926667,17.2464286 L97.2713333,18.3071429 C96.996,18.425 96.5633333,18.5035714 96.0126667,18.5035714 C95.344,18.5035714 94.7933333,18.2678571 94.4393333,17.875 C94.046,17.4428571 93.8886667,16.7357143 93.8886667,15.8321429 L93.8886667,11.5107143 L92.6693333,11.5107143 L92.6693333,10.4107143 L93.8886667,10.4107143 L93.8886667,8.95714286 L95.3046667,8.56428571 Z" id="Shape"></path>
                    <path d="M99.5526667,18.5821429 C99.002,18.5821429 98.6086667,18.15 98.6086667,17.5607143 C98.6086667,16.9714286 99.002,16.5392857 99.592,16.5392857 C100.182,16.5392857 100.575333,16.9714286 100.575333,17.5607143 C100.536,18.1107143 100.142667,18.5821429 99.5526667,18.5821429 L99.5526667,18.5821429 Z" id="Shape"></path>
                    <path d="M108.953333,16.225 C108.953333,17.05 108.953333,17.7571429 109.032,18.3857143 L107.773333,18.3857143 L107.694667,17.0892857 L107.655333,17.0892857 C107.262,17.7178571 106.436,18.5428571 105.02,18.5428571 C103.761333,18.5428571 102.266667,17.875 102.266667,15.0857143 L102.266667,10.45 L103.722,10.45 L103.722,14.85 C103.722,16.3428571 104.194,17.3642857 105.492,17.3642857 C106.475333,17.3642857 107.144,16.6964286 107.38,16.0678571 C107.458667,15.8714286 107.498,15.5964286 107.498,15.3214286 L107.498,10.45 L108.953333,10.45 L108.953333,16.225 L108.953333,16.225 Z" id="Shape"></path>
                    <path d="M112.768667,14.1035714 L112.768667,14.1035714 C113.004667,13.8285714 113.28,13.475 113.516,13.2 L115.836667,10.45 L117.567333,10.45 L114.499333,13.7107143 L118,18.3857143 L116.23,18.3857143 L113.476667,14.575 L112.729333,15.4 L112.729333,18.3857143 L111.313333,18.3857143 L111.313333,6.75714286 L112.729333,6.75714286 L112.729333,14.1035714 L112.768667,14.1035714 Z" id="Shape"></path>
                    <path d="M17.7,19.4857143 L17.7,19.0928571 L17.7393333,19.0928571 C18.2113333,19.0928571 18.6046667,18.7 18.6046667,18.2285714 L18.6046667,16.9321429 C18.6046667,16.4607143 18.2113333,16.0678571 17.7393333,16.0678571 L17.7,16.0678571 L17.7,16.0678571 L17.7,15.7142857 L17.7393333,15.7142857 C18.2113333,15.7142857 18.6046667,15.3214286 18.6046667,14.85 L18.6046667,13.5535714 C18.6046667,13.0821429 18.2113333,12.6892857 17.7393333,12.6892857 L17.7,12.6892857 L17.7,12.6892857 L17.7,12.3357143 L17.7393333,12.3357143 C18.2113333,12.3357143 18.6046667,11.9428571 18.6046667,11.4714286 L18.6046667,10.175 C18.6046667,9.70357143 18.2113333,9.31071429 17.7393333,9.31071429 L17.7,9.31071429 L17.7,8.91785714 C18.0146667,8.83928571 18.29,8.64285714 18.4866667,8.40714286 C18.644,8.21071429 18.7226667,7.93571429 18.7226667,7.7 C18.7226667,6.99285714 18.172,6.44285714 17.464,6.44285714 C16.9526667,6.44285714 16.4806667,6.75714286 16.284,7.22857143 C16.2446667,7.30714286 16.2053333,7.38571429 16.2053333,7.46428571 L15.576,7.46428571 L15.576,6.91428571 L15.576,6.91428571 L15.576,6.91428571 L16.166,5.93214286 L18.3293333,2.2 C18.3293333,2.2 17.8966667,1.96428571 17.582,1.80714286 C17.4246667,1.72857143 17.2673333,1.57142857 17.1493333,1.45357143 L17.11,1.41428571 C17.0706667,1.375 17.0313333,1.375 16.9526667,1.375 C16.7953333,1.375 16.6773333,1.49285714 16.6773333,1.65 C16.756,1.72857143 16.8346667,1.84642857 16.9133333,1.96428571 C17.0706667,2.16071429 17.1886667,2.39642857 17.228,2.71071429 C17.3066667,3.06428571 17.11,3.41785714 16.9133333,3.49642857 C16.7166667,3.575 16.284,3.37857143 16.0873333,2.98571429 C15.93,2.59285714 16.0086667,2.00357143 15.7333333,2.04285714 C15.458,2.08214286 15.694,2.78928571 15.5366667,3.3 C15.3793333,3.81071429 15.0253333,4.125 15.1433333,4.24285714 C15.2613333,4.36071429 15.458,4.125 15.6546667,4.00714286 C15.8513333,3.88928571 16.166,3.61428571 16.4413333,3.88928571 C16.6773333,4.125 16.52,4.55714286 15.7726667,4.98928571 C15.34,5.225 14.868,5.42142857 14.514,5.46071429 C14.2386667,5.5 14.0026667,5.46071429 13.8453333,5.30357143 C13.688,5.14642857 13.6093333,4.95 13.6093333,4.79285714 L13.6486667,4.75357143 C13.7273333,4.675 13.806,4.55714286 13.8453333,4.4 C13.8846667,4.20357143 13.8453333,3.96785714 13.7666667,3.81071429 C13.8846667,3.61428571 14.042,3.3 14.3566667,3.26071429 C14.868,3.18214286 15.104,3.69285714 15.104,3.69285714 C15.104,3.69285714 15.576,2.86785714 15.222,2.55357143 C14.986,2.31785714 14.2386667,2.71071429 13.9633333,2.86785714 C14.0026667,2.75 14.042,2.59285714 14.0813333,2.475 C14.2386667,1.88571429 14.1993333,1.25714286 14.0026667,0.746428571 C13.57,1.13928571 13.2553333,1.65 13.098,2.23928571 C13.0586667,2.31785714 13.0586667,2.43571429 13.0586667,2.51428571 C12.862,2.23928571 12.4686667,1.65 12.154,1.72857143 C11.7213333,1.84642857 11.7213333,2.75 11.7213333,2.75 C11.7213333,2.75 12.154,2.43571429 12.508,2.75 C12.7833333,2.98571429 12.7833333,3.45714286 12.744,3.61428571 C12.5473333,3.69285714 12.39,3.88928571 12.3506667,4.125 C12.3113333,4.28214286 12.3113333,4.4 12.3506667,4.51785714 C12.3506667,4.51785714 12.3506667,4.51785714 12.3506667,4.55714286 C12.1146667,4.75357143 11.682,4.98928571 11.21,4.98928571 C10.8953333,4.98928571 10.6593333,4.87142857 10.4626667,4.675 C10.2266667,4.43928571 10.0693333,4.08571429 9.95133333,3.69285714 L9.95133333,3.65357143 C9.83333333,3.18214286 9.794,2.475 9.794,2.475 C9.794,2.475 10.1086667,2.35714286 10.502,2.63214286 C10.502,2.63214286 10.5413333,2.63214286 10.5413333,2.67142857 C11.0133333,3.025 11.0133333,3.45714286 11.2493333,3.45714286 C11.446,3.45714286 11.4066667,2.78928571 11.446,2.31785714 C11.4853333,1.68928571 11.6426667,1.33571429 11.6426667,1.33571429 C11.682,1.29642857 11.6426667,1.17857143 11.564,1.17857143 C11.446,1.02142857 11.4066667,1.13928571 11.4066667,1.13928571 C11.4066667,1.13928571 11.4066667,1.45357143 10.8166667,1.72857143 C10.738,1.76785714 10.6986667,1.76785714 10.62,1.80714286 C10.266,1.88571429 9.95133333,1.76785714 9.95133333,1.76785714 C9.95133333,1.76785714 9.794,1.29642857 10.2266667,0.825 C10.266,0.785714286 10.3446667,0.707142857 10.4233333,0.667857143 C10.5413333,0.589285714 10.6986667,0.510714286 10.856,0.471428571 C11.0133333,0.432142857 11.1706667,0.392857143 11.2886667,0.392857143 L11.2886667,0.275 C11.2886667,0.117857143 11.1706667,0.0392857143 11.0526667,0 C10.974,0 10.8953333,0.0392857143 10.8166667,0.0392857143 C10.5806667,0.0785714286 10.3446667,0.117857143 10.148,0.157142857 C9.912,0.196428571 9.676,0.196428571 9.40066667,0.196428571 C9.16466667,0.196428571 8.88933333,0.196428571 8.65333333,0.157142857 C8.41733333,0.117857143 8.18133333,0.0785714286 7.98466667,0.0392857143 C7.94533333,0.0392857143 7.86666667,0 7.788,0 C7.67,0.0392857143 7.552,0.157142857 7.552,0.275 L7.552,0.392857143 C7.67,0.392857143 7.82733333,0.432142857 8.024,0.510714286 C8.18133333,0.55 8.29933333,0.628571429 8.45666667,0.707142857 C8.53533333,0.746428571 8.57466667,0.785714286 8.65333333,0.864285714 C9.12533333,1.33571429 8.968,1.80714286 8.968,1.80714286 C8.968,1.80714286 8.614,1.88571429 8.26,1.80714286 C8.18133333,1.80714286 8.142,1.76785714 8.06333333,1.72857143 C7.47333333,1.45357143 7.434,1.13928571 7.434,1.13928571 C7.434,1.13928571 7.39466667,1.02142857 7.27666667,1.06071429 C7.198,1.1 7.198,1.17857143 7.198,1.21785714 C7.198,1.21785714 7.35533333,1.53214286 7.39466667,2.2 C7.434,2.67142857 7.39466667,3.33928571 7.59133333,3.33928571 C7.82733333,3.33928571 7.82733333,2.90714286 8.29933333,2.55357143 C8.29933333,2.55357143 8.33866667,2.55357143 8.33866667,2.51428571 C8.732,2.27857143 9.086,2.35714286 9.086,2.35714286 C9.086,2.35714286 9.04666667,3.10357143 8.88933333,3.53571429 L8.88933333,3.575 C8.77133333,3.96785714 8.614,4.32142857 8.378,4.55714286 C8.18133333,4.75357143 7.94533333,4.87142857 7.63066667,4.87142857 C7.15866667,4.87142857 6.76533333,4.63571429 6.49,4.43928571 C6.49,4.43928571 6.49,4.43928571 6.49,4.4 C6.52933333,4.28214286 6.52933333,4.125 6.49,4.00714286 C6.45066667,3.77142857 6.29333333,3.61428571 6.09666667,3.49642857 C6.05733333,3.3 6.05733333,2.86785714 6.33266667,2.63214286 C6.726,2.31785714 7.11933333,2.63214286 7.11933333,2.63214286 C7.11933333,2.63214286 7.11933333,1.72857143 6.68666667,1.61071429 C6.41133333,1.53214286 5.97866667,2.12142857 5.782,2.39642857 C5.782,2.31785714 5.74266667,2.2 5.74266667,2.12142857 C5.58533333,1.53214286 5.27066667,1.02142857 4.838,0.628571429 C4.64133333,1.17857143 4.602,1.76785714 4.75933333,2.35714286 C4.79866667,2.475 4.838,2.63214286 4.87733333,2.75 C4.64133333,2.67142857 3.93333333,2.31785714 3.69733333,2.51428571 C3.34333333,2.82857143 3.81533333,3.65357143 3.81533333,3.65357143 C3.81533333,3.65357143 4.05133333,3.14285714 4.56266667,3.22142857 C4.87733333,3.26071429 5.074,3.575 5.15266667,3.77142857 C5.03466667,3.92857143 4.99533333,4.16428571 5.074,4.36071429 C5.11333333,4.51785714 5.192,4.63571429 5.27066667,4.71428571 L5.31,4.75357143 C5.27066667,4.91071429 5.192,5.10714286 5.074,5.26428571 C4.91666667,5.42142857 4.68066667,5.46071429 4.40533333,5.42142857 C4.012,5.38214286 3.57933333,5.18571429 3.14666667,4.95 C2.36,4.55714286 2.20266667,4.125 2.43866667,3.88928571 C2.714,3.65357143 3.02866667,3.88928571 3.22533333,4.00714286 C3.422,4.125 3.61866667,4.32142857 3.73666667,4.24285714 C3.85466667,4.125 3.50066667,3.81071429 3.34333333,3.3 C3.14666667,2.78928571 3.422,2.08214286 3.14666667,2.04285714 C2.87133333,2.00357143 2.95,2.59285714 2.79266667,2.98571429 C2.63533333,3.37857143 2.20266667,3.53571429 1.96666667,3.49642857 C1.77,3.41785714 1.534,3.10357143 1.61266667,2.55357143 C1.69133333,2.27857143 1.80933333,2.04285714 1.96666667,1.80714286 C2.04533333,1.68928571 2.124,1.61071429 2.20266667,1.49285714 C2.20266667,1.33571429 2.08466667,1.21785714 1.92733333,1.21785714 C1.888,1.21785714 1.80933333,1.21785714 1.77,1.25714286 C1.73066667,1.25714286 1.73066667,1.29642857 1.73066667,1.29642857 C1.57333333,1.45357143 1.45533333,1.61071429 1.25866667,1.68928571 C0.944,1.88571429 0.511333333,2.08214286 0.511333333,2.08214286 L2.67466667,5.81428571 L3.26466667,6.79642857 L3.26466667,6.79642857 L3.26466667,6.79642857 L3.26466667,7.30714286 L2.67466667,7.30714286 C2.67466667,7.22857143 2.63533333,7.15 2.596,7.07142857 C2.39933333,6.6 1.96666667,6.28571429 1.416,6.28571429 C0.708,6.28571429 0.157333333,6.83571429 0.157333333,7.54285714 C0.157333333,7.81785714 0.236,8.05357143 0.393333333,8.25 C0.59,8.525 0.865333333,8.72142857 1.18,8.76071429 L1.18,9.15357143 L1.14066667,9.15357143 C0.668666667,9.15357143 0.275333333,9.54642857 0.275333333,10.0178571 L0.275333333,11.3142857 C0.275333333,11.7857143 0.668666667,12.1785714 1.14066667,12.1785714 L1.18,12.1785714 L1.18,12.5321429 L1.18,12.5321429 L1.14066667,12.5321429 C0.668666667,12.5321429 0.275333333,12.925 0.275333333,13.3964286 L0.275333333,14.6928571 C0.275333333,15.1642857 0.668666667,15.5571429 1.14066667,15.5571429 L1.18,15.5571429 L1.18,15.9107143 L1.18,15.9107143 L1.14066667,15.9107143 C0.668666667,15.9107143 0.275333333,16.3035714 0.275333333,16.775 L0.275333333,18.0714286 C0.275333333,18.5428571 0.668666667,18.9357143 1.14066667,18.9357143 L1.18,18.9357143 L1.18,19.3285714 C0.59,19.4464286 0.157333333,19.9571429 0.157333333,20.5857143 C0.157333333,21.2928571 0.708,21.8428571 1.416,21.8428571 C2.124,21.8428571 2.67466667,21.2928571 2.67466667,20.5857143 C2.67466667,19.9571429 2.242,19.4464286 1.652,19.3285714 L1.652,18.9357143 L1.69133333,18.9357143 C2.16333333,18.9357143 2.55666667,18.5428571 2.55666667,18.0714286 L2.55666667,18.0321429 L2.55666667,16.8142857 L2.55666667,16.775 C2.55666667,16.3035714 2.16333333,15.9107143 1.69133333,15.9107143 L1.69133333,15.9107143 L1.69133333,15.9107143 L1.69133333,15.9107143 L1.69133333,15.9107143 L1.69133333,15.5571429 L1.73066667,15.5571429 C2.20266667,15.5571429 2.596,15.1642857 2.596,14.6928571 L2.596,14.6535714 L2.596,13.4357143 L2.596,13.3964286 C2.596,12.925 2.20266667,12.5321429 1.73066667,12.5321429 L1.73066667,12.5321429 L1.73066667,12.5321429 L1.69133333,12.5321429 L1.69133333,12.5321429 L1.69133333,12.1785714 L1.73066667,12.1785714 C2.20266667,12.1785714 2.596,11.7857143 2.596,11.3142857 L2.596,11.275 L2.596,10.0571429 L2.596,10.0178571 C2.596,9.54642857 2.20266667,9.15357143 1.73066667,9.15357143 L1.73066667,9.15357143 L1.73066667,9.15357143 L1.69133333,9.15357143 L1.69133333,8.76071429 C2.20266667,8.64285714 2.596,8.25 2.67466667,7.77857143 L3.304,7.77857143 L3.304,7.975 L3.304,9.82142857 L3.304,10.8821429 L3.304,12.65 L3.304,13.75 L3.304,15.5178571 L3.304,16.5785714 L3.304,18.3464286 L3.304,20.8607143 L3.894,20.8607143 L4.484,19.4464286 L4.956,18.3464286 L4.484,18.3464286 L4.484,16.5785714 L6.136,16.5785714 L6.136,18.3464286 L5.664,18.3464286 L6.136,19.4857143 L6.68666667,20.7821429 L7.23733333,19.4464286 L7.70933333,18.3464286 L7.23733333,18.3464286 L7.23733333,16.5785714 L8.88933333,16.5785714 L8.88933333,18.3464286 L8.41733333,18.3464286 L8.88933333,19.4857143 L9.44,20.7821429 L9.99066667,19.4464286 L10.4626667,18.3071429 L9.99066667,18.3071429 L9.99066667,16.5392857 L11.6426667,16.5392857 L11.6426667,18.3071429 L11.1706667,18.3071429 L11.6426667,19.4464286 L12.1933333,20.7428571 L12.744,19.4071429 L13.216,18.3071429 L12.744,18.3071429 L12.744,16.5392857 L14.396,16.5392857 L14.396,18.3071429 L13.924,18.3071429 L14.396,19.4464286 L14.986,20.8214286 L15.576,20.8214286 L15.576,18.3071429 L15.576,16.5392857 L15.576,15.4785714 L15.576,13.75 L15.576,12.6892857 L15.576,10.9214286 L15.576,9.82142857 L15.576,8.05357143 L15.576,7.85714286 L16.2053333,7.85714286 C16.3233333,8.36785714 16.7166667,8.76071429 17.1886667,8.83928571 L17.1886667,9.23214286 L17.1493333,9.23214286 L17.1493333,9.23214286 L17.1493333,9.23214286 C16.6773333,9.23214286 16.284,9.625 16.284,10.0964286 L16.284,10.1357143 L16.284,11.3928571 L16.284,11.4321429 C16.284,11.9035714 16.6773333,12.2964286 17.1493333,12.2964286 L17.1886667,12.2964286 L17.1886667,12.65 L17.1886667,12.65 L17.1493333,12.65 L17.1493333,12.65 L17.1493333,12.65 C16.6773333,12.65 16.284,13.0428571 16.284,13.5142857 L16.284,13.5535714 L16.284,14.7714286 L16.284,14.8107143 C16.284,15.2821429 16.6773333,15.675 17.1493333,15.675 L17.1886667,15.675 L17.1886667,16.0285714 L17.1886667,16.0285714 L17.1493333,16.0285714 L17.1493333,16.0285714 L17.1493333,16.0285714 C16.6773333,16.0285714 16.284,16.4214286 16.284,16.8928571 L16.284,16.9321429 L16.284,18.15 L16.284,18.1892857 C16.284,18.6607143 16.6773333,19.0535714 17.1493333,19.0535714 L17.1886667,19.0535714 L17.1886667,19.4464286 C16.5986667,19.5642857 16.166,20.075 16.166,20.7035714 C16.166,21.4107143 16.7166667,21.9607143 17.4246667,21.9607143 C18.1326667,21.9607143 18.6833333,21.4107143 18.6833333,20.7035714 C18.7226667,20.1142857 18.29,19.6035714 17.7,19.4857143 Z M2.20266667,20.7428571 C2.20266667,21.175 1.84866667,21.4892857 1.45533333,21.4892857 C1.02266667,21.4892857 0.708,21.1357143 0.708,20.7428571 C0.708,20.4285714 0.904666667,20.1142857 1.21933333,20.0357143 L1.21933333,20.2321429 L1.21933333,20.2321429 L1.21933333,20.2321429 C1.21933333,20.35 1.33733333,20.4678571 1.45533333,20.4678571 C1.57333333,20.4678571 1.69133333,20.35 1.69133333,20.2321429 L1.69133333,20.2321429 L1.69133333,20.2321429 L1.69133333,20.0357143 C1.96666667,20.1142857 2.20266667,20.3892857 2.20266667,20.7428571 Z M1.73066667,16.5785714 C1.84866667,16.5785714 1.92733333,16.6178571 2.006,16.6964286 C2.08466667,16.775 2.08466667,16.8535714 2.08466667,16.9321429 L2.08466667,16.9321429 L2.08466667,17.4428571 L2.08466667,17.7178571 L2.08466667,18.2285714 L2.08466667,18.2285714 C2.08466667,18.3071429 2.04533333,18.425 2.006,18.4642857 C1.92733333,18.5428571 1.84866667,18.5821429 1.73066667,18.5821429 L1.69133333,18.5821429 L1.69133333,18.5821429 L1.69133333,18.3464286 L1.69133333,18.3464286 C1.69133333,18.2285714 1.61266667,18.1107143 1.45533333,18.1107143 L1.416,18.1107143 L1.37666667,18.1107143 C1.25866667,18.1107143 1.14066667,18.2285714 1.14066667,18.3464286 L1.14066667,18.3464286 L1.14066667,18.5821429 L1.14066667,18.5821429 C1.14066667,18.5821429 1.14066667,18.5821429 1.10133333,18.5821429 C0.983333333,18.5821429 0.904666667,18.5428571 0.826,18.4642857 C0.826,18.3857143 0.786666667,18.3071429 0.786666667,18.2285714 L0.786666667,17.7178571 L0.786666667,17.4428571 L0.786666667,16.9321429 C0.786666667,16.8535714 0.826,16.775 0.865333333,16.6964286 C0.944,16.6178571 1.02266667,16.5785714 1.14066667,16.5785714 L1.18,16.5785714 L1.18,16.8142857 L1.18,16.8142857 C1.18,16.9321429 1.298,17.05 1.416,17.05 L1.45533333,17.05 L1.49466667,17.05 C1.61266667,17.05 1.69133333,16.9321429 1.69133333,16.8142857 L1.69133333,16.8142857 L1.73066667,16.5785714 C1.69133333,16.5785714 1.69133333,16.5785714 1.73066667,16.5785714 Z M1.73066667,13.1607143 C1.84866667,13.1607143 1.92733333,13.2 2.006,13.2785714 C2.08466667,13.3571429 2.08466667,13.4357143 2.08466667,13.5142857 L2.08466667,13.5142857 L2.08466667,14.025 L2.08466667,14.3 L2.08466667,14.8107143 L2.08466667,14.8107143 C2.08466667,14.8892857 2.04533333,15.0071429 2.006,15.0464286 C1.92733333,15.125 1.84866667,15.1642857 1.73066667,15.1642857 L1.69133333,15.1642857 L1.69133333,15.1642857 L1.69133333,14.9285714 L1.69133333,14.9285714 C1.69133333,14.8107143 1.61266667,14.6928571 1.45533333,14.6928571 L1.416,14.6928571 L1.37666667,14.6928571 C1.25866667,14.6928571 1.18,14.8107143 1.18,14.9285714 L1.18,14.9285714 L1.18,15.1642857 L1.18,15.1642857 C1.18,15.1642857 1.18,15.1642857 1.14066667,15.1642857 C1.02266667,15.1642857 0.944,15.125 0.865333333,15.0464286 C0.826,15.0071429 0.786666667,14.9285714 0.786666667,14.8107143 L0.786666667,14.3 L0.786666667,14.025 L0.786666667,13.5142857 C0.786666667,13.4357143 0.826,13.3571429 0.865333333,13.2785714 C0.944,13.2 1.02266667,13.1607143 1.14066667,13.1607143 L1.18,13.1607143 L1.18,13.3964286 L1.18,13.3964286 C1.18,13.5142857 1.298,13.6321429 1.416,13.6321429 L1.45533333,13.6321429 L1.49466667,13.6321429 C1.61266667,13.6321429 1.69133333,13.5142857 1.69133333,13.3964286 L1.69133333,13.3964286 L1.73066667,13.1607143 C1.69133333,13.1607143 1.69133333,13.1607143 1.73066667,13.1607143 Z M1.73066667,9.78214286 C1.84866667,9.78214286 1.92733333,9.82142857 2.006,9.9 C2.08466667,9.97857143 2.08466667,10.0571429 2.08466667,10.1357143 L2.08466667,10.1357143 L2.08466667,10.6464286 L2.08466667,10.9214286 L2.08466667,11.4321429 L2.08466667,11.4321429 C2.08466667,11.5107143 2.04533333,11.6285714 2.006,11.6678571 C1.888,11.7464286 1.80933333,11.7857143 1.73066667,11.7857143 L1.69133333,11.7857143 L1.69133333,11.55 L1.69133333,11.55 C1.69133333,11.4321429 1.61266667,11.3142857 1.45533333,11.3142857 L1.416,11.3142857 L1.37666667,11.3142857 C1.25866667,11.275 1.18,11.3928571 1.18,11.5107143 L1.18,11.5107143 L1.18,11.7857143 C1.18,11.7857143 1.18,11.7857143 1.14066667,11.7857143 C1.02266667,11.7857143 0.944,11.7464286 0.865333333,11.6678571 C0.826,11.5892857 0.786666667,11.5107143 0.786666667,11.4321429 L0.786666667,10.9214286 L0.786666667,10.6464286 L0.786666667,10.1357143 C0.786666667,10.0571429 0.826,9.97857143 0.865333333,9.9 C0.944,9.82142857 1.02266667,9.78214286 1.14066667,9.78214286 L1.18,9.78214286 L1.18,10.0178571 L1.18,10.0178571 L1.18,10.0178571 C1.18,10.1357143 1.298,10.2535714 1.416,10.2535714 L1.45533333,10.2535714 L1.49466667,10.2535714 C1.61266667,10.2535714 1.69133333,10.1357143 1.69133333,10.0178571 L1.69133333,10.0178571 L1.69133333,10.0178571 L1.73066667,9.78214286 C1.69133333,9.78214286 1.69133333,9.78214286 1.73066667,9.78214286 Z M1.69133333,8.32857143 L1.69133333,8.13214286 L1.69133333,8.13214286 C1.69133333,7.975 1.57333333,7.85714286 1.416,7.85714286 C1.298,7.85714286 1.18,7.975 1.18,8.13214286 L1.18,8.13214286 L1.18,8.32857143 C1.02266667,8.28928571 0.904666667,8.17142857 0.826,8.05357143 C0.747333333,7.93571429 0.668666667,7.77857143 0.668666667,7.58214286 C0.668666667,7.15 1.02266667,6.83571429 1.416,6.83571429 C1.73066667,6.83571429 2.006,7.03214286 2.124,7.30714286 C2.124,7.30714286 2.124,7.30714286 2.124,7.34642857 L2.08466667,7.34642857 L1.92733333,7.34642857 L1.92733333,7.34642857 C1.77,7.34642857 1.69133333,7.425 1.652,7.58214286 C1.652,7.58214286 1.652,7.58214286 1.652,7.62142857 C1.652,7.77857143 1.77,7.85714286 1.92733333,7.85714286 L1.92733333,7.85714286 L2.16333333,7.85714286 C2.08466667,8.09285714 1.888,8.25 1.69133333,8.32857143 Z M6.136,15.4785714 L4.484,15.4785714 L4.484,13.75 L6.136,13.75 L6.136,15.4785714 Z M6.136,12.65 L4.484,12.65 L4.484,10.8821429 L6.136,10.8821429 L6.136,12.65 Z M6.136,9.82142857 L4.484,9.82142857 L4.484,8.05357143 L6.136,8.05357143 L6.136,9.82142857 Z M8.88933333,15.4785714 L7.23733333,15.4785714 L7.23733333,13.75 L8.88933333,13.75 L8.88933333,15.4785714 Z M8.88933333,12.65 L7.23733333,12.65 L7.23733333,10.8821429 L8.88933333,10.8821429 L8.88933333,12.65 Z M8.88933333,9.82142857 L7.23733333,9.82142857 L7.23733333,8.05357143 L8.88933333,8.05357143 L8.88933333,9.82142857 Z M11.6426667,15.4785714 L9.99066667,15.4785714 L9.99066667,13.75 L11.6426667,13.75 L11.6426667,15.4785714 Z M11.6426667,12.65 L9.99066667,12.65 L9.99066667,10.8821429 L11.6426667,10.8821429 L11.6426667,12.65 Z M11.6426667,9.82142857 L9.99066667,9.82142857 L9.99066667,8.05357143 L11.6426667,8.05357143 L11.6426667,9.82142857 Z M14.396,15.4785714 L12.744,15.4785714 L12.744,13.75 L14.396,13.75 L14.396,15.4785714 Z M14.396,12.65 L12.744,12.65 L12.744,10.8821429 L14.396,10.8821429 L14.396,12.65 Z M14.396,9.82142857 L12.744,9.82142857 L12.744,8.05357143 L14.396,8.05357143 L14.396,9.82142857 Z M12.744,6.83571429 L11.6426667,6.83571429 L9.99066667,6.83571429 L8.88933333,6.83571429 L7.23733333,6.83571429 L6.136,6.83571429 L4.484,6.83571429 L4.484,6.40357143 C5.03466667,6.24642857 5.58533333,6.08928571 6.136,5.97142857 C7.198,5.73571429 8.29933333,5.65714286 9.44,5.65714286 C10.5806667,5.65714286 11.682,5.775 12.744,5.97142857 C13.2946667,6.08928571 13.8453333,6.24642857 14.396,6.40357143 L14.396,6.83571429 L12.744,6.83571429 Z M16.7166667,7.85714286 L16.9526667,7.85714286 L16.9526667,7.85714286 C17.11,7.85714286 17.228,7.73928571 17.228,7.62142857 C17.228,7.62142857 17.228,7.62142857 17.228,7.58214286 C17.228,7.46428571 17.11,7.34642857 16.9526667,7.34642857 L16.9526667,7.34642857 L16.7953333,7.34642857 L16.7166667,7.34642857 C16.7166667,7.34642857 16.7166667,7.34642857 16.7166667,7.30714286 C16.8346667,7.03214286 17.11,6.83571429 17.4246667,6.83571429 C17.8573333,6.83571429 18.172,7.18928571 18.172,7.58214286 C18.172,7.73928571 18.1326667,7.89642857 18.0146667,8.05357143 C17.936,8.17142857 17.818,8.25 17.6606667,8.32857143 L17.6606667,8.13214286 L17.6606667,8.13214286 C17.6606667,7.975 17.5426667,7.89642857 17.4246667,7.89642857 C17.2673333,7.89642857 17.1886667,8.01428571 17.1886667,8.13214286 L17.1886667,8.13214286 L17.1886667,8.32857143 C16.992,8.25 16.7953333,8.09285714 16.7166667,7.85714286 Z M17.1493333,11.7857143 C17.0313333,11.7857143 16.9526667,11.7464286 16.874,11.6678571 C16.7953333,11.5892857 16.7953333,11.5107143 16.7953333,11.4321429 L16.7953333,11.4321429 L16.7953333,10.9214286 L16.7953333,10.6464286 L16.7953333,10.1357143 L16.7953333,10.1357143 C16.7953333,10.0571429 16.8346667,9.93928571 16.874,9.9 C16.9526667,9.82142857 17.0313333,9.78214286 17.1493333,9.78214286 L17.1886667,9.78214286 L17.1886667,10.0178571 L17.1886667,10.0178571 L17.1886667,10.0178571 C17.1886667,10.1357143 17.2673333,10.2535714 17.3853333,10.2535714 L17.4246667,10.2535714 L17.464,10.2535714 C17.582,10.2535714 17.6606667,10.1357143 17.7,10.0178571 L17.7,10.0178571 L17.7,10.0178571 L17.7,9.78214286 L17.7393333,9.78214286 C17.8573333,9.78214286 17.936,9.82142857 18.0146667,9.9 C18.054,9.97857143 18.0933333,10.0571429 18.0933333,10.1357143 L18.0933333,10.6464286 L18.0933333,10.9214286 L18.0933333,11.4321429 C18.0933333,11.5107143 18.054,11.5892857 18.0146667,11.6678571 C17.936,11.7464286 17.8573333,11.7857143 17.7393333,11.7857143 C17.7393333,11.7857143 17.7393333,11.7857143 17.7,11.7857143 L17.7,11.55 L17.7,11.55 C17.7,11.4321429 17.6213333,11.3142857 17.464,11.3142857 L17.4246667,11.3142857 L17.3853333,11.3142857 C17.2673333,11.3142857 17.1493333,11.4321429 17.1493333,11.55 L17.1493333,11.55 L17.1493333,11.7857143 L17.1493333,11.7857143 Z M17.1493333,15.1642857 C17.0313333,15.1642857 16.9526667,15.125 16.874,15.0464286 C16.7953333,14.9678571 16.7953333,14.8892857 16.7953333,14.8107143 L16.7953333,14.8107143 L16.7953333,14.3 L16.7953333,14.025 L16.7953333,13.5142857 L16.7953333,13.5142857 C16.7953333,13.4357143 16.8346667,13.3178571 16.874,13.2785714 C16.9526667,13.2 17.0313333,13.1607143 17.1493333,13.1607143 L17.1886667,13.1607143 L17.1886667,13.3964286 L17.1886667,13.3964286 C17.1886667,13.5142857 17.2673333,13.6321429 17.3853333,13.6321429 L17.4246667,13.6321429 L17.464,13.6321429 C17.582,13.6321429 17.6606667,13.5142857 17.7,13.3964286 L17.7,13.3964286 L17.7,13.1607143 L17.7393333,13.1607143 C17.8573333,13.1607143 17.936,13.2 18.0146667,13.2785714 C18.054,13.3571429 18.0933333,13.4357143 18.0933333,13.5142857 L18.0933333,14.025 L18.0933333,14.3 L18.0933333,14.8107143 C18.0933333,14.8892857 18.054,14.9678571 18.0146667,15.0464286 C17.936,15.125 17.8573333,15.1642857 17.7393333,15.1642857 C17.7393333,15.1642857 17.7393333,15.1642857 17.7,15.1642857 L17.7,15.1642857 L17.7,14.9285714 L17.7,14.9285714 C17.7,14.8107143 17.6213333,14.6928571 17.464,14.6928571 L17.4246667,14.6928571 L17.3853333,14.6928571 C17.2673333,14.6928571 17.1493333,14.8107143 17.1493333,14.9285714 L17.1493333,14.9285714 L17.1493333,15.1642857 L17.1493333,15.1642857 L17.1493333,15.1642857 Z M17.1493333,18.5821429 C17.0313333,18.5821429 16.9526667,18.5428571 16.874,18.4642857 C16.7953333,18.3857143 16.7953333,18.3071429 16.7953333,18.2285714 L16.7953333,18.2285714 L16.7953333,17.7178571 L16.7953333,17.4428571 L16.7953333,16.9321429 L16.7953333,16.9321429 C16.7953333,16.8535714 16.8346667,16.7357143 16.874,16.6964286 C16.9526667,16.6178571 17.0313333,16.5785714 17.1493333,16.5785714 L17.1886667,16.5785714 L17.1886667,16.8142857 L17.1886667,16.8142857 C17.1886667,16.9321429 17.2673333,17.05 17.3853333,17.05 L17.4246667,17.05 L17.464,17.05 C17.582,17.05 17.6606667,16.9321429 17.7,16.8142857 L17.7,16.8142857 L17.7,16.5785714 L17.7393333,16.5785714 C17.8573333,16.5785714 17.936,16.6178571 18.0146667,16.6964286 C18.054,16.775 18.0933333,16.8535714 18.0933333,16.9321429 L18.0933333,17.4428571 L18.0933333,17.7178571 L18.0933333,18.2285714 C18.0933333,18.3071429 18.054,18.3857143 18.0146667,18.4642857 C17.936,18.5428571 17.8573333,18.5821429 17.7393333,18.5821429 C17.7393333,18.5821429 17.7393333,18.5821429 17.7,18.5821429 L17.7,18.5821429 L17.7,18.3464286 L17.7,18.3464286 C17.7,18.2285714 17.6213333,18.1107143 17.464,18.1107143 L17.4246667,18.1107143 L17.3853333,18.1107143 C17.2673333,18.1107143 17.1493333,18.2285714 17.1493333,18.3464286 L17.1493333,18.3464286 L17.1493333,18.5821429 L17.1493333,18.5821429 L17.1493333,18.5821429 Z M17.464,21.4892857 C17.0313333,21.4892857 16.7166667,21.1357143 16.7166667,20.7428571 C16.7166667,20.4285714 16.9133333,20.1142857 17.228,20.0357143 L17.228,20.2321429 L17.228,20.2321429 L17.228,20.2321429 C17.228,20.35 17.346,20.4678571 17.464,20.4678571 C17.582,20.4678571 17.7,20.35 17.7,20.2321429 L17.7,20.2321429 L17.7,20.2321429 L17.7,20.0357143 C18.0146667,20.1535714 18.2113333,20.4285714 18.2113333,20.7428571 C18.2113333,21.1357143 17.8573333,21.4892857 17.464,21.4892857 Z" id="Shape"></path>
                </g>
            </g>
        </g>
    </g>
</svg>
