<?xml version="1.0" encoding="UTF-8"?>
<svg width="48px" height="56px" viewBox="0 0 48 56" version="1.1" xmlns="http://www.w3.org/2000/svg" xmlns:xlink="http://www.w3.org/1999/xlink">
    <!-- Generator: Sketch 41.2 (35397) - http://www.bohemiancoding.com/sketch -->
    <title>parliament-uk-portcullis-black</title>
    <g id="Page-1" stroke="none" stroke-width="1" fill="none" fill-rule="evenodd">
        <g id="parliament-uk-portcullis--black" fill="#000000">
            <path d="M45,49.6 L45,48.6 L45.1,48.6 C46.3,48.6 47.3,47.6 47.3,46.4 L47.3,43.1 C47.3,41.9 46.3,40.9 45.1,40.9 L45,40.9 L45,40.9 L45,40 L45.1,40 C46.3,40 47.3,39 47.3,37.8 L47.3,34.5 C47.3,33.3 46.3,32.3 45.1,32.3 L45,32.3 L45,32.3 L45,31.4 L45.1,31.4 C46.3,31.4 47.3,30.4 47.3,29.2 L47.3,25.9 C47.3,24.7 46.3,23.7 45.1,23.7 L45,23.7 L45,22.7 C45.8,22.5 46.5,22 47,21.4 C47.4,20.9 47.6,20.2 47.6,19.6 C47.6,17.8 46.2,16.4 44.4,16.4 C43.1,16.4 41.9,17.2 41.4,18.4 C41.3,18.6 41.2,18.8 41.2,19 L39.6,19 L39.6,17.6 L39.6,17.6 L39.6,17.6 L41.1,15.1 L46.6,5.6 C46.6,5.6 45.5,5 44.7,4.6 C44.3,4.4 43.9,4 43.6,3.7 L43.5,3.6 C43.4,3.5 43.3,3.5 43.1,3.5 C42.7,3.5 42.4,3.8 42.4,4.2 C42.6,4.4 42.8,4.7 43,5 C43.4,5.5 43.7,6.1 43.8,6.9 C44,7.8 43.5,8.7 43,8.9 C42.5,9.1 41.4,8.6 40.9,7.6 C40.5,6.6 40.7,5.1 40,5.2 C39.3,5.3 39.9,7.1 39.5,8.4 C39.1,9.7 38.2,10.5 38.5,10.8 C38.8,11.1 39.3,10.5 39.8,10.2 C40.3,9.9 41.1,9.2 41.8,9.9 C42.4,10.5 42,11.6 40.1,12.7 C39,13.3 37.8,13.8 36.9,13.9 C36.2,14 35.6,13.9 35.2,13.5 C34.8,13.1 34.6,12.6 34.6,12.2 L34.7,12.1 C34.9,11.9 35.1,11.6 35.2,11.2 C35.3,10.7 35.2,10.1 35,9.7 C35.3,9.2 35.7,8.4 36.5,8.3 C37.8,8.1 38.4,9.4 38.4,9.4 C38.4,9.4 39.6,7.3 38.7,6.5 C38.1,5.9 36.2,6.9 35.5,7.3 C35.6,7 35.7,6.6 35.8,6.3 C36.2,4.8 36.1,3.2 35.6,1.9 C34.5,2.9 33.7,4.2 33.3,5.7 C33.2,5.9 33.2,6.2 33.2,6.4 C32.7,5.7 31.7,4.2 30.9,4.4 C29.8,4.7 29.8,7 29.8,7 C29.8,7 30.9,6.2 31.8,7 C32.5,7.6 32.5,8.8 32.4,9.2 C31.9,9.4 31.5,9.9 31.4,10.5 C31.3,10.9 31.3,11.2 31.4,11.5 C31.4,11.5 31.4,11.5 31.4,11.6 C30.8,12.1 29.7,12.7 28.5,12.7 C27.7,12.7 27.1,12.4 26.6,11.9 C26,11.3 25.6,10.4 25.3,9.4 L25.3,9.3 C25,8.1 24.9,6.3 24.9,6.3 C24.9,6.3 25.7,6 26.7,6.7 C26.7,6.7 26.8,6.7 26.8,6.8 C28,7.7 28,8.8 28.6,8.8 C29.1,8.8 29,7.1 29.1,5.9 C29.2,4.3 29.6,3.4 29.6,3.4 C29.7,3.3 29.6,3 29.4,3 C29.1,2.6 29,2.9 29,2.9 C29,2.9 29,3.7 27.5,4.4 C27.3,4.5 27.2,4.5 27,4.6 C26.1,4.8 25.3,4.5 25.3,4.5 C25.3,4.5 24.9,3.3 26,2.1 C26.1,2 26.3,1.8 26.5,1.7 C26.8,1.5 27.2,1.3 27.6,1.2 C28,1.1 28.4,1 28.7,1 L28.7,0.7 C28.7,0.3 28.4,0.1 28.1,0 C27.9,0 27.7,0.1 27.5,0.1 C26.9,0.2 26.3,0.3 25.8,0.4 C25.2,0.5 24.6,0.5 23.9,0.5 C23.3,0.5 22.6,0.5 22,0.4 C21.4,0.3 20.8,0.2 20.3,0.1 C20.2,0.1 20,0 19.8,0 C19.5,0.1 19.2,0.4 19.2,0.7 L19.2,1 C19.5,1 19.9,1.1 20.4,1.3 C20.8,1.4 21.1,1.6 21.5,1.8 C21.7,1.9 21.8,2 22,2.2 C23.2,3.4 22.8,4.6 22.8,4.6 C22.8,4.6 21.9,4.8 21,4.6 C20.8,4.6 20.7,4.5 20.5,4.4 C19,3.7 18.9,2.9 18.9,2.9 C18.9,2.9 18.8,2.6 18.5,2.7 C18.3,2.8 18.3,3 18.3,3.1 C18.3,3.1 18.7,3.9 18.8,5.6 C18.9,6.8 18.8,8.5 19.3,8.5 C19.9,8.5 19.9,7.4 21.1,6.5 C21.1,6.5 21.2,6.5 21.2,6.4 C22.2,5.8 23.1,6 23.1,6 C23.1,6 23,7.9 22.6,9 L22.6,9.1 C22.3,10.1 21.9,11 21.3,11.6 C20.8,12.1 20.2,12.4 19.4,12.4 C18.2,12.4 17.2,11.8 16.5,11.3 C16.5,11.3 16.5,11.3 16.5,11.2 C16.6,10.9 16.6,10.5 16.5,10.2 C16.4,9.6 16,9.2 15.5,8.9 C15.4,8.4 15.4,7.3 16.1,6.7 C17.1,5.9 18.1,6.7 18.1,6.7 C18.1,6.7 18.1,4.4 17,4.1 C16.3,3.9 15.2,5.4 14.7,6.1 C14.7,5.9 14.6,5.6 14.6,5.4 C14.2,3.9 13.4,2.6 12.3,1.6 C11.8,3 11.7,4.5 12.1,6 C12.2,6.3 12.3,6.7 12.4,7 C11.8,6.8 10,5.9 9.4,6.4 C8.5,7.2 9.7,9.3 9.7,9.3 C9.7,9.3 10.3,8 11.6,8.2 C12.4,8.3 12.9,9.1 13.1,9.6 C12.8,10 12.7,10.6 12.9,11.1 C13,11.5 13.2,11.8 13.4,12 L13.5,12.1 C13.4,12.5 13.2,13 12.9,13.4 C12.5,13.8 11.9,13.9 11.2,13.8 C10.2,13.7 9.1,13.2 8,12.6 C6,11.6 5.6,10.5 6.2,9.9 C6.9,9.3 7.7,9.9 8.2,10.2 C8.7,10.5 9.2,11 9.5,10.8 C9.8,10.5 8.9,9.7 8.5,8.4 C8,7.1 8.7,5.3 8,5.2 C7.3,5.1 7.5,6.6 7.1,7.6 C6.7,8.6 5.6,9 5,8.9 C4.5,8.7 3.9,7.9 4.1,6.5 C4.3,5.8 4.6,5.2 5,4.6 C5.2,4.3 5.4,4.1 5.6,3.8 C5.6,3.4 5.3,3.1 4.9,3.1 C4.8,3.1 4.6,3.1 4.5,3.2 C4.4,3.2 4.4,3.3 4.4,3.3 C4,3.7 3.7,4.1 3.2,4.3 C2.4,4.8 1.3,5.3 1.3,5.3 L6.8,14.8 L8.3,17.3 L8.3,17.3 L8.3,17.3 L8.3,18.6 L6.8,18.6 C6.8,18.4 6.7,18.2 6.6,18 C6.1,16.8 5,16 3.6,16 C1.8,16 0.4,17.4 0.4,19.2 C0.4,19.9 0.6,20.5 1,21 C1.5,21.7 2.2,22.2 3,22.3 L3,23.3 L2.9,23.3 C1.7,23.3 0.7,24.3 0.7,25.5 L0.7,28.8 C0.7,30 1.7,31 2.9,31 L3,31 L3,31.9 L3,31.9 L2.9,31.9 C1.7,31.9 0.7,32.9 0.7,34.1 L0.7,37.4 C0.7,38.6 1.7,39.6 2.9,39.6 L3,39.6 L3,40.5 L3,40.5 L2.9,40.5 C1.7,40.5 0.7,41.5 0.7,42.7 L0.7,46 C0.7,47.2 1.7,48.2 2.9,48.2 L3,48.2 L3,49.2 C1.5,49.5 0.4,50.8 0.4,52.4 C0.4,54.2 1.8,55.6 3.6,55.6 C5.4,55.6 6.8,54.2 6.8,52.4 C6.8,50.8 5.7,49.5 4.2,49.2 L4.2,48.2 L4.3,48.2 C5.5,48.2 6.5,47.2 6.5,46 L6.5,45.9 L6.5,42.8 L6.5,42.7 C6.5,41.5 5.5,40.5 4.3,40.5 L4.3,40.5 L4.3,40.5 L4.3,40.5 L4.3,40.5 L4.3,39.6 L4.4,39.6 C5.6,39.6 6.6,38.6 6.6,37.4 L6.6,37.3 L6.6,34.2 L6.6,34.1 C6.6,32.9 5.6,31.9 4.4,31.9 L4.4,31.9 L4.4,31.9 L4.3,31.9 L4.3,31.9 L4.3,31 L4.4,31 C5.6,31 6.6,30 6.6,28.8 L6.6,28.7 L6.6,25.6 L6.6,25.5 C6.6,24.3 5.6,23.3 4.4,23.3 L4.4,23.3 L4.4,23.3 L4.3,23.3 L4.3,22.3 C5.6,22 6.6,21 6.8,19.8 L8.4,19.8 L8.4,20.3 L8.4,25 L8.4,27.7 L8.4,32.2 L8.4,35 L8.4,39.5 L8.4,42.2 L8.4,46.7 L8.4,53.1 L9.9,53.1 L11.4,49.5 L12.6,46.7 L11.4,46.7 L11.4,42.2 L15.6,42.2 L15.6,46.7 L14.4,46.7 L15.6,49.6 L17,52.9 L18.4,49.5 L19.6,46.7 L18.4,46.7 L18.4,42.2 L22.6,42.2 L22.6,46.7 L21.4,46.7 L22.6,49.6 L24,52.9 L25.4,49.5 L26.6,46.6 L25.4,46.6 L25.4,42.1 L29.6,42.1 L29.6,46.6 L28.4,46.6 L29.6,49.5 L31,52.8 L32.4,49.4 L33.6,46.6 L32.4,46.6 L32.4,42.1 L36.6,42.1 L36.6,46.6 L35.4,46.6 L36.6,49.5 L38.1,53 L39.6,53 L39.6,46.6 L39.6,42.1 L39.6,39.4 L39.6,35 L39.6,32.3 L39.6,27.8 L39.6,25 L39.6,20.5 L39.6,20 L41.2,20 C41.5,21.3 42.5,22.3 43.7,22.5 L43.7,23.5 L43.6,23.5 L43.6,23.5 L43.6,23.5 C42.4,23.5 41.4,24.5 41.4,25.7 L41.4,25.8 L41.4,29 L41.4,29.1 C41.4,30.3 42.4,31.3 43.6,31.3 L43.7,31.3 L43.7,32.2 L43.7,32.2 L43.6,32.2 L43.6,32.2 L43.6,32.2 C42.4,32.2 41.4,33.2 41.4,34.4 L41.4,34.5 L41.4,37.6 L41.4,37.7 C41.4,38.9 42.4,39.9 43.6,39.9 L43.7,39.9 L43.7,40.8 L43.7,40.8 L43.6,40.8 L43.6,40.8 L43.6,40.8 C42.4,40.8 41.4,41.8 41.4,43 L41.4,43.1 L41.4,46.2 L41.4,46.3 C41.4,47.5 42.4,48.5 43.6,48.5 L43.7,48.5 L43.7,49.5 C42.2,49.8 41.1,51.1 41.1,52.7 C41.1,54.5 42.5,55.9 44.3,55.9 C46.1,55.9 47.5,54.5 47.5,52.7 C47.6,51.2 46.5,49.9 45,49.6 Z M5.6,52.8 C5.6,53.9 4.7,54.7 3.7,54.7 C2.6,54.7 1.8,53.8 1.8,52.8 C1.8,52 2.3,51.2 3.1,51 L3.1,51.5 L3.1,51.5 L3.1,51.5 C3.1,51.8 3.4,52.1 3.7,52.1 C4,52.1 4.3,51.8 4.3,51.5 L4.3,51.5 L4.3,51.5 L4.3,51 C5,51.2 5.6,51.9 5.6,52.8 Z M4.4,42.2 C4.7,42.2 4.9,42.3 5.1,42.5 C5.3,42.7 5.3,42.9 5.3,43.1 L5.3,43.1 L5.3,44.4 L5.3,45.1 L5.3,46.4 L5.3,46.4 C5.3,46.6 5.2,46.9 5.1,47 C4.9,47.2 4.7,47.3 4.4,47.3 L4.3,47.3 L4.3,47.3 L4.3,46.7 L4.3,46.7 C4.3,46.4 4.1,46.1 3.7,46.1 L3.6,46.1 L3.5,46.1 C3.2,46.1 2.9,46.4 2.9,46.7 L2.9,46.7 L2.9,47.3 L2.9,47.3 C2.9,47.3 2.9,47.3 2.8,47.3 C2.5,47.3 2.3,47.2 2.1,47 C2.1,46.8 2,46.6 2,46.4 L2,45.1 L2,44.4 L2,43.1 C2,42.9 2.1,42.7 2.2,42.5 C2.4,42.3 2.6,42.2 2.9,42.2 L3,42.2 L3,42.8 L3,42.8 C3,43.1 3.3,43.4 3.6,43.4 L3.7,43.4 L3.8,43.4 C4.1,43.4 4.3,43.1 4.3,42.8 L4.3,42.8 L4.4,42.2 C4.3,42.2 4.3,42.2 4.4,42.2 Z M4.4,33.5 C4.7,33.5 4.9,33.6 5.1,33.8 C5.3,34 5.3,34.2 5.3,34.4 L5.3,34.4 L5.3,35.7 L5.3,36.4 L5.3,37.7 L5.3,37.7 C5.3,37.9 5.2,38.2 5.1,38.3 C4.9,38.5 4.7,38.6 4.4,38.6 L4.3,38.6 L4.3,38.6 L4.3,38 L4.3,38 C4.3,37.7 4.1,37.4 3.7,37.4 L3.6,37.4 L3.5,37.4 C3.2,37.4 3,37.7 3,38 L3,38 L3,38.6 L3,38.6 C3,38.6 3,38.6 2.9,38.6 C2.6,38.6 2.4,38.5 2.2,38.3 C2.1,38.2 2,38 2,37.7 L2,36.4 L2,35.7 L2,34.4 C2,34.2 2.1,34 2.2,33.8 C2.4,33.6 2.6,33.5 2.9,33.5 L3,33.5 L3,34.1 L3,34.1 C3,34.4 3.3,34.7 3.6,34.7 L3.7,34.7 L3.8,34.7 C4.1,34.7 4.3,34.4 4.3,34.1 L4.3,34.1 L4.4,33.5 C4.3,33.5 4.3,33.5 4.4,33.5 Z M4.4,24.9 C4.7,24.9 4.9,25 5.1,25.2 C5.3,25.4 5.3,25.6 5.3,25.8 L5.3,25.8 L5.3,27.1 L5.3,27.8 L5.3,29.1 L5.3,29.1 C5.3,29.3 5.2,29.6 5.1,29.7 C4.8,29.9 4.6,30 4.4,30 L4.3,30 L4.3,29.4 L4.3,29.4 C4.3,29.1 4.1,28.8 3.7,28.8 L3.6,28.8 L3.5,28.8 C3.2,28.7 3,29 3,29.3 L3,29.3 L3,30 C3,30 3,30 2.9,30 C2.6,30 2.4,29.9 2.2,29.7 C2.1,29.5 2,29.3 2,29.1 L2,27.8 L2,27.1 L2,25.8 C2,25.6 2.1,25.4 2.2,25.2 C2.4,25 2.6,24.9 2.9,24.9 L3,24.9 L3,25.5 L3,25.5 L3,25.5 C3,25.8 3.3,26.1 3.6,26.1 L3.7,26.1 L3.8,26.1 C4.1,26.1 4.3,25.8 4.3,25.5 L4.3,25.5 L4.3,25.5 L4.4,24.9 C4.3,24.9 4.3,24.9 4.4,24.9 Z M4.3,21.2 L4.3,20.7 L4.3,20.7 C4.3,20.3 4,20 3.6,20 C3.3,20 3,20.3 3,20.7 L3,20.7 L3,21.2 C2.6,21.1 2.3,20.8 2.1,20.5 C1.9,20.2 1.7,19.8 1.7,19.3 C1.7,18.2 2.6,17.4 3.6,17.4 C4.4,17.4 5.1,17.9 5.4,18.6 C5.4,18.6 5.4,18.6 5.4,18.7 L5.3,18.7 L4.9,18.7 L4.9,18.7 C4.5,18.7 4.3,18.9 4.2,19.3 C4.2,19.3 4.2,19.3 4.2,19.4 C4.2,19.8 4.5,20 4.9,20 L4.9,20 L5.5,20 C5.3,20.6 4.8,21 4.3,21.2 Z M15.6,39.4 L11.4,39.4 L11.4,35 L15.6,35 L15.6,39.4 Z M15.6,32.2 L11.4,32.2 L11.4,27.7 L15.6,27.7 L15.6,32.2 Z M15.6,25 L11.4,25 L11.4,20.5 L15.6,20.5 L15.6,25 Z M22.6,39.4 L18.4,39.4 L18.4,35 L22.6,35 L22.6,39.4 Z M22.6,32.2 L18.4,32.2 L18.4,27.7 L22.6,27.7 L22.6,32.2 Z M22.6,25 L18.4,25 L18.4,20.5 L22.6,20.5 L22.6,25 Z M29.6,39.4 L25.4,39.4 L25.4,35 L29.6,35 L29.6,39.4 Z M29.6,32.2 L25.4,32.2 L25.4,27.7 L29.6,27.7 L29.6,32.2 Z M29.6,25 L25.4,25 L25.4,20.5 L29.6,20.5 L29.6,25 Z M36.6,39.4 L32.4,39.4 L32.4,35 L36.6,35 L36.6,39.4 Z M36.6,32.2 L32.4,32.2 L32.4,27.7 L36.6,27.7 L36.6,32.2 Z M36.6,25 L32.4,25 L32.4,20.5 L36.6,20.5 L36.6,25 Z M32.4,17.4 L29.6,17.4 L25.4,17.4 L22.6,17.4 L18.4,17.4 L15.6,17.4 L11.4,17.4 L11.4,16.3 C12.8,15.9 14.2,15.5 15.6,15.2 C18.3,14.6 21.1,14.4 24,14.4 C26.9,14.4 29.7,14.7 32.4,15.2 C33.8,15.5 35.2,15.9 36.6,16.3 L36.6,17.4 L32.4,17.4 Z M42.5,20 L43.1,20 L43.1,20 C43.5,20 43.8,19.7 43.8,19.4 C43.8,19.4 43.8,19.4 43.8,19.3 C43.8,19 43.5,18.7 43.1,18.7 L43.1,18.7 L42.7,18.7 L42.5,18.7 C42.5,18.7 42.5,18.7 42.5,18.6 C42.8,17.9 43.5,17.4 44.3,17.4 C45.4,17.4 46.2,18.3 46.2,19.3 C46.2,19.7 46.1,20.1 45.8,20.5 C45.6,20.8 45.3,21 44.9,21.2 L44.9,20.7 L44.9,20.7 C44.9,20.3 44.6,20.1 44.3,20.1 C43.9,20.1 43.7,20.4 43.7,20.7 L43.7,20.7 L43.7,21.2 C43.2,21 42.7,20.6 42.5,20 Z M43.6,30 C43.3,30 43.1,29.9 42.9,29.7 C42.7,29.5 42.7,29.3 42.7,29.1 L42.7,29.1 L42.7,27.8 L42.7,27.1 L42.7,25.8 L42.7,25.8 C42.7,25.6 42.8,25.3 42.9,25.2 C43.1,25 43.3,24.9 43.6,24.9 L43.7,24.9 L43.7,25.5 L43.7,25.5 L43.7,25.5 C43.7,25.8 43.9,26.1 44.2,26.1 L44.3,26.1 L44.4,26.1 C44.7,26.1 44.9,25.8 45,25.5 L45,25.5 L45,25.5 L45,24.9 L45.1,24.9 C45.4,24.9 45.6,25 45.8,25.2 C45.9,25.4 46,25.6 46,25.8 L46,27.1 L46,27.8 L46,29.1 C46,29.3 45.9,29.5 45.8,29.7 C45.6,29.9 45.4,30 45.1,30 C45.1,30 45.1,30 45,30 L45,29.4 L45,29.4 C45,29.1 44.8,28.8 44.4,28.8 L44.3,28.8 L44.2,28.8 C43.9,28.8 43.6,29.1 43.6,29.4 L43.6,29.4 L43.6,30 L43.6,30 Z M43.6,38.6 C43.3,38.6 43.1,38.5 42.9,38.3 C42.7,38.1 42.7,37.9 42.7,37.7 L42.7,37.7 L42.7,36.4 L42.7,35.7 L42.7,34.4 L42.7,34.4 C42.7,34.2 42.8,33.9 42.9,33.8 C43.1,33.6 43.3,33.5 43.6,33.5 L43.7,33.5 L43.7,34.1 L43.7,34.1 C43.7,34.4 43.9,34.7 44.2,34.7 L44.3,34.7 L44.4,34.7 C44.7,34.7 44.9,34.4 45,34.1 L45,34.1 L45,33.5 L45.1,33.5 C45.4,33.5 45.6,33.6 45.8,33.8 C45.9,34 46,34.2 46,34.4 L46,35.7 L46,36.4 L46,37.7 C46,37.9 45.9,38.1 45.8,38.3 C45.6,38.5 45.4,38.6 45.1,38.6 C45.1,38.6 45.1,38.6 45,38.6 L45,38.6 L45,38 L45,38 C45,37.7 44.8,37.4 44.4,37.4 L44.3,37.4 L44.2,37.4 C43.9,37.4 43.6,37.7 43.6,38 L43.6,38 L43.6,38.6 L43.6,38.6 L43.6,38.6 Z M43.6,47.3 C43.3,47.3 43.1,47.2 42.9,47 C42.7,46.8 42.7,46.6 42.7,46.4 L42.7,46.4 L42.7,45.1 L42.7,44.4 L42.7,43.1 L42.7,43.1 C42.7,42.9 42.8,42.6 42.9,42.5 C43.1,42.3 43.3,42.2 43.6,42.2 L43.7,42.2 L43.7,42.8 L43.7,42.8 C43.7,43.1 43.9,43.4 44.2,43.4 L44.3,43.4 L44.4,43.4 C44.7,43.4 44.9,43.1 45,42.8 L45,42.8 L45,42.2 L45.1,42.2 C45.4,42.2 45.6,42.3 45.8,42.5 C45.9,42.7 46,42.9 46,43.1 L46,44.4 L46,45.1 L46,46.4 C46,46.6 45.9,46.8 45.8,47 C45.6,47.2 45.4,47.3 45.1,47.3 C45.1,47.3 45.1,47.3 45,47.3 L45,47.3 L45,46.7 L45,46.7 C45,46.4 44.8,46.1 44.4,46.1 L44.3,46.1 L44.2,46.1 C43.9,46.1 43.6,46.4 43.6,46.7 L43.6,46.7 L43.6,47.3 L43.6,47.3 L43.6,47.3 Z M44.4,54.7 C43.3,54.7 42.5,53.8 42.5,52.8 C42.5,52 43,51.2 43.8,51 L43.8,51.5 L43.8,51.5 L43.8,51.5 C43.8,51.8 44.1,52.1 44.4,52.1 C44.7,52.1 45,51.8 45,51.5 L45,51.5 L45,51.5 L45,51 C45.8,51.3 46.3,52 46.3,52.8 C46.3,53.8 45.4,54.7 44.4,54.7 Z" id="Shape"></path>
        </g>
    </g>
</svg>
