<?xml version="1.0" encoding="UTF-8"?>
<svg width="134px" height="25px" viewBox="0 0 134 25" version="1.1" xmlns="http://www.w3.org/2000/svg" xmlns:xlink="http://www.w3.org/1999/xlink">
    <!-- Generator: Sketch 42 (36781) - http://www.bohemiancoding.com/sketch -->
    <title>parliament-uk--white-25</title>
    <g id="Page-1" stroke="none" stroke-width="1" fill="none" fill-rule="evenodd">
        <g id="parliament-uk--white-25" fill-rule="nonzero" fill="#FFFFFF">
            <g id="Page-1">
                <g id="parliament-uk--white-25">
                    <path d="M27.738,14.8214286 C27.738,13.6607143 27.6933334,12.7232143 27.6486667,11.875 L29.1226667,11.875 L29.212,13.4375 L29.2566667,13.4375 C29.9266667,12.3214286 30.9986667,11.6964286 32.4726667,11.6964286 C34.6613333,11.6964286 36.2693334,13.5267857 36.2693334,16.25 C36.2693334,19.4642857 34.304,21.0714286 32.16,21.0714286 C30.954,21.0714286 29.9266667,20.5357143 29.3906667,19.6428572 L29.346,19.6428572 L29.346,24.5535714 L27.738,24.5535714 L27.738,14.8214286 Z M29.346,17.2321428 C29.346,17.4553572 29.3906667,17.6785714 29.4353334,17.9017857 C29.748,19.0178572 30.7306666,19.8214286 31.892,19.8214286 C33.634,19.8214286 34.6166666,18.3928572 34.6166666,16.3392857 C34.6166666,14.5535714 33.6786666,12.9910714 31.9366666,12.9910714 C30.82,12.9910714 29.7926667,13.7946429 29.48,15 C29.4353334,15.2232143 29.346,15.4464286 29.346,15.6696429 L29.346,17.2321428 Z M44.6666667,18.75 C44.6666667,19.5089286 44.7113333,20.3125 44.8006666,20.8928572 L43.3266666,20.8928572 L43.1926666,19.7767857 L43.148,19.7767857 C42.6566666,20.4910714 41.674,21.1160714 40.3786666,21.1160714 C38.5473334,21.1160714 37.6093333,19.8214286 37.6093333,18.5267857 C37.6093333,16.3392857 39.53,15.1785714 43.014,15.1785714 L43.014,15 C43.014,14.2410714 42.7906666,12.9017857 40.9593334,12.9017857 C40.1106666,12.9017857 39.262,13.1696429 38.6366667,13.5714286 L38.2793334,12.5 C39.0386667,12.0089286 40.1106666,11.6964286 41.2273334,11.6964286 C43.9966667,11.6964286 44.6666667,13.5714286 44.6666667,15.3571429 L44.6666667,18.75 Z M43.0586666,16.2946428 C41.272,16.25 39.262,16.5625 39.262,18.3035714 C39.262,19.375 39.9766666,19.8660714 40.8253334,19.8660714 C41.9866666,19.8660714 42.746,19.1071428 43.014,18.3482143 C43.0586666,18.1696428 43.1033333,17.9910714 43.1033333,17.8125 L43.0586666,16.2946428 L43.0586666,16.2946428 Z M47.302,14.6875 C47.302,13.6160715 47.302,12.7232143 47.2126667,11.875 L48.642,11.875 L48.6866666,13.6607143 L48.776,13.6607143 C49.178,12.4553572 50.1606665,11.6964286 51.2773335,11.6964286 C51.456,11.6964286 51.59,11.6964286 51.724,11.7410715 L51.724,13.3035715 C51.5453335,13.2589286 51.3666665,13.2589286 51.1433335,13.2589286 C49.982,13.2589286 49.178,14.1517857 48.9546667,15.3571429 C48.91,15.5803572 48.8653334,15.8482143 48.8653334,16.1160714 L48.8653334,20.8928572 L47.2573334,20.8928572 L47.2573334,14.6875 L47.302,14.6875 L47.302,14.6875 Z M53.466,7.67857145 L55.1186665,7.67857145 L55.1186665,20.8928572 L53.466,20.8928572 L53.466,7.67857145 Z M59.6746665,9.375 C59.6746665,9.95535715 59.2726665,10.3571429 58.6473335,10.3571429 C58.0666665,10.3571429 57.6646665,9.9107143 57.6646665,9.375 C57.6646665,8.79464285 58.1113335,8.3482143 58.692,8.3482143 C59.2726665,8.3482143 59.6746665,8.79464285 59.6746665,9.375 Z M57.8433335,20.8928571 L57.8433335,11.875 L59.496,11.875 L59.496,20.8928571 L57.8433335,20.8928571 Z M68.5186665,18.75 C68.5186665,19.5089286 68.5633335,20.3125 68.6526665,20.8928572 L67.1786665,20.8928572 L67.0446665,19.7767857 L67,19.7767857 C66.5086665,20.4910714 65.526,21.1160714 64.2306665,21.1160714 C62.3993335,21.1160714 61.4613335,19.8214286 61.4613335,18.5267857 C61.4613335,16.3392857 63.382,15.1785714 66.866,15.1785714 L66.866,15 C66.866,14.2410714 66.6426665,12.9017857 64.8113335,12.9017857 C63.9626665,12.9017857 63.114,13.1696429 62.4886665,13.5714286 L62.1313335,12.5 C62.8906665,12.0089286 63.9626665,11.6964286 65.0793335,11.6964286 C67.8486665,11.6964286 68.5186665,13.5714286 68.5186665,15.3571429 L68.5186665,18.75 Z M66.9553335,16.2946428 C65.1686665,16.25 63.1586665,16.5625 63.1586665,18.3035714 C63.1586665,19.375 63.8733335,19.8660714 64.722,19.8660714 C65.8833335,19.8660714 66.6426665,19.1071428 66.9106665,18.3482143 C66.9553335,18.1696428 67,17.9910714 67,17.8125 L66.9553335,16.2946428 Z M71.154,14.3303571 C71.154,13.3928571 71.154,12.6339285 71.0646665,11.875 L72.494,11.875 L72.5833335,13.3035714 L72.628,13.3035714 C73.1193335,12.4553571 73.968,11.6517857 75.442,11.6517857 C76.648,11.6517857 77.586,12.4107143 77.988,13.4375 L78.0326665,13.4375 C78.3006665,12.9464285 78.658,12.5446428 79.0153335,12.2767857 C79.5513335,11.875 80.132,11.6517857 81.0253335,11.6517857 C82.2313335,11.6517857 83.9733335,12.4107143 83.9733335,15.5357143 L83.9733335,20.8482143 L82.3653335,20.8482143 L82.3653335,15.8035714 C82.3653335,14.0625 81.74,13.0357143 80.4,13.0357143 C79.462,13.0357143 78.7473335,13.7053571 78.4793335,14.5089285 C78.39,14.7321428 78.3453335,15.0446428 78.3453335,15.3125 L78.3453335,20.8928571 L76.7373335,20.8928571 L76.7373335,15.4910714 C76.7373335,14.0625 76.112,13.0357143 74.8613335,13.0357143 C73.834,13.0357143 73.0746665,13.8392857 72.8513335,14.6875 C72.762,14.9107143 72.7173335,15.2232143 72.7173335,15.4910714 L72.7173335,20.9375 L71.1093335,20.9375 L71.1093335,14.3303571 L71.154,14.3303571 L71.154,14.3303571 Z M87.5913335,16.6964286 C87.636,18.9285714 89.0206665,19.8214286 90.6733335,19.8214286 C91.8346665,19.8214286 92.5493335,19.5982143 93.1746665,19.375 L93.4426665,20.5357143 C92.862,20.8035714 91.8793335,21.1160714 90.45,21.1160714 C87.6806665,21.1160714 86.028,19.2857143 86.028,16.5625 C86.028,13.8392857 87.636,11.6964286 90.2713335,11.6964286 C93.2193335,11.6964286 93.9786665,14.2857143 93.9786665,15.9375 C93.9786665,16.2946428 93.934,16.5178572 93.934,16.6964286 L87.5913335,16.6964286 L87.5913335,16.6964286 Z M92.3706665,15.5357143 C92.3706665,14.5089286 91.924,12.8571429 90.0926665,12.8571429 C88.44,12.8571429 87.7253335,14.375 87.5913335,15.5357143 L92.3706665,15.5357143 Z M95.9886665,14.3303571 C95.9886665,13.3928571 95.9886665,12.6339286 95.8993335,11.875 L97.3286665,11.875 L97.418,13.3482143 L97.4626665,13.3482143 C97.9093335,12.5 98.9366665,11.6517857 100.455333,11.6517857 C101.706,11.6517857 103.626666,12.4107143 103.626666,15.4910714 L103.626666,20.8482143 L101.974,20.8482143 L101.974,15.7142857 C101.974,14.2857143 101.438,13.0357143 99.8746665,13.0357143 C98.8026665,13.0357143 97.954,13.7946429 97.686,14.6875 C97.5966665,14.9107143 97.5966665,15.1785714 97.5966665,15.4464286 L97.5966665,20.8482143 L95.944,20.8482143 L95.9886665,14.3303571 L95.9886665,14.3303571 Z M108.227334,9.73214285 L108.227334,11.875 L110.55,11.875 L110.55,13.125 L108.227334,13.125 L108.227334,17.9910715 C108.227334,19.1071429 108.54,19.7321429 109.433334,19.7321429 C109.88,19.7321429 110.148,19.6875 110.371334,19.5982143 L110.460667,20.8035715 C110.148,20.9375 109.656667,21.0267857 109.031334,21.0267857 C108.272,21.0267857 107.646666,20.7589286 107.244666,20.3125 C106.798,19.8214286 106.619333,19.0178572 106.619333,17.9910715 L106.619333,13.0803572 L105.234667,13.0803572 L105.234667,11.8303572 L106.619333,11.8303572 L106.619333,10.1785715 L108.227334,9.73214285 L108.227334,9.73214285 Z M113.051333,21.1160714 C112.426,21.1160714 111.979333,20.625 111.979333,19.9553571 C111.979333,19.2857143 112.426,18.7946428 113.096,18.7946428 C113.766,18.7946428 114.212666,19.2857143 114.212666,19.9553571 C114.168,20.5803571 113.721333,21.1160714 113.051333,21.1160714 Z M123.726666,18.4375 C123.726666,19.375 123.726666,20.1785714 123.816,20.8928572 L122.386667,20.8928572 L122.297333,19.4196428 L122.252667,19.4196428 C121.806,20.1339286 120.868,21.0714286 119.26,21.0714286 C117.830667,21.0714286 116.133334,20.3125 116.133334,17.1428572 L116.133334,11.875 L117.786,11.875 L117.786,16.875 C117.786,18.5714286 118.322,19.7321428 119.796,19.7321428 C120.912667,19.7321428 121.672,18.9732143 121.94,18.2589286 C122.029334,18.0357143 122.074,17.7232143 122.074,17.4107143 L122.074,11.875 L123.726666,11.875 L123.726666,18.4375 Z M128.059333,16.0267857 C128.327333,15.7142857 128.64,15.3125 128.908,15 L131.543333,11.875 L133.508667,11.875 L130.024666,15.5803572 L134,20.8928572 L131.99,20.8928572 L128.863334,16.5625 L128.014666,17.5 L128.014666,20.8928572 L126.406666,20.8928572 L126.406666,7.67857145 L128.014666,7.67857145 L128.014666,16.0267857 L128.059333,16.0267857 L128.059333,16.0267857 Z M20.1,22.1428572 L20.1,21.6964286 L20.1446667,21.6964286 C20.6806666,21.6964286 21.1273334,21.25 21.1273334,20.7142857 L21.1273334,19.2410714 C21.1273334,18.7053572 20.6806666,18.2589286 20.1446667,18.2589286 L20.1,18.2589286 L20.1,17.8571428 L20.1446667,17.8571428 C20.6806666,17.8571428 21.1273334,17.4107143 21.1273334,16.875 L21.1273334,15.4017857 C21.1273334,14.8660714 20.6806666,14.4196429 20.1446667,14.4196429 L20.1,14.4196429 L20.1,14.0178571 L20.1446667,14.0178571 C20.6806666,14.0178571 21.1273334,13.5714286 21.1273334,13.0357143 L21.1273334,11.5625 C21.1273334,11.0267857 20.6806666,10.5803571 20.1446667,10.5803571 L20.1,10.5803571 L20.1,10.1339286 C20.4573333,10.0446429 20.77,9.82142855 20.9933334,9.55357145 C21.172,9.33035715 21.2613334,9.01785715 21.2613334,8.75 C21.2613334,7.94642855 20.636,7.32142855 19.832,7.32142855 C19.2513333,7.32142855 18.7153334,7.67857145 18.492,8.2142857 C18.4473334,8.30357145 18.4026667,8.39285715 18.4026667,8.48214285 L17.688,8.48214285 L17.688,7.85714285 L18.358,6.74107145 L20.8146666,2.5 C20.8146666,2.5 20.3233333,2.23214286 19.966,2.05357143 C19.7873334,1.96428572 19.6086666,1.78571429 19.4746666,1.65178572 L19.43,1.60714285 C19.3853333,1.5625 19.3406666,1.5625 19.2513333,1.5625 C19.0726666,1.5625 18.9386666,1.69642857 18.9386666,1.875 C19.028,1.96428572 19.1173333,2.09821429 19.2066666,2.23214286 C19.3853333,2.45535714 19.5193334,2.72321429 19.564,3.08035714 C19.6533334,3.48214286 19.43,3.88392857 19.2066666,3.97321429 C18.9833333,4.0625 18.492,3.83928572 18.2686667,3.39285714 C18.09,2.94642857 18.1793334,2.27678571 17.8666666,2.32142857 C17.554,2.36607143 17.822,3.16964286 17.6433333,3.75 C17.4646667,4.33035714 17.0626667,4.6875 17.1966667,4.82142857 C17.3306667,4.95535714 17.554,4.6875 17.7773333,4.55357143 C18.0006666,4.41964286 18.358,4.10714286 18.6706667,4.41964286 C18.9386666,4.6875 18.76,5.17857145 17.9113333,5.66964285 C17.42,5.9375 16.884,6.1607143 16.482,6.20535715 C16.1693333,6.25 15.9013334,6.20535715 15.7226667,6.0267857 C15.544,5.8482143 15.4546667,5.625 15.4546667,5.44642855 L15.4993334,5.4017857 C15.5886667,5.3125 15.678,5.17857145 15.7226667,5 C15.7673334,4.77678571 15.7226667,4.50892857 15.6333333,4.33035714 C15.7673334,4.10714286 15.946,3.75 16.3033333,3.70535715 C16.884,3.61607143 17.152,4.19642857 17.152,4.19642857 C17.152,4.19642857 17.688,3.25892857 17.286,2.90178571 C17.018,2.63392857 16.1693333,3.08035714 15.8566667,3.25892857 C15.9013334,3.125 15.946,2.94642857 15.9906667,2.8125 C16.1693333,2.14285714 16.1246667,1.42857143 15.9013334,0.848214285 C15.41,1.29464285 15.0526667,1.875 14.874,2.54464286 C14.8293334,2.63392857 14.8293334,2.76785714 14.8293334,2.85714286 C14.606,2.54464286 14.1593334,1.875 13.802,1.96428572 C13.3106666,2.09821429 13.3106666,3.125 13.3106666,3.125 C13.3106666,3.125 13.802,2.76785714 14.204,3.125 C14.5166667,3.39285714 14.5166667,3.92857143 14.472,4.10714286 C14.2486667,4.19642857 14.07,4.41964286 14.0253334,4.6875 C13.9806666,4.86607143 13.9806666,5 14.0253334,5.13392855 L14.0253334,5.17857145 C13.7573333,5.4017857 13.266,5.66964285 12.73,5.66964285 C12.3726666,5.66964285 12.1046667,5.5357143 11.8813334,5.3125 C11.6133333,5.04464285 11.4346667,4.64285714 11.3006667,4.19642857 L11.3006667,4.15178571 C11.1666666,3.61607143 11.122,2.8125 11.122,2.8125 C11.122,2.8125 11.4793333,2.67857143 11.926,2.99107143 C11.926,2.99107143 11.9706667,2.99107143 11.9706667,3.03571429 C12.5066666,3.4375 12.5066666,3.92857143 12.7746667,3.92857143 C12.998,3.92857143 12.9533333,3.16964286 12.998,2.63392857 C13.0426667,1.91964285 13.2213334,1.51785715 13.2213334,1.51785715 C13.266,1.47321429 13.2213334,1.33928571 13.132,1.33928571 C12.998,1.16071429 12.9533333,1.29464285 12.9533333,1.29464285 C12.9533333,1.29464285 12.9533333,1.65178572 12.2833333,1.96428572 C12.194,2.00892857 12.1493333,2.00892857 12.06,2.05357143 C11.658,2.14285714 11.3006667,2.00892857 11.3006667,2.00892857 C11.3006667,2.00892857 11.122,1.47321429 11.6133333,0.9375 C11.658,0.892857145 11.7473333,0.80357143 11.8366666,0.75892857 C11.9706667,0.669642855 12.1493333,0.580357145 12.328,0.535714285 C12.5066666,0.491071429 12.6853334,0.446428571 12.8193334,0.446428571 L12.8193334,0.3125 C12.8193334,0.133928572 12.6853334,0.0446428571 12.5513334,0 C12.462,0 12.3726666,0.0446428571 12.2833333,0.0446428571 C12.0153334,0.0892857145 11.7473333,0.133928572 11.524,0.178571428 C11.256,0.223214285 10.988,0.223214285 10.6753334,0.223214285 C10.4073334,0.223214285 10.0946667,0.223214285 9.82666665,0.178571428 C9.55866665,0.133928572 9.29066665,0.0892857145 9.06733335,0.0446428571 C9.02266665,0.0446428571 8.93333335,1.23908819e-17 8.844,1.23908819e-17 C8.71,0.0446428571 8.576,0.178571428 8.576,0.3125 L8.576,0.446428571 C8.71,0.446428571 8.88866665,0.491071429 9.112,0.580357145 C9.29066665,0.625 9.42466665,0.714285715 9.60333335,0.80357143 C9.69266665,0.848214285 9.73733335,0.892857145 9.82666665,0.982142855 C10.3626666,1.51785715 10.184,2.05357143 10.184,2.05357143 C10.184,2.05357143 9.782,2.14285714 9.38,2.05357143 C9.29066665,2.05357143 9.246,2.00892857 9.15666665,1.96428572 C8.48666665,1.65178572 8.442,1.29464285 8.442,1.29464285 C8.442,1.29464285 8.39733335,1.16071429 8.26333335,1.20535715 C8.174,1.25 8.174,1.33928571 8.174,1.38392857 C8.174,1.38392857 8.35266665,1.74107143 8.39733335,2.5 C8.442,3.03571429 8.39733335,3.79464286 8.62066665,3.79464286 C8.88866665,3.79464286 8.88866665,3.30357143 9.42466665,2.90178571 C9.42466665,2.90178571 9.46933335,2.90178571 9.46933335,2.85714286 C9.916,2.58928571 10.318,2.67857143 10.318,2.67857143 C10.318,2.67857143 10.2733333,3.52678572 10.0946667,4.01785714 L10.0946667,4.0625 C9.96066665,4.50892857 9.782,4.91071429 9.514,5.17857145 C9.29066665,5.4017857 9.02266665,5.5357143 8.66533335,5.5357143 C8.12933335,5.5357143 7.68266665,5.26785715 7.37,5.04464285 L7.37,5 C7.41466665,4.86607143 7.41466665,4.6875 7.37,4.55357143 C7.32533335,4.28571429 7.14666665,4.10714286 6.92333335,3.97321429 C6.87866665,3.75 6.87866665,3.25892857 7.19133335,2.99107143 C7.638,2.63392857 8.08466665,2.99107143 8.08466665,2.99107143 C8.08466665,2.99107143 8.08466665,1.96428572 7.59333335,1.83035714 C7.28066665,1.74107143 6.78933335,2.41071429 6.566,2.72321429 C6.566,2.63392857 6.52133335,2.5 6.52133335,2.41071429 C6.34266665,1.74107143 5.98533335,1.16071429 5.494,0.714285715 C5.27066665,1.33928571 5.226,2.00892857 5.40466665,2.67857143 C5.44933335,2.8125 5.494,2.99107143 5.53866665,3.125 C5.27066665,3.03571429 4.46666666,2.63392857 4.19866667,2.85714286 C3.79666667,3.21428572 4.33266666,4.15178571 4.33266666,4.15178571 C4.33266666,4.15178571 4.60066667,3.57142857 5.18133335,3.66071429 C5.53866665,3.70535715 5.762,4.0625 5.85133335,4.28571429 C5.71733335,4.46428571 5.67266665,4.73214286 5.762,4.95535714 C5.80666665,5.13392855 5.896,5.26785715 5.98533335,5.35714285 L6.03,5.4017857 C5.98533335,5.58035715 5.896,5.80357145 5.762,5.98214285 C5.58333335,6.1607143 5.31533335,6.20535715 5.00266665,6.1607143 C4.556,6.11607145 4.06466667,5.89285715 3.57333334,5.625 C2.68,5.17857145 2.50133333,4.6875 2.76933333,4.41964286 C3.082,4.15178571 3.43933334,4.41964286 3.66266667,4.55357143 C3.886,4.6875 4.10933333,4.91071429 4.24333333,4.82142857 C4.37733334,4.6875 3.97533334,4.33035714 3.79666667,3.75 C3.57333334,3.16964286 3.886,2.36607143 3.57333334,2.32142857 C3.26066667,2.27678571 3.35,2.94642857 3.17133333,3.39285714 C2.99266666,3.83928572 2.50133333,4.01785714 2.23333334,3.97321429 C2.01,3.88392857 1.742,3.52678572 1.83133333,2.90178571 C1.92066667,2.58928571 2.05466667,2.32142857 2.23333334,2.05357143 C2.32266666,1.91964285 2.412,1.83035714 2.50133333,1.69642857 C2.50133333,1.51785715 2.36733334,1.38392857 2.18866666,1.38392857 C2.144,1.38392857 2.05466667,1.38392857 2.01,1.42857143 C1.96533333,1.42857143 1.96533333,1.47321429 1.96533333,1.47321429 C1.78666667,1.65178572 1.65266666,1.83035714 1.42933333,1.91964285 C1.072,2.14285714 0.580666665,2.36607143 0.580666665,2.36607143 L3.03733334,6.60714285 L3.70733333,7.7232143 L3.70733333,8.30357145 L3.03733334,8.30357145 C3.03733334,8.2142857 2.99266666,8.125 2.948,8.0357143 C2.72466666,7.5 2.23333334,7.14285715 1.608,7.14285715 C0.804,7.14285715 0.178666666,7.76785715 0.178666666,8.57142855 C0.178666666,8.88392855 0.268,9.1517857 0.446666666,9.375 C0.67,9.6875 0.982666665,9.9107143 1.34,9.95535715 L1.34,10.4017857 L1.29533334,10.4017857 C0.759333335,10.4017857 0.312666667,10.8482143 0.312666667,11.3839286 L0.312666667,12.8571429 C0.312666667,13.3928571 0.759333335,13.8392857 1.29533334,13.8392857 L1.34,13.8392857 L1.34,14.2410714 L1.29533334,14.2410714 C0.759333335,14.2410714 0.312666667,14.6875 0.312666667,15.2232143 L0.312666667,16.6964286 C0.312666667,17.2321428 0.759333335,17.6785714 1.29533334,17.6785714 L1.34,17.6785714 L1.34,18.0803572 L1.29533334,18.0803572 C0.759333335,18.0803572 0.312666667,18.5267857 0.312666667,19.0625 L0.312666667,20.5357143 C0.312666667,21.0714286 0.759333335,21.5178572 1.29533334,21.5178572 L1.34,21.5178572 L1.34,21.9642857 C0.67,22.0982143 0.178666666,22.6785714 0.178666666,23.3928572 C0.178666666,24.1964286 0.804,24.8214286 1.608,24.8214286 C2.412,24.8214286 3.03733334,24.1964286 3.03733334,23.3928572 C3.03733334,22.6785714 2.546,22.0982143 1.876,21.9642857 L1.876,21.5178572 L1.92066667,21.5178572 C2.45666667,21.5178572 2.90333333,21.0714286 2.90333333,20.5357143 L2.90333333,19.0625 C2.90333333,18.5267857 2.45666667,18.0803572 1.92066667,18.0803572 L1.92066667,17.6785714 L1.96533333,17.6785714 C2.50133333,17.6785714 2.948,17.2321428 2.948,16.6964286 L2.948,15.2232143 C2.948,14.6875 2.50133333,14.2410714 1.96533333,14.2410714 L1.92066667,14.2410714 L1.92066667,13.8392857 L1.96533333,13.8392857 C2.50133333,13.8392857 2.948,13.3928571 2.948,12.8571429 L2.948,11.3839286 C2.948,10.8482143 2.50133333,10.4017857 1.96533333,10.4017857 L1.92066667,10.4017857 L1.92066667,9.95535715 C2.50133333,9.82142855 2.948,9.375 3.03733334,8.8392857 L3.752,8.8392857 L3.752,23.7053572 L4.422,23.7053572 L5.092,22.0982143 L5.628,20.8482143 L5.092,20.8482143 L5.092,18.8392857 L6.968,18.8392857 L6.968,20.8482143 L6.432,20.8482143 L6.968,22.1428572 L7.59333335,23.6160714 L8.21866665,22.0982143 L8.75466665,20.8482143 L8.21866665,20.8482143 L8.21866665,18.8392857 L10.0946667,18.8392857 L10.0946667,20.8482143 L9.55866665,20.8482143 L10.0946667,22.1428572 L10.72,23.6160714 L11.3453334,22.0982143 L11.8813334,20.8035714 L11.3453334,20.8035714 L11.3453334,18.7946428 L13.2213334,18.7946428 L13.2213334,20.8035714 L12.6853334,20.8035714 L13.2213334,22.0982143 L13.8466666,23.5714286 L14.472,22.0535714 L15.008,20.8035714 L14.472,20.8035714 L14.472,18.7946428 L16.348,18.7946428 L16.348,20.8035714 L15.812,20.8035714 L16.348,22.0982143 L17.018,23.6607143 L17.688,23.6607143 L17.688,8.92857145 L18.4026667,8.92857145 C18.5366667,9.50892855 18.9833333,9.95535715 19.5193334,10.0446429 L19.5193334,10.4910714 L19.4746666,10.4910714 C18.9386666,10.4910714 18.492,10.9375 18.492,11.4732143 L18.492,12.9910714 C18.492,13.5267857 18.9386666,13.9732143 19.4746666,13.9732143 L19.5193334,13.9732143 L19.5193334,14.375 L19.4746666,14.375 C18.9386666,14.375 18.492,14.8214286 18.492,15.3571429 L18.492,16.8303572 C18.492,17.3660714 18.9386666,17.8125 19.4746666,17.8125 L19.5193334,17.8125 L19.5193334,18.2142857 L19.4746666,18.2142857 C18.9386666,18.2142857 18.492,18.6607143 18.492,19.1964286 L18.492,20.6696428 C18.492,21.2053572 18.9386666,21.6517857 19.4746666,21.6517857 L19.5193334,21.6517857 L19.5193334,22.0982143 C18.8493333,22.2321428 18.358,22.8125 18.358,23.5267857 C18.358,24.3303572 18.9833333,24.9553572 19.7873334,24.9553572 C20.5913333,24.9553572 21.2166667,24.3303572 21.2166667,23.5267857 C21.2613334,22.8571428 20.77,22.2767857 20.1,22.1428572 Z M2.50133333,23.5714286 C2.50133333,24.0625 2.09933333,24.4196428 1.65266667,24.4196428 C1.16133334,24.4196428 0.804,24.0178572 0.804,23.5714286 C0.804,23.2142857 1.02733334,22.8571428 1.38466666,22.7678572 L1.38466666,22.9910714 C1.38466666,23.125 1.51866667,23.2589286 1.65266667,23.2589286 C1.78666667,23.2589286 1.92066667,23.125 1.92066667,22.9910714 L1.92066667,22.7678572 C2.23333334,22.8571428 2.50133333,23.1696428 2.50133333,23.5714286 Z M1.96533333,18.8392857 C2.09933333,18.8392857 2.18866666,18.8839285 2.278,18.9732143 C2.36733334,19.0625 2.36733334,19.1517857 2.36733334,19.2410714 L2.36733334,20.7142857 C2.36733334,20.8035714 2.32266666,20.9375 2.278,20.9821428 C2.18866666,21.0714285 2.09933333,21.1160714 1.96533333,21.1160714 L1.92066666,21.1160714 L1.92066666,20.8482143 C1.92066666,20.7142857 1.83133334,20.5803571 1.65266666,20.5803571 L1.56333334,20.5803571 C1.42933333,20.5803571 1.29533334,20.7142857 1.29533334,20.8482143 L1.29533334,21.1160714 L1.25066667,21.1160714 C1.11666666,21.1160714 1.02733334,21.0714285 0.938,20.9821428 C0.938,20.8928571 0.893333335,20.8035714 0.893333335,20.7142857 L0.893333335,19.2410714 C0.893333335,19.1517857 0.938,19.0625 0.982666665,18.9732143 C1.072,18.8839285 1.16133333,18.8392857 1.29533334,18.8392857 L1.34,18.8392857 L1.34,19.1071428 C1.34,19.2410714 1.474,19.375 1.608,19.375 L1.69733333,19.375 C1.83133334,19.375 1.92066666,19.2410714 1.92066666,19.1071428 L1.96533333,18.8392857 C1.92066666,18.8392857 1.92066666,18.8392857 1.96533333,18.8392857 Z M1.96533333,14.9553572 C2.09933333,14.9553572 2.18866666,15 2.278,15.0892857 C2.36733334,15.1785715 2.36733334,15.2678572 2.36733334,15.3571429 L2.36733334,16.8303572 C2.36733334,16.9196429 2.32266666,17.0535714 2.278,17.0982143 C2.18866666,17.1875 2.09933333,17.2321429 1.96533333,17.2321429 L1.92066666,17.2321429 L1.92066666,16.9642857 C1.92066666,16.8303572 1.83133334,16.6964286 1.65266666,16.6964286 L1.56333334,16.6964286 C1.42933333,16.6964286 1.34,16.8303572 1.34,16.9642857 L1.34,17.2321429 L1.29533334,17.2321429 C1.16133333,17.2321429 1.072,17.1875 0.982666665,17.0982143 C0.938,17.0535714 0.893333335,16.9642857 0.893333335,16.8303572 L0.893333335,15.3571429 C0.893333335,15.2678572 0.938,15.1785715 0.982666665,15.0892857 C1.072,15 1.16133333,14.9553572 1.29533334,14.9553572 L1.34,14.9553572 L1.34,15.2232143 C1.34,15.3571429 1.474,15.4910715 1.608,15.4910715 L1.69733333,15.4910715 C1.83133334,15.4910715 1.92066666,15.3571429 1.92066666,15.2232143 L1.96533333,14.9553572 C1.92066666,14.9553572 1.92066666,14.9553572 1.96533333,14.9553572 L1.96533333,14.9553572 Z M1.96533333,11.1160714 C2.09933333,11.1160714 2.18866666,11.1607143 2.278,11.25 C2.36733334,11.3392857 2.36733334,11.4285714 2.36733334,11.5178571 L2.36733334,12.9910714 C2.36733334,13.0803571 2.32266666,13.2142857 2.278,13.2589286 C2.144,13.3482143 2.05466667,13.3928571 1.96533333,13.3928571 L1.92066666,13.3928571 L1.92066666,13.125 C1.92066666,12.9910714 1.83133334,12.8571429 1.65266666,12.8571429 L1.56333334,12.8571429 C1.42933333,12.8125 1.34,12.9464286 1.34,13.0803571 L1.34,13.3928571 L1.29533334,13.3928571 C1.16133333,13.3928571 1.072,13.3482143 0.982666665,13.2589286 C0.938,13.1696429 0.893333335,13.0803571 0.893333335,12.9910714 L0.893333335,11.5178571 C0.893333335,11.4285714 0.938,11.3392857 0.982666665,11.25 C1.072,11.1607143 1.16133333,11.1160714 1.29533334,11.1160714 L1.34,11.1160714 L1.34,11.3839286 C1.34,11.5178571 1.474,11.6517857 1.608,11.6517857 L1.69733333,11.6517857 C1.83133334,11.6517857 1.92066666,11.5178571 1.92066666,11.3839286 L1.96533333,11.1160714 C1.92066666,11.1160714 1.92066666,11.1160714 1.96533333,11.1160714 L1.96533333,11.1160714 Z M1.92066666,9.4642857 L1.92066666,9.24107145 C1.92066666,9.0625 1.78666667,8.92857145 1.608,8.92857145 C1.474,8.92857145 1.34,9.0625 1.34,9.24107145 L1.34,9.4642857 C1.16133334,9.41964285 1.02733334,9.2857143 0.938,9.1517857 C0.848666665,9.01785715 0.759333335,8.8392857 0.759333335,8.61607145 C0.759333335,8.125 1.16133334,7.76785715 1.608,7.76785715 C1.96533334,7.76785715 2.278,7.99107145 2.412,8.30357145 L2.412,8.3482143 L2.18866666,8.3482143 C2.01,8.3482143 1.92066666,8.4375 1.876,8.61607145 L1.876,8.6607143 C1.876,8.8392857 2.01,8.92857145 2.18866666,8.92857145 L2.45666667,8.92857145 C2.36733334,9.19642855 2.144,9.375 1.92066666,9.4642857 L1.92066666,9.4642857 Z M6.968,17.5892857 L5.092,17.5892857 L5.092,15.625 L6.968,15.625 L6.968,17.5892857 Z M6.968,14.375 L5.092,14.375 L5.092,12.3660714 L6.968,12.3660714 L6.968,14.375 Z M6.968,11.1607143 L5.092,11.1607143 L5.092,9.1517857 L6.968,9.1517857 L6.968,11.1607143 L6.968,11.1607143 Z M10.0946667,17.5892857 L8.21866665,17.5892857 L8.21866665,15.625 L10.0946667,15.625 L10.0946667,17.5892857 Z M10.0946667,14.375 L8.21866665,14.375 L8.21866665,12.3660714 L10.0946667,12.3660714 L10.0946667,14.375 Z M10.0946667,11.1607143 L8.21866665,11.1607143 L8.21866665,9.1517857 L10.0946667,9.1517857 L10.0946667,11.1607143 L10.0946667,11.1607143 Z M13.2213334,17.5892857 L11.3453334,17.5892857 L11.3453334,15.625 L13.2213334,15.625 L13.2213334,17.5892857 Z M13.2213334,14.375 L11.3453334,14.375 L11.3453334,12.3660714 L13.2213334,12.3660714 L13.2213334,14.375 Z M13.2213334,11.1607143 L11.3453334,11.1607143 L11.3453334,9.1517857 L13.2213334,9.1517857 L13.2213334,11.1607143 L13.2213334,11.1607143 Z M16.348,17.5892857 L14.472,17.5892857 L14.472,15.625 L16.348,15.625 L16.348,17.5892857 Z M16.348,14.375 L14.472,14.375 L14.472,12.3660714 L16.348,12.3660714 L16.348,14.375 Z M16.348,11.1607143 L14.472,11.1607143 L14.472,9.1517857 L16.348,9.1517857 L16.348,11.1607143 L16.348,11.1607143 Z M14.472,7.76785715 L5.092,7.76785715 L5.092,7.2767857 C5.71733335,7.0982143 6.34266665,6.91964285 6.968,6.7857143 C8.174,6.51785715 9.42466665,6.42857145 10.72,6.42857145 C12.0153334,6.42857145 13.266,6.5625 14.472,6.7857143 C15.0973334,6.91964285 15.7226667,7.0982143 16.348,7.2767857 L16.348,7.76785715 L14.472,7.76785715 Z M18.9833333,8.92857145 L19.2513333,8.92857145 C19.43,8.92857145 19.564,8.79464285 19.564,8.6607143 L19.564,8.61607145 C19.564,8.48214285 19.43,8.3482143 19.2513333,8.3482143 L18.9833333,8.3482143 L18.9833333,8.30357145 C19.1173333,7.99107145 19.43,7.76785715 19.7873334,7.76785715 C20.2786667,7.76785715 20.636,8.16964285 20.636,8.61607145 C20.636,8.79464285 20.5913333,8.9732143 20.4573333,9.1517857 C20.368,9.2857143 20.234,9.375 20.0553334,9.4642857 L20.0553334,9.24107145 C20.0553334,9.0625 19.9213334,8.9732143 19.7873334,8.9732143 C19.6086666,8.9732143 19.5193334,9.10714285 19.5193334,9.24107145 L19.5193334,9.4642857 C19.296,9.375 19.0726666,9.19642855 18.9833333,8.92857145 L18.9833333,8.92857145 Z M19.4746666,13.3928571 C19.3406666,13.3928571 19.2513333,13.3482143 19.162,13.2589286 C19.0726666,13.1696429 19.0726666,13.0803571 19.0726666,12.9910714 L19.0726666,11.5178571 C19.0726666,11.4285714 19.1173333,11.2946429 19.162,11.25 C19.2513333,11.1607143 19.3406666,11.1160714 19.4746666,11.1160714 L19.5193333,11.1160714 L19.5193333,11.3839286 C19.5193333,11.5178571 19.6086666,11.6517857 19.7426666,11.6517857 L19.832,11.6517857 C19.966,11.6517857 20.0553333,11.5178571 20.1,11.3839286 L20.1,11.1160714 L20.1446666,11.1160714 C20.2786666,11.1160714 20.368,11.1607143 20.4573333,11.25 C20.502,11.3392857 20.5466666,11.4285714 20.5466666,11.5178571 L20.5466666,12.9910714 C20.5466666,13.0803571 20.502,13.1696429 20.4573333,13.2589286 C20.368,13.3482143 20.2786666,13.3928571 20.1446666,13.3928571 L20.1,13.3928571 L20.1,13.125 C20.1,12.9910714 20.0106666,12.8571429 19.832,12.8571429 L19.7426666,12.8571429 C19.6086666,12.8571429 19.4746666,12.9910714 19.4746666,13.125 L19.4746666,13.3928571 L19.4746666,13.3928571 Z M19.4746666,17.2321429 C19.3406666,17.2321429 19.2513333,17.1875 19.162,17.0982143 C19.0726666,17.0089286 19.0726666,16.9196429 19.0726666,16.8303572 L19.0726666,15.3571429 C19.0726666,15.2678572 19.1173333,15.1339286 19.162,15.0892857 C19.2513333,15 19.3406666,14.9553572 19.4746666,14.9553572 L19.5193333,14.9553572 L19.5193333,15.2232143 C19.5193333,15.3571429 19.6086666,15.4910715 19.7426666,15.4910715 L19.832,15.4910715 C19.966,15.4910715 20.0553333,15.3571429 20.1,15.2232143 L20.1,14.9553572 L20.1446666,14.9553572 C20.2786666,14.9553572 20.368,15 20.4573333,15.0892857 C20.502,15.1785715 20.5466666,15.2678572 20.5466666,15.3571429 L20.5466666,16.8303572 C20.5466666,16.9196429 20.502,17.0089286 20.4573333,17.0982143 C20.368,17.1875 20.2786666,17.2321429 20.1446666,17.2321429 L20.1,17.2321429 L20.1,16.9642857 C20.1,16.8303572 20.0106666,16.6964286 19.832,16.6964286 L19.7426666,16.6964286 C19.6086666,16.6964286 19.4746666,16.8303572 19.4746666,16.9642857 L19.4746666,17.2321429 L19.4746666,17.2321429 Z M19.4746666,21.1160714 C19.3406666,21.1160714 19.2513333,21.0714285 19.162,20.9821428 C19.0726666,20.8928571 19.0726666,20.8035714 19.0726666,20.7142857 L19.0726666,19.2410714 C19.0726666,19.1517857 19.1173333,19.0178571 19.162,18.9732143 C19.2513333,18.8839285 19.3406666,18.8392857 19.4746666,18.8392857 L19.5193333,18.8392857 L19.5193333,19.1071428 C19.5193333,19.2410714 19.6086666,19.375 19.7426666,19.375 L19.832,19.375 C19.966,19.375 20.0553333,19.2410714 20.1,19.1071428 L20.1,18.8392857 L20.1446666,18.8392857 C20.2786666,18.8392857 20.368,18.8839285 20.4573333,18.9732143 C20.502,19.0625 20.5466666,19.1517857 20.5466666,19.2410714 L20.5466666,20.7142857 C20.5466666,20.8035714 20.502,20.8928571 20.4573333,20.9821428 C20.368,21.0714285 20.2786666,21.1160714 20.1446666,21.1160714 L20.1,21.1160714 L20.1,20.8482143 C20.1,20.7142857 20.0106666,20.5803571 19.832,20.5803571 L19.7426666,20.5803571 C19.6086666,20.5803571 19.4746666,20.7142857 19.4746666,20.8482143 L19.4746666,21.1160714 L19.4746666,21.1160714 Z M19.832,24.4196428 C19.3406667,24.4196428 18.9833334,24.0178572 18.9833334,23.5714286 C18.9833334,23.2142857 19.2066667,22.8571428 19.564,22.7678572 L19.564,22.9910714 C19.564,23.125 19.698,23.2589286 19.832,23.2589286 C19.966,23.2589286 20.1,23.125 20.1,22.9910714 L20.1,22.7678572 C20.4573334,22.9017857 20.6806667,23.2142857 20.6806667,23.5714286 C20.6806667,24.0178572 20.2786667,24.4196428 19.832,24.4196428 Z" id="Shape"></path>
                </g>
            </g>
        </g>
    </g>
</svg>
