<svg xmlns="http://www.w3.org/2000/svg" xmlns:xlink="http://www.w3.org/1999/xlink" width="96" height="96">
  <defs>
    <path id="a" d="M0 0h96v96H0z"/>
  </defs>
  <g fill="none" fill-rule="evenodd">
    <mask id="b" fill="#fff">
      <use xlink:href="#a"/>
    </mask>
    <use fill="#F8F7F7" xlink:href="#a"/>
    <path fill="#EBE9E8" d="M172.80952-3.0607863l-1.798733.92930214c2.169411 4.18071968 2.652489 9.03918173 1.349049 13.56781116-2.235937-1.69446332-3.816107-4.11587069-4.47038-6.85028431l-1.798733.92930214c-1.446514 5.48531337-3.759533 10.70246587-6.851057 15.45296697l.502587 1.9382587c1.866565-.9598677 3.933782-1.460415 6.031046-1.4603319.718045.0034695 1.434616.0656285 2.142609.1858604-1.838106 4.3824576-6.043045 7.2957394-10.77716 7.466672-4.734115.1709327-9.13672-2.4315601-11.283772-6.6701273 1.476975-.6970889 2.550729-2.0394321 2.909715-3.6375541.502587-2.3099796-.95227-3.3985907-.449683-5.7351217.462307-2.0109996 2.282436-3.40896911 4.337082-3.33114353 2.054647.07782557 3.764637 1.60950833 4.07464 3.64976133 1.83567-1.0801809 2.881663-3.1300235 2.682274-5.25648253-.199388-2.12645898-1.608046-3.94440475-3.612269-4.66182147-2.004223-.71741672-4.241021-.20437082-5.735898 1.31562142.791034-1.18646135 1.356073-2.50984661 1.666473-3.90306896.686507-3.35109389-.104405-6.83645399-2.16906-9.55853625-3.121963 1.60936919-5.370332 4.52768285-6.136854 7.96544687-.305521 1.39567428-.350367 2.83613912-.13226 4.24823833-.740429-1.98688443-2.553903-3.36868039-4.659524-3.5503727-2.10562-.1816923-4.127436.86915953-5.194832 2.7000482-1.067396 1.83088867-.989793 4.11491564.199392 5.86855603 1.115634-1.71805605 3.284471-2.40659636 5.181444-1.64495203 1.896973.76164432 2.994435 2.76162039 2.621883 4.77802779-.502587 2.3099796-2.30132 2.655149-2.803907 5.0182315-.275892 1.3092378-.049158 2.6747614.634847 3.8234145l.290971.4513754c-4.246444 3.3243664-10.004591 3.9414261-14.854521 1.5918535-4.84993-2.3495726-7.951006-7.2585268-7.999969-12.66382469v-1.2744715c4.369074.69754971 8.366342 2.88182079 11.321437 6.18649709l1.507762-1.5134349V-3.72457354l-1.534214-1.53998639C125.047597-1.97499885 121.060982.19918092 116.70492.89538565c-.013706-6.05473241 4.055648-11.35169155 9.893031-12.87747245l-1.560665-1.5665379C120.840242-13.8495416 116.607929-14 112.340347-14c-4.267583 0-8.499896.1504584-12.6969393.4513753l-1.5606655 1.5665379c5.8278408 1.523303 9.8946748 6.80606722 9.8930318 12.85092096-4.356063-.69620474-8.3426774-2.8703845-11.2949855-6.15994558L95.146575-3.75112503V13.2418283l1.5077616 1.5134349c2.9550947-3.3046762 6.9523634-5.48894736 11.3214374-6.18649707v1.32757448c-.002054 5.40953379-3.064904 10.34835179-7.899712 12.73821489-4.8348086 2.3898632-10.6022574 1.815894-14.8754227-1.4803833l.2380676-.4779268c.6907376-1.1559359.9176921-2.5322791.634847-3.849966-.5025872-2.3099796-2.3013202-2.655149-2.8039074-5.0182315-.4413382-2.02871035.6242345-4.08427259 2.5326777-4.8857072 1.9084432-.80143462 4.1148329-.1199055 5.2441975 1.61987394 1.1891851-1.75364039 1.2667878-4.03766736.1993917-5.86855603-1.0673961-1.83088866-3.0892113-2.8817405-5.1948318-2.7000482-2.1056205.18169231-3.9190953 1.56348827-4.659524 3.5503727.2094228-1.41373853.1556074-2.85421402-.1587118-4.24823833-.7665221-3.43776402-3.0148912-6.35607768-6.1368539-7.96544687-2.1620112 2.7685238-2.9858845 6.35856093-2.2484163 9.79749965.3104002 1.39322236.8754392 2.71660762 1.6664733 3.90306897-1.4948774-1.51999224-3.7316751-2.03303814-5.7358982-1.31562142-2.0042231.71741672-3.4128805 2.53536248-3.612269 4.66182147-.1993885 2.12645902.8466037 4.17630162 2.6822741 5.25648252.3100031-2.040253 2.019993-3.5719357 4.0746397-3.64976133 2.0546466-.07782557 3.874775 1.32014393 4.3370825 3.33114353.5025872 2.3099796-.9522704 3.3985906-.4496833 5.7351217.3589864 1.598122 1.4327399 2.9404652 2.9097153 3.6375541-2.1898898 4.1543845-6.560417 6.6788719-11.2391654 6.4919241-4.6787484-.1869477-8.8355321-3.0521589-10.6895067-7.3681233.7079923-.1202319 1.4245634-.1823908 2.1426085-.1858604 2.0972638-.0000831 4.1644813.5004642 6.0310461 1.4603319l.5025872-1.9382587c-3.14305-4.7582802-5.5010912-9.994181-6.9833166-15.50606991l-1.6929252-1.0355081c-.6542729 2.73441362-2.2344428 5.15582099-4.4703807 6.85028431-1.3034397-4.52862943-.820362-9.38709148 1.3490498-13.56781116l-1.798733-.92930214c-3.1477829 1.08861107-7.4065479 2.8144579-10.5807827 4.19513535L59.4364336 42.0501945c33.6421547-14.991079 72.0334124-14.991079 105.6755664 0l18.198946-40.91584545c-3.094878-1.38067746-7.353643-3.10652428-10.501426-4.19513535z" mask="url(#b)"/>
    <path fill="#EBE9E8" fill-rule="nonzero" d="M189.547664 73.6254886c.149805-4.9027293-3.173492-9.2281527-7.935587-10.3285295v-5.8944307c5.253233-1.2590456 8.718583-6.2874 8.03949-11.6656039-.679092-5.3782039-5.284631-9.3797829-10.684686-9.2835213-4.887752-.1609328-9.202873 3.1794464-10.289811 7.9654468H56.9969089c-1.0962518-4.7800142-5.4054606-8.1158163-10.2898111-7.9654468-2.8303198-.0815389-5.5690398 1.0112086-7.5712023 3.0209048-2.0021625 2.0096961-3.0908136 4.7587213-3.0095804 7.599691-.1498057 4.9027292 3.1734915 9.2281526 7.935587 10.3285294v5.9209822C39.3286451 64.4880386 36 68.7470606 36 73.6387643s3.3286451 9.1507257 8.0619021 10.3152537v5.9209822C39.3286451 91.0395281 36 95.2985502 36 100.190254c0 4.891704 3.3286451 9.150726 8.0619021 10.315254v5.920982C39.3286451 117.591018 36 121.85004 36 126.741743c0 4.891704 3.3286451 9.150726 8.0619021 10.315254v5.920982c-5.1962093 1.306636-8.599777 6.305148-7.925391 11.639306.674386 5.334158 5.2139359 9.320867 10.5705867 9.283268 5.4000548.096262 10.0055936-3.905317 10.6846864-9.283521.6790929-5.378204-2.7862578-10.406559-8.0394908-11.665604v-5.894431c4.733257-1.164528 8.0619022-5.42355 8.0619022-10.315254 0-4.891703-3.3286452-9.150725-8.0619022-10.315253v-5.920982c4.733257-1.164528 8.0619022-5.42355 8.0619022-10.315254 0-4.8917038-3.3286452-9.1507259-8.0619022-10.3152538V83.954018c4.733257-1.164528 8.0619022-5.42355 8.0619022-10.3152537s-3.3286452-9.1507257-8.0619022-10.3152537v-5.9209822c3.8117481-.8593671 6.7884699-3.8472896 7.6446155-7.6733805h5.5813629V163.900553h1.21679c2.6994729-8.135617 6.7606905-15.749871 12.0091883-22.515663v-1.380678h-5.2903914v-15.930893h13.2259784v15.930893h-2.6451957v1.460332c3.5211444 7.08628 6.0152109 14.641339 7.4065479 22.436009h1.0316263c1.3997193-7.796035 3.9027114-15.351148 7.4329998-22.436009v-1.460332h-2.6451957v-15.930893h13.2259783v15.930893h-2.645196v1.460332c3.521145 7.08628 6.015211 14.641339 7.406548 22.436009h1.031627c1.399719-7.796035 3.902711-15.351148 7.432999-22.436009v-1.460332h-2.645195v-15.930893h13.225978v15.930893h-2.645196v1.460332c3.521145 7.08628 6.015211 14.641339 7.406548 22.436009h1.031626c1.39972-7.796035 3.902712-15.351148 7.433-22.436009v-1.460332h-2.645195v-15.930893h13.225978v15.930893h-5.290391v1.380678c5.248497 6.765792 9.309715 14.380046 12.009188 22.515663h1.21679V49.7291479h5.581363c.850217 3.8293633 3.829607 6.8199645 7.644615 7.6733805v5.9209822c-4.733257 1.164528-8.061902 5.42355-8.061902 10.3152537s3.328645 9.1507257 8.061902 10.3152537v5.9209822c-4.733257 1.1645279-8.061902 5.42355-8.061902 10.3152538 0 4.891704 3.328645 9.150726 8.061902 10.315254v5.920982c-4.733257 1.164528-8.061902 5.42355-8.061902 10.315253 0 4.891704 3.328645 9.150726 8.061902 10.315254v5.920982c-5.158943 1.337046-8.522622 6.316033-7.851255 11.621589.671368 5.305555 5.168318 9.282355 10.496451 9.282355s9.825083-3.9768 10.496451-9.282355c.671367-5.305556-2.692313-10.284543-7.851255-11.621589v-5.920982c4.733257-1.164528 8.061902-5.42355 8.061902-10.315254 0-4.891703-3.328645-9.150725-8.061902-10.315253v-5.920982c4.733257-1.164528 8.061902-5.42355 8.061902-10.315254 0-4.8917038-3.328645-9.1507259-8.061902-10.3152538V83.954018c4.762095-1.1003768 8.085392-5.4258002 7.935587-10.3285294zM51.9974891 153.279957c.0858197 1.433055-.4439418 2.834382-1.4552882 3.849534-1.0113465 1.015152-2.4074203 1.546907-3.8351031 1.460764-2.4892041.115364-4.7211562-1.52848-5.3584532-3.946527-.6372971-2.418048.4928538-4.954683 2.7132575-6.089936.2770952 1.23505 1.384337 2.101948 2.6451957 2.071016 1.2608586.030932 2.3681004-.835966 2.6451956-2.071016 1.7265199.920716 2.7599458 2.767136 2.6451957 4.726165zm0-26.551489c.1147501 1.959029-.9186758 3.805449-2.6451957 4.726165-.2770952-1.23505-1.384337-2.101948-2.6451956-2.071016-1.2608587-.030932-2.3681005.835966-2.6451957 2.071016-1.6744719-.986973-2.7029218-2.79031-2.7029218-4.739441 0-1.949131 1.0284499-3.752468 2.7029218-4.739441.266217 1.245631 1.3763143 2.125908 2.6451957 2.097568 1.2608586.030931 2.3681004-.835967 2.6451956-2.071016 1.7265199.920715 2.7599458 2.767135 2.6451957 4.726165zm0-26.55149c.1147501 1.95903-.9186758 3.805449-2.6451957 4.726165-.2770952-1.235049-1.384337-2.101947-2.6451956-2.071016-1.2608587-.030931-2.3681005.835967-2.6451957 2.071016-1.6744719-.986973-2.7029218-2.790309-2.7029218-4.739441 0-1.9491308 1.0284499-3.7524673 2.7029218-4.7394405.266217 1.245631 1.3763143 2.1259078 2.6451957 2.0975677 1.2608586.0309315 2.3681004-.8359668 2.6451956-2.0710162 1.7265199.9207159 2.7599458 2.7671356 2.6451957 4.726165zm-2.6451957-48.3768139c-.2770952-1.2350494-1.384337-2.1019477-2.6451956-2.0710162-1.2608587-.0309315-2.3681005.8359668-2.6451957 2.0710162-2.2204037-1.1352524-3.3505546-3.6718882-2.7132575-6.0899356.637297-2.4180474 2.8692491-4.0618911 5.3584532-3.9465274 2.4892041-.1153637 4.7211561 1.52848 5.3584532 3.9465274.637297 2.4180474-.4928538 4.9546832-2.7132576 6.0899356zm34.3875437 64.3077079H70.5138587v-15.930894h13.2259784v15.930894zm0-23.8963407H70.5138587V76.2806375h13.2259784v15.9308938zm0-23.8963407H70.5138587V52.3842969h13.2259784v15.9308937zm23.8067609 47.7926814H94.3206197v-15.930894h13.2259783v15.930894zm0-23.8963407H94.3206197V76.2806375h13.2259783v15.9308938zm0-23.8963407H94.3206197V52.3842969h13.2259783v15.9308937zm23.806761 47.7926814h-13.225978v-15.930894h13.225978v15.930894zm0-23.8963407h-13.225978V76.2806375h13.225978v15.9308938zm0-23.8963407h-13.225978V52.3842969h13.225978v15.9308937zm23.806761 47.7926814h-13.225978v-15.930894h13.225978v15.930894zm0-23.8963407h-13.225978V76.2806375h13.225978v15.9308938zm0-23.8963407h-13.225978V52.3842969h13.225978v15.9308937zm18.51637-21.2411916c.061591-2.5599608 1.934465-4.7111906 4.453576-5.1154874 2.519111-.4042969 4.966872 1.0535059 5.820619 3.4665622.853748 2.4130564-.129714 5.0939903-2.338608 6.3750903 0-1.4663982-1.184295-2.6551489-2.645196-2.6551489-1.460901 0-2.645196 1.1887507-2.645196 2.6551489-1.72652-.9207159-2.759945-2.7671356-2.645195-4.7261651zm10.580782 106.205958c-.061591 2.559961-1.934466 4.711191-4.453576 5.115488-2.519111.404297-4.966872-1.053506-5.820619-3.466563-.853748-2.413056.129713-5.09399 2.338608-6.37509 0 1.466398 1.184295 2.655149 2.645196 2.655149 1.460901 0 2.645196-1.188751 2.645196-2.655149 1.726519.920716 2.759945 2.767136 2.645195 4.726165zm0-26.551489c.11475 1.959029-.918676 3.805449-2.645195 4.726165 0-1.466398-1.184295-2.655149-2.645196-2.655149-1.460901 0-2.645196 1.188751-2.645196 2.655149-1.674472-.986973-2.702922-2.79031-2.702922-4.739441 0-1.949131 1.02845-3.752468 2.702922-4.739441 0 1.466398 1.184295 2.655149 2.645196 2.655149 1.460901 0 2.645196-1.188751 2.645196-2.655149 1.735625.924777 2.770597 2.784348 2.645195 4.752717zm0-26.55149c.11475 1.95903-.918676 3.805449-2.645195 4.726165 0-1.466398-1.184295-2.655149-2.645196-2.655149-1.460901 0-2.645196 1.188751-2.645196 2.655149-1.674472-.986973-2.702922-2.790309-2.702922-4.739441 0-1.9491308 1.02845-3.7524673 2.702922-4.7394405 0 1.4663983 1.184295 2.6551489 2.645196 2.6551489 1.460901 0 2.645196-1.1887506 2.645196-2.6551489 1.735625.9247766 2.770597 2.7843477 2.645195 4.7527165zM51.9974891 73.6254886c.1147501 1.9590295-.9186758 3.8054492-2.6451957 4.7261651-.2770952-1.2350494-1.384337-2.1019477-2.6451956-2.0710162-1.2608587-.0309315-2.3681005.8359668-2.6451957 2.0710162-1.6744719-.9869732-2.7029218-2.7903097-2.7029218-4.7394409s1.0284499-3.7524677 2.7029218-4.7394409c.266217 1.245631 1.3763143 2.1259078 2.6451957 2.0975677 1.2608586.0309315 2.3681004-.8359668 2.6451956-2.0710162 1.7265199.9207159 2.7599458 2.7671356 2.6451957 4.7261652zm132.2597829 0c.11475 1.9590295-.918676 3.8054492-2.645195 4.7261651 0-1.4663983-1.184295-2.655149-2.645196-2.655149-1.460901 0-2.645196 1.1887507-2.645196 2.655149-1.674472-.9869732-2.702922-2.7903097-2.702922-4.7394409s1.02845-3.7524677 2.702922-4.7394409c0 1.4663983 1.184295 2.655149 2.645196 2.655149 1.460901 0 2.645196-1.1887507 2.645196-2.655149 1.735625.9247766 2.770597 2.7843478 2.645195 4.7527167z" mask="url(#b)"/>
  </g>
</svg>
