<?xml version="1.0" encoding="UTF-8"?>
<svg width="269px" height="68px" viewBox="0 0 269 68" version="1.1" xmlns="http://www.w3.org/2000/svg" xmlns:xlink="http://www.w3.org/1999/xlink">
    <!-- Generator: Sketch 44.1 (41455) - http://www.bohemiancoding.com/sketch -->
    <title>uk_parliament_logo</title>
    <desc>Created with Sketch.</desc>
    <defs></defs>
    <g id="Page-1" stroke="none" stroke-width="1" fill="none" fill-rule="evenodd">
        <g id="uk_parliament_logo" fill-rule="nonzero" fill="#FFFFFF">
            <path d="M96.34,5.7 L96.34,24.7 C96.34,32.15 90.96,34.6 85.15,34.6 C79.34,34.6 74,32.13 74,24.68 L74,5.7 L79.14,5.7 L79.14,23.29 C79.14,28.05 81.06,30.35 85.14,30.35 C89.22,30.35 91.19,28.04 91.19,23.35 L91.19,5.7 L96.34,5.7 Z M115.62,34 L107.16,21.85 L105.16,21.85 L105.16,34 L100,34 L100,5.7 L105.14,5.7 L105.14,17.43 L107.25,17.43 L115.14,5.7 L121.14,5.7 L111.58,19.44 L121.87,34 L115.62,34 Z M74,67 L74,38.71 L83.08,38.71 C90.14,38.71 93.17,41.98 93.17,47.71 C93.17,53.44 89.81,57.08 83.56,57.08 L79.14,57.08 L79.14,67 L74,67 Z M79.14,52.83 L83,52.83 C86.7,52.83 87.95,50.96 87.95,47.93 C87.95,44.66 86.27,42.98 82.95,42.98 L79.14,42.98 L79.14,52.83 Z M112.74,61.28 C112.74,62.87 113.46,63.28 114.37,63.28 C114.815108,63.2887804 115.257368,63.2071324 115.67,63.04 L115.67,66.83 C114.790047,67.2088906 113.837594,67.3898224 112.88,67.36 C110.24,67.36 108.61,66.26 108.08,63.81 C106.98,66.6 104.48,67.56 101.55,67.56 C97.66,67.56 94.97,65.3 94.97,61.51 C94.97,56.61 98.81,53.82 107.75,54.26 L107.75,51.76 C107.75,49.26 106.36,48.21 104.2,48.21 C103.24636,48.124954 102.302611,48.4570023 101.61232,49.1204486 C100.922029,49.783895 100.552827,50.7137378 100.6,51.67 L95.7,50.85 C96.04,46.14 100.12,44.27 104.54,44.27 C109.3,44.27 112.75,46.27 112.75,51.27 L112.74,61.28 Z M107.74,57.34 C102.27,57.2 100,58.5 100,61 C99.9794854,61.8220139 100.317509,62.6123059 100.926113,63.1652333 C101.534717,63.7181607 102.353717,63.9790446 103.17,63.88 C105.28,63.88 107.73,62.68 107.73,60.23 L107.74,57.34 Z M146.26,35.38 C147.131018,35.3174725 147.987825,35.6264175 148.618507,36.2304237 C149.249188,36.8344298 149.59485,37.6770939 149.57,38.55 C149.47405,40.2830868 148.040741,41.6392377 146.305,41.6392377 C144.569259,41.6392377 143.13595,40.2830868 143.04,38.55 C143.007892,37.6910145 143.338558,36.858135 143.951114,36.2550909 C144.56367,35.6520467 145.401622,35.3344545 146.26,35.38 Z M148.81,44.81 L148.81,67 L143.81,67 L143.81,44.81 L148.81,44.81 Z M169.49,61.28 C169.49,62.87 170.21,63.28 171.12,63.28 C171.565108,63.2887804 172.007368,63.2071324 172.42,63.04 L172.42,66.83 C171.540047,67.2088906 170.587594,67.3898224 169.63,67.36 C166.99,67.36 165.36,66.26 164.83,63.81 C163.73,66.6 161.23,67.56 158.3,67.56 C154.41,67.56 151.72,65.3 151.72,61.51 C151.72,56.61 155.56,53.82 164.5,54.26 L164.5,51.76 C164.5,49.26 163.11,48.21 160.95,48.21 C159.99636,48.124954 159.052611,48.4570023 158.36232,49.1204486 C157.672029,49.783895 157.302827,50.7137378 157.35,51.67 L152.45,50.85 C152.79,46.14 156.87,44.27 161.29,44.27 C166.05,44.27 169.5,46.27 169.5,51.27 L169.49,61.28 Z M164.49,57.34 C159.01,57.2 156.76,58.49 156.76,60.99 C156.739485,61.8120139 157.077509,62.6023059 157.686113,63.1552333 C158.294717,63.7081607 159.113717,63.9690446 159.93,63.87 C162.04,63.87 164.49,62.67 164.49,60.22 L164.49,57.34 Z M199.56,44.28 C203.26,44.28 206.04,46.28 206.04,51.05 L206.04,67 L201.04,67 L201.04,52.83 C201.04,50.19 200.04,48.56 197.63,48.56 C195.22,48.56 193,50.19 193,54.42 L193,67 L188,67 L188,52.83 C188,50.19 187,48.56 184.54,48.56 C182.08,48.56 180,50.19 180,54.46 L180,67 L175,67 L175,44.81 L179,44.81 L179.62,49.08 C180.515982,46.0776938 183.362694,44.0887248 186.49,44.28 C189.56,44.28 191.92,45.58 192.49,49.18 C193.66,45.67 196.44,44.28 199.56,44.28 L199.56,44.28 Z M224,60.23 L228.37,61.53 C227.37,66.05 223.57,67.58 219.29,67.58 C213.24,67.58 209.11,63.45 209.11,56.15 C209.11,48.66 213.11,44.29 219.48,44.29 C225.39,44.29 228.48,48.29 228.48,53.9 C228.478861,54.9119292 228.351204,55.9197457 228.1,56.9 L214,56.9 C214.19,60.9 216.07,63.67 219.52,63.67 C221.67795,63.8534717 223.620124,62.3621596 224,60.23 L224,60.23 Z M223.57,53.6 C223.593655,53.3138213 223.593655,53.0261787 223.57,52.74 C223.657344,51.5346038 223.233394,50.3480966 222.401952,49.4709917 C221.570509,48.5938868 220.408341,48.1071654 219.2,48.13 C216.27,48.13 214.4,50.2 214.06,53.61 L223.57,53.6 Z M236.42,49.08 C237.62,45.77 240.17,44.28 243.53,44.28 C247.08,44.28 250.21,46.28 250.21,51.2 L250.21,67 L245.21,67 L245.21,52.88 C245.21,50.24 244.15,48.56 241.61,48.56 C239.07,48.56 236.81,49.9 236.81,54.47 L236.81,67 L231.81,67 L231.81,44.81 L235.89,44.81 L236.42,49.08 Z M268.27,66.23 C266.465899,67.1772221 264.446479,67.6390007 262.41,67.57 C258.28,67.57 255.73,65.46 255.73,61.04 L255.73,48.75 L252.51,48.75 L252.51,44.81 L255.73,44.81 L256.88,38.72 L260.82,38.72 L260.82,44.81 L267.4,44.81 L267.4,48.75 L260.77,48.75 L260.77,60 C260.77,62.35 261.77,63.31 263.6,63.31 C264.959706,63.3052779 266.279122,62.8478806 267.35,62.01 L268.27,66.23 Z M123.08,50.86 L122.46,44.81 L118.19,44.81 L118.19,67 L123.19,67 L123.19,56.14 C123.19,51.72 126.19,49.66 129.19,49.66 L129.88,49.66 L129.88,44.38 C125.89,44.82 123.87,47.44 123.08,50.86 Z M139.54,63 C139.002376,63.0849885 138.455957,62.9135009 138.063306,62.5365559 C137.670655,62.1596109 137.477017,61.6206436 137.54,61.08 L137.54,36.18 L132.54,36.18 L132.54,62.29 C132.54,65.89 135.04,67.38 137.97,67.38 C138.992066,67.3665687 140.0052,67.1875817 140.97,66.85 L140.97,62.85 C140.503678,62.9721198 140.021512,63.0226967 139.54,63 L139.54,63 Z M52.86,4.12 L52.18,4.47 C53.0001328,6.04457068 53.1827574,7.87439722 52.69,9.58 C51.8447174,8.94181986 51.2473439,8.02985319 51,7 L50.32,7.35 C49.7731543,9.41591549 48.8987316,11.3808344 47.73,13.17 L47.92,13.9 C48.6256434,13.5384882 49.4071423,13.3499687 50.2,13.35 C50.4714525,13.3513067 50.7423478,13.3747174 51.01,13.42 C50.3151154,15.0705506 48.7254638,16.1677703 46.9357607,16.2321481 C45.1460576,16.2965259 43.4816798,15.3163576 42.67,13.72 C43.2283615,13.4574577 43.6342874,12.9518954 43.77,12.35 C43.96,11.48 43.41,11.07 43.6,10.19 C43.7747725,9.43260385 44.4628609,8.90609121 45.2396075,8.9354024 C46.016354,8.96471359 46.6628052,9.54158622 46.78,10.31 C47.4739639,9.90317499 47.8693949,9.13114953 47.7940173,8.3302683 C47.7186397,7.52938706 47.1861054,6.84470014 46.4284211,6.57450184 C45.6707369,6.30430355 44.8251292,6.49753033 44.26,7.07 C44.5590456,6.62314697 44.7726551,6.12472474 44.89,5.6 C45.1495297,4.33788856 44.8505304,3.02520887 44.07,2 C42.8897611,2.60613141 42.039779,3.70524627 41.75,5 C41.6344997,5.5256482 41.6175461,6.06816573 41.7,6.6 C41.4200855,5.85168626 40.7345124,5.33126501 39.9384955,5.26283483 C39.1424786,5.19440466 38.3781438,5.59018352 37.9746212,6.27974509 C37.5710987,6.96930665 37.6004359,7.8295322 38.05,8.49 C38.4717586,7.84293421 39.2916742,7.58361155 40.0088131,7.87046714 C40.7259521,8.15732273 41.1408409,8.91056712 41,9.67 C40.81,10.54 40.13,10.67 39.94,11.56 C39.8357009,12.0530939 39.9214163,12.5673866 40.18,13 L40.29,13.17 C38.6846577,14.4220452 36.5078255,14.6544463 34.6743392,13.7695346 C32.8408529,12.8846228 31.6685102,11.0357795 31.65,9 L31.65,8.52 C33.3017018,8.78271585 34.8128446,9.60537068 35.93,10.85 L36.5,10.28 L36.5,3.87 L35.92,3.29 C34.803898,4.52893655 33.2967828,5.34779071 31.65,5.61 C31.6448188,3.32962609 33.1832128,1.33464982 35.39,0.76 L34.8,0.17 C33.2133333,0.0566666667 31.6133333,0 30,0 C28.3866667,0 26.7866667,0.0566666667 25.2,0.17 L24.61,0.76 C26.8131795,1.33371658 28.350621,3.32334666 28.35,5.6 C26.7032172,5.33779071 25.196102,4.51893655 24.08,3.28 L23.5,3.86 L23.5,10.26 L24.07,10.83 C25.1871554,9.58537068 26.6982982,8.76271585 28.35,8.5 L28.35,9 C28.3492234,11.0373749 27.1913317,12.8974656 25.3635621,13.7975519 C23.5357926,14.6976382 21.3554439,14.481466 19.74,13.24 L19.83,13.06 C20.0911291,12.6246437 20.1769279,12.1062761 20.07,11.61 C19.88,10.74 19.2,10.61 19.01,9.72 C18.8431548,8.95593352 19.245988,8.18175389 19.9674633,7.87991222 C20.6889385,7.57807054 21.5230506,7.8347526 21.95,8.49 C22.3995641,7.8295322 22.4289013,6.96930665 22.0253788,6.27974509 C21.6218562,5.59018352 20.8575214,5.19440466 20.0615045,5.26283483 C19.2654876,5.33126501 18.5799145,5.85168626 18.3,6.6 C18.379171,6.06754831 18.3588264,5.52502678 18.24,5 C17.950221,3.70524627 17.1002389,2.60613141 15.92,2 C15.1026649,3.04269999 14.7912047,4.39480384 15.07,5.69 C15.1873449,6.21472474 15.4009544,6.71314697 15.7,7.16 C15.1348708,6.58753033 14.2892631,6.39430355 13.5315789,6.66450184 C12.7738946,6.93470014 12.2413603,7.61938706 12.1659827,8.4202683 C12.0906051,9.22114953 12.4860361,9.99317499 13.18,10.4 C13.2971948,9.63158622 13.943646,9.05471359 14.7203925,9.0254024 C15.4971391,8.99609121 16.1852275,9.52260385 16.36,10.28 C16.55,11.15 16,11.56 16.19,12.44 C16.3257126,13.0418954 16.7316385,13.5474577 17.29,13.81 C16.4621256,15.3746522 14.8098746,16.3254415 13.0411025,16.255032 C11.2723303,16.1846225 9.70088374,15.1055074 9,13.48 C9.26765215,13.4347174 9.53854747,13.4113067 9.81,13.41 C10.6028577,13.4099687 11.3843566,13.5984882 12.09,13.96 L12.28,13.23 C11.0917892,11.4379046 10.2003462,9.46592456 9.64,7.39 L9,7 C8.75265613,8.02985319 8.15528261,8.94181986 7.31,9.58 C6.81724258,7.87439722 6.99986715,6.04457068 7.82,4.47 L7.14,4.12 C5.95,4.53 4.34,5.18 3.14,5.7 L10,21.11 C22.7182103,15.4639593 37.2317897,15.4639593 49.95,21.11 L56.83,5.7 C55.66,5.18 54.05,4.53 52.86,4.12 Z" id="Shape"></path>
            <path d="M59,33 C59.0566332,31.1535012 57.800281,29.5244313 56,29.11 L56,26.89 C57.9859525,26.4158098 59.2960071,24.5219972 59.0392802,22.496422 C58.7825533,20.4708468 57.0414576,18.9637453 55,19 C53.1522154,18.9393884 51.5209102,20.1974644 51.11,22 L8.89,22 C8.47556872,20.199719 6.84649875,18.9433668 5,19 C3.93001495,18.9692903 2.89465866,19.3808482 2.13775341,20.1377534 C1.38084817,20.8946587 0.969290284,21.9300149 1,23 C0.943366847,24.8464988 2.199719,26.4755687 4,26.89 L4,29.12 C2.21062121,29.5585923 0.952247342,31.1626538 0.952247342,33.005 C0.952247342,34.8473462 2.21062121,36.4514077 4,36.89 L4,39.12 C2.21062121,39.5585923 0.952247342,41.1626538 0.952247342,43.005 C0.952247342,44.8473462 2.21062121,46.4514077 4,46.89 L4,49.12 C2.21062121,49.5585923 0.952247342,51.1626538 0.952247342,53.005 C0.952247342,54.8473462 2.21062121,56.4514077 4,56.89 L4,59.12 C2.03560494,59.6121138 0.748907016,61.494687 1.00385451,63.5036733 C1.258802,65.5126595 2.97495101,67.0141608 5,67 C7.04145762,67.0362547 8.7825533,65.5291532 9.0392802,63.503578 C9.2960071,61.4780028 7.98595249,59.5841902 6,59.11 L6,56.89 C7.78937879,56.4514077 9.04775266,54.8473462 9.04775266,53.005 C9.04775266,51.1626538 7.78937879,49.5585923 6,49.12 L6,46.89 C7.78937879,46.4514077 9.04775266,44.8473462 9.04775266,43.005 C9.04775266,41.1626538 7.78937879,39.5585923 6,39.12 L6,36.89 C7.78937879,36.4514077 9.04775266,34.8473462 9.04775266,33.005 C9.04775266,31.1626538 7.78937879,29.5585923 6,29.12 L6,26.89 C7.44100799,26.5663394 8.5663394,25.441008 8.89,24 L11,24 L11,67 L11.46,67 C12.4805192,63.9359093 14.0158376,61.068178 16,58.52 L16,58 L14,58 L14,52 L19,52 L19,58 L18,58 L18,58.55 C19.331147,61.2188823 20.2740136,64.0643189 20.8,67 L21.19,67 C21.7191553,64.0638049 22.6653961,61.2183477 24,58.55 L24,58 L23,58 L23,52 L28,52 L28,58 L27,58 L27,58.55 C28.331147,61.2188823 29.2740136,64.0643189 29.8,67 L30.19,67 C30.7191553,64.0638049 31.6653961,61.2183477 33,58.55 L33,58 L32,58 L32,52 L37,52 L37,58 L36,58 L36,58.55 C37.331147,61.2188823 38.2740136,64.0643189 38.8,67 L39.19,67 C39.7191553,64.0638049 40.6653961,61.2183477 42,58.55 L42,58 L41,58 L41,52 L46,52 L46,58 L44,58 L44,58.52 C45.9841624,61.068178 47.5194808,63.9359093 48.54,67 L49,67 L49,24 L51.11,24 C51.4314193,25.4422405 52.5577595,26.5685807 54,26.89 L54,29.12 C52.2106212,29.5585923 50.9522473,31.1626538 50.9522473,33.005 C50.9522473,34.8473462 52.2106212,36.4514077 54,36.89 L54,39.12 C52.2106212,39.5585923 50.9522473,41.1626538 50.9522473,43.005 C50.9522473,44.8473462 52.2106212,46.4514077 54,46.89 L54,49.12 C52.2106212,49.5585923 50.9522473,51.1626538 50.9522473,53.005 C50.9522473,54.8473462 52.2106212,56.4514077 54,56.89 L54,59.12 C52.0496933,59.623567 50.7780748,61.4987867 51.0318812,63.4970005 C51.2856876,65.4952143 52.9857319,66.9929833 55,66.9929833 C57.0142681,66.9929833 58.7143124,65.4952143 58.9681188,63.4970005 C59.2219252,61.4987867 57.9503067,59.623567 56,59.12 L56,56.89 C57.7893788,56.4514077 59.0477527,54.8473462 59.0477527,53.005 C59.0477527,51.1626538 57.7893788,49.5585923 56,49.12 L56,46.89 C57.7893788,46.4514077 59.0477527,44.8473462 59.0477527,43.005 C59.0477527,41.1626538 57.7893788,39.5585923 56,39.12 L56,36.89 C57.800281,36.4755687 59.0566332,34.8464988 59,33 Z M7,63 C7.0324436,63.5397267 6.83217053,64.0675039 6.44983721,64.4498372 C6.06750388,64.8321705 5.53972674,65.0324436 5,65 C4.05897165,65.0434491 3.21519588,64.4243336 2.97426963,63.5136324 C2.73334338,62.6029312 3.16058999,61.6475664 4,61.22 C4.10475415,61.6851526 4.52334012,62.0116496 5,62 C5.47665988,62.0116496 5.89524585,61.6851526 6,61.22 C6.65270024,61.5667662 7.04338055,62.2621772 7,63 L7,63 Z M7,53 C7.04338055,53.7378228 6.65270024,54.4332338 6,54.78 C5.89524585,54.3148474 5.47665988,53.9883504 5,54 C4.52334012,53.9883504 4.10475415,54.3148474 4,54.78 C3.36697618,54.4082795 2.97817699,53.7290949 2.97817699,52.995 C2.97817699,52.2609051 3.36697618,51.5817205 4,51.21 C4.10064169,51.6791379 4.52030719,52.0106736 5,52 C5.47665988,52.0116496 5.89524585,51.6851526 6,51.22 C6.65270024,51.5667662 7.04338055,52.2621772 7,53 L7,53 Z M7,43 C7.04338055,43.7378228 6.65270024,44.4332338 6,44.78 C5.89524585,44.3148474 5.47665988,43.9883504 5,44 C4.52334012,43.9883504 4.10475415,44.3148474 4,44.78 C3.36697618,44.4082795 2.97817699,43.7290949 2.97817699,42.995 C2.97817699,42.2609051 3.36697618,41.5817205 4,41.21 C4.10064169,41.6791379 4.52030719,42.0106736 5,42 C5.47665988,42.0116496 5.89524585,41.6851526 6,41.22 C6.65270024,41.5667662 7.04338055,42.2621772 7,43 Z M6,24.78 C5.89524585,24.3148474 5.47665988,23.9883504 5,24 C4.52334012,23.9883504 4.10475415,24.3148474 4,24.78 C3.16058999,24.3524336 2.73334338,23.3970688 2.97426963,22.4863676 C3.21519588,21.5756664 4.05897165,20.9565509 5,21 C5.94102835,20.9565509 6.78480412,21.5756664 7.02573037,22.4863676 C7.26665662,23.3970688 6.83941001,24.3524336 6,24.78 L6,24.78 Z M19,49 L14,49 L14,43 L19,43 L19,49 Z M19,40 L14,40 L14,34 L19,34 L19,40 Z M19,31 L14,31 L14,25 L19,25 L19,31 Z M28,49 L23,49 L23,43 L28,43 L28,49 Z M28,40 L23,40 L23,34 L28,34 L28,40 Z M28,31 L23,31 L23,25 L28,25 L28,31 Z M37,49 L32,49 L32,43 L37,43 L37,49 Z M37,40 L32,40 L32,34 L37,34 L37,40 Z M37,31 L32,31 L32,25 L37,25 L37,31 Z M46,49 L41,49 L41,43 L46,43 L46,49 Z M46,40 L41,40 L41,34 L46,34 L46,40 Z M46,31 L41,31 L41,25 L46,25 L46,31 Z M53,23 C53.0232842,22.0358504 53.731313,21.2256398 54.6836473,21.0733708 C55.6359817,20.9211018 56.5613426,21.4701493 56.8840966,22.3789708 C57.2068507,23.2877922 56.8350591,24.2975035 56,24.78 C56,24.2277153 55.5522847,23.78 55,23.78 C54.4477153,23.78 54,24.2277153 54,24.78 C53.3472998,24.4332338 52.9566194,23.7378228 53,23 L53,23 Z M57,63 C56.9767158,63.9641496 56.268687,64.7743602 55.3163527,64.9266292 C54.3640183,65.0788982 53.4386574,64.5298507 53.1159034,63.6210292 C52.7931493,62.7122078 53.1649409,61.7024965 54,61.22 C54,61.7722847 54.4477153,62.22 55,62.22 C55.5522847,62.22 56,61.7722847 56,61.22 C56.6527002,61.5667662 57.0433806,62.2621772 57,63 Z M57,53 C57.0433806,53.7378228 56.6527002,54.4332338 56,54.78 C56,54.2277153 55.5522847,53.78 55,53.78 C54.4477153,53.78 54,54.2277153 54,54.78 C53.3669762,54.4082795 52.978177,53.7290949 52.978177,52.995 C52.978177,52.2609051 53.3669762,51.5817205 54,51.21 C54,51.7622847 54.4477153,52.21 55,52.21 C55.5522847,52.21 56,51.7622847 56,51.21 C56.6561426,51.5582955 57.0474075,52.2586597 57,53 L57,53 Z M57,43 C57.0433806,43.7378228 56.6527002,44.4332338 56,44.78 C56,44.2277153 55.5522847,43.78 55,43.78 C54.4477153,43.78 54,44.2277153 54,44.78 C53.3669762,44.4082795 52.978177,43.7290949 52.978177,42.995 C52.978177,42.2609051 53.3669762,41.5817205 54,41.21 C54,41.7622847 54.4477153,42.21 55,42.21 C55.5522847,42.21 56,41.7622847 56,41.21 C56.6561426,41.5582955 57.0474075,42.2586597 57,43 L57,43 Z M7,33 C7.04338055,33.7378228 6.65270024,34.4332338 6,34.78 C5.89524585,34.3148474 5.47665988,33.9883504 5,34 C4.52334012,33.9883504 4.10475415,34.3148474 4,34.78 C3.36697618,34.4082795 2.97817699,33.7290949 2.97817699,32.995 C2.97817699,32.2609051 3.36697618,31.5817205 4,31.21 C4.10064169,31.6791379 4.52030719,32.0106736 5,32 C5.47665988,32.0116496 5.89524585,31.6851526 6,31.22 C6.65270024,31.5667662 7.04338055,32.2621772 7,33 L7,33 Z M57,33 C57.0433806,33.7378228 56.6527002,34.4332338 56,34.78 C56,34.2277153 55.5522847,33.78 55,33.78 C54.4477153,33.78 54,34.2277153 54,34.78 C53.3669762,34.4082795 52.978177,33.7290949 52.978177,32.995 C52.978177,32.2609051 53.3669762,31.5817205 54,31.21 C54,31.7622847 54.4477153,32.21 55,32.21 C55.5522847,32.21 56,31.7622847 56,31.21 C56.6561426,31.5582955 57.0474075,32.2586597 57,33 L57,33 Z" id="Shape"></path>
        </g>
    </g>
</svg>