<svg id="Layer_1" data-name="Layer 1" xmlns="http://www.w3.org/2000/svg" viewBox="0 0 267.27 67.58"><defs><style>.cls-1{fill:#373151;}</style></defs><title>UK Parliament Core Stacked Purple RGB</title><path class="cls-1" d="M95.34,5.7v19c0,7.45-5.38,9.9-11.19,9.9S73,32.13,73,24.68V5.7h5.14V23.29c0,4.76,1.92,7.06,6,7.06s6.05-2.31,6.05-7V5.7Z"/><path class="cls-1" d="M114.62,34l-8.46-12.15h-2V34H99V5.7h5.14V17.43h2.11L114.14,5.7h6l-9.56,13.74L120.87,34Z"/><path class="cls-1" d="M73,67V38.71h9.08c7.06,0,10.09,3.27,10.09,9s-3.36,9.37-9.61,9.37H78.14V67Zm5.14-14.17H82c3.7,0,4.95-1.87,4.95-4.9,0-3.27-1.68-4.95-5-4.95H78.14Z"/><path class="cls-1" d="M111.74,61.28c0,1.59.72,2,1.63,2a3.29,3.29,0,0,0,1.3-.24v3.79a6.54,6.54,0,0,1-2.79.53c-2.64,0-4.27-1.1-4.8-3.55-1.1,2.79-3.6,3.75-6.53,3.75-3.89,0-6.58-2.26-6.58-6.05,0-4.9,3.84-7.69,12.78-7.25v-2.5c0-2.5-1.39-3.55-3.55-3.55a3.31,3.31,0,0,0-3.6,3.46l-4.9-.82c.34-4.71,4.42-6.58,8.84-6.58,4.76,0,8.21,2,8.21,7Zm-5-3.94C101.27,57.2,99,58.5,99,61a2.83,2.83,0,0,0,3.17,2.88c2.11,0,4.56-1.2,4.56-3.65Z"/><path class="cls-1" d="M145.26,35.38a3.09,3.09,0,0,1,3.31,3.17,3.27,3.27,0,0,1-6.53,0A3.06,3.06,0,0,1,145.26,35.38Zm2.55,9.43V67h-5V44.81Z"/><path class="cls-1" d="M168.49,61.28c0,1.59.72,2,1.63,2a3.29,3.29,0,0,0,1.3-.24v3.79a6.54,6.54,0,0,1-2.79.53c-2.64,0-4.27-1.1-4.8-3.55-1.1,2.79-3.6,3.75-6.53,3.75-3.89,0-6.58-2.26-6.58-6.05,0-4.9,3.84-7.69,12.78-7.25v-2.5c0-2.5-1.39-3.55-3.55-3.55a3.31,3.31,0,0,0-3.6,3.46l-4.9-.82c.34-4.71,4.42-6.58,8.84-6.58,4.76,0,8.21,2,8.21,7Zm-5-3.94c-5.48-.14-7.73,1.15-7.73,3.65a2.83,2.83,0,0,0,3.17,2.88c2.11,0,4.56-1.2,4.56-3.65Z"/><path class="cls-1" d="M198.56,44.28c3.7,0,6.48,2,6.48,6.77V67h-5V52.83c0-2.64-1-4.27-3.41-4.27S192,50.19,192,54.42V67h-5V52.83c0-2.64-1-4.27-3.46-4.27S179,50.19,179,54.46V67h-5V44.81H178l.62,4.27a6.74,6.74,0,0,1,6.87-4.8c3.07,0,5.43,1.3,6,4.9C192.66,45.67,195.44,44.28,198.56,44.28Z"/><path class="cls-1" d="M223,60.23l4.37,1.3c-1,4.52-4.8,6.05-9.08,6.05-6.05,0-10.18-4.13-10.18-11.43,0-7.49,4-11.86,10.37-11.86,5.91,0,9,4,9,9.61a12.14,12.14,0,0,1-.38,3H213c.19,4,2.07,6.77,5.52,6.77A4.19,4.19,0,0,0,223,60.23Zm-.43-6.63a5.22,5.22,0,0,0,0-.86,4.3,4.3,0,0,0-4.37-4.61c-2.93,0-4.8,2.07-5.14,5.48Z"/><path class="cls-1" d="M235.42,49.08c1.2-3.31,3.75-4.8,7.11-4.8,3.55,0,6.68,2,6.68,6.92V67h-5V52.88c0-2.64-1.06-4.32-3.6-4.32s-4.8,1.34-4.8,5.91V67h-5V44.81h4.08Z"/><path class="cls-1" d="M267.27,66.23a11.75,11.75,0,0,1-5.86,1.34c-4.13,0-6.68-2.11-6.68-6.53V48.75h-3.22V44.81h3.22l1.15-6.09h3.94v6.09h6.58v3.94h-6.63V60c0,2.35,1,3.31,2.83,3.31a6.12,6.12,0,0,0,3.75-1.3Z"/><path class="cls-1" d="M122.08,50.86l-.62-6.05h-4.27V67h5V56.14c0-4.42,3-6.48,6-6.48l.69,0V44.38C124.89,44.82,122.87,47.44,122.08,50.86Z"/><path class="cls-1" d="M138.54,63a1.74,1.74,0,0,1-2-1.92V36.18h-5V62.29c0,3.6,2.5,5.09,5.43,5.09a9.46,9.46,0,0,0,3-.53v-4A4.76,4.76,0,0,1,138.54,63Z"/><path class="cls-1" d="M51.86,4.12l-.68.35h0a6.91,6.91,0,0,1,.51,5.11A4.57,4.57,0,0,1,50,7l-.68.35h0a20,20,0,0,1-2.59,5.82v0l.19.73a5,5,0,0,1,2.28-.55,5,5,0,0,1,.81.07,4.6,4.6,0,0,1-8.34.3,2,2,0,0,0,1.1-1.37c.19-.87-.36-1.28-.17-2.16a1.62,1.62,0,0,1,3.18.12,2.07,2.07,0,1,0-2.52-3.24,4.35,4.35,0,0,0,.63-1.47A4.46,4.46,0,0,0,43.07,2a4.47,4.47,0,0,0-2.32,3,4.35,4.35,0,0,0-.05,1.6,2.07,2.07,0,1,0-3.65,1.89A1.62,1.62,0,0,1,40,9.67c-.19.87-.87,1-1.06,1.89A2,2,0,0,0,39.18,13l.11.17A5.35,5.35,0,0,1,30.65,9V8.52a7.29,7.29,0,0,1,4.28,2.33l.57-.57V3.87l-.58-.58a7.29,7.29,0,0,1-4.27,2.32h0A5,5,0,0,1,34.39.76L33.8.17Q31.42,0,29,0T24.2.17l-.59.59A5,5,0,0,1,27.35,5.6h0a7.29,7.29,0,0,1-4.27-2.32l-.58.58v6.4l.57.57a7.29,7.29,0,0,1,4.28-2.33V9a5.35,5.35,0,0,1-8.61,4.24l.09-.18a2,2,0,0,0,.24-1.45c-.19-.87-.87-1-1.06-1.89a1.62,1.62,0,0,1,2.94-1.23,2.07,2.07,0,1,0-3.65-1.89A4.35,4.35,0,0,0,17.24,5a4.47,4.47,0,0,0-2.32-3,4.46,4.46,0,0,0-.85,3.69,4.35,4.35,0,0,0,.63,1.47,2.07,2.07,0,1,0-2.52,3.24,1.62,1.62,0,0,1,3.18-.12c.19.87-.36,1.28-.17,2.16a2,2,0,0,0,1.1,1.37h0A4.6,4.6,0,0,1,8,13.48a5,5,0,0,1,.81-.07,5,5,0,0,1,2.28.55l.19-.73v0A20,20,0,0,1,8.64,7.39h0L8,7A4.57,4.57,0,0,1,6.31,9.58a6.91,6.91,0,0,1,.51-5.11h0l-.68-.35c-1.19.41-2.8,1.06-4,1.58L9,21.11a49.23,49.23,0,0,1,39.95,0L55.83,5.7C54.66,5.18,53.05,4.53,51.86,4.12Z"/><path class="cls-1" d="M58,33a3.87,3.87,0,0,0-3-3.89V26.89A4,4,0,0,0,54,19a3.86,3.86,0,0,0-3.89,3H7.89A3.87,3.87,0,0,0,4,19a3.89,3.89,0,0,0-4,4,3.87,3.87,0,0,0,3,3.89v2.23a4,4,0,0,0,0,7.77v2.23a4,4,0,0,0,0,7.77v2.23a4,4,0,0,0,0,7.77v2.23A4,4,0,0,0,4,67a4,4,0,0,0,1-7.89V56.89a4,4,0,0,0,0-7.77V46.89a4,4,0,0,0,0-7.77V36.89a4,4,0,0,0,0-7.77V26.89A3.82,3.82,0,0,0,7.89,24H10V67h.46A28.42,28.42,0,0,1,15,58.52V58H13V52h5v6H17v.55A31.3,31.3,0,0,1,19.8,67h.39A31.3,31.3,0,0,1,23,58.55V58H22V52h5v6H26v.55A31.3,31.3,0,0,1,28.8,67h.39A31.3,31.3,0,0,1,32,58.55V58H31V52h5v6H35v.55A31.3,31.3,0,0,1,37.8,67h.39A31.3,31.3,0,0,1,41,58.55V58H40V52h5v6H43v.52A28.42,28.42,0,0,1,47.54,67H48V24h2.11A3.81,3.81,0,0,0,53,26.89v2.23a4,4,0,0,0,0,7.77v2.23a4,4,0,0,0,0,7.77v2.23a4,4,0,0,0,0,7.77v2.23a4,4,0,1,0,2,0V56.89a4,4,0,0,0,0-7.77V46.89a4,4,0,0,0,0-7.77V36.89A3.87,3.87,0,0,0,58,33ZM6,63a1.89,1.89,0,0,1-2,2,2,2,0,0,1-1-3.78A1,1,0,0,0,4,62a1,1,0,0,0,1-.78A1.89,1.89,0,0,1,6,63ZM6,53a1.89,1.89,0,0,1-1,1.78A1,1,0,0,0,4,54a1,1,0,0,0-1,.78,2.07,2.07,0,0,1,0-3.57A1,1,0,0,0,4,52a1,1,0,0,0,1-.78A1.89,1.89,0,0,1,6,53ZM6,43a1.89,1.89,0,0,1-1,1.78A1,1,0,0,0,4,44a1,1,0,0,0-1,.78,2.07,2.07,0,0,1,0-3.57A1,1,0,0,0,4,42a1,1,0,0,0,1-.78A1.89,1.89,0,0,1,6,43ZM5,24.78A1,1,0,0,0,4,24a1,1,0,0,0-1,.78A2,2,0,0,1,4,21a2,2,0,0,1,1,3.78ZM18,49H13V43h5Zm0-9H13V34h5Zm0-9H13V25h5Zm9,18H22V43h5Zm0-9H22V34h5Zm0-9H22V25h5Zm9,18H31V43h5Zm0-9H31V34h5Zm0-9H31V25h5Zm9,18H40V43h5Zm0-9H40V34h5Zm0-9H40V25h5Zm7-8a2,2,0,1,1,3,1.78,1,1,0,0,0-2,0A1.89,1.89,0,0,1,52,23Zm4,40a2,2,0,1,1-3-1.78,1,1,0,0,0,2,0A1.89,1.89,0,0,1,56,63Zm0-10a1.89,1.89,0,0,1-1,1.78,1,1,0,0,0-2,0,2.07,2.07,0,0,1,0-3.57,1,1,0,0,0,2,0A1.89,1.89,0,0,1,56,53Zm0-10a1.89,1.89,0,0,1-1,1.78,1,1,0,0,0-2,0,2.07,2.07,0,0,1,0-3.57,1,1,0,0,0,2,0A1.89,1.89,0,0,1,56,43ZM6,33a1.89,1.89,0,0,1-1,1.78A1,1,0,0,0,4,34a1,1,0,0,0-1,.78,2.07,2.07,0,0,1,0-3.57A1,1,0,0,0,4,32a1,1,0,0,0,1-.78A1.89,1.89,0,0,1,6,33Zm50,0a1.89,1.89,0,0,1-1,1.78,1,1,0,0,0-2,0,2.07,2.07,0,0,1,0-3.57,1,1,0,0,0,2,0A1.89,1.89,0,0,1,56,33Z"/></svg>